<svg id="Layer_1" data-name="Layer 1" xmlns="http://www.w3.org/2000/svg" xmlns:xlink="http://www.w3.org/1999/xlink" viewBox="0 0 150 150"><defs><symbol id="icon_shorebird_native_painted_snipe_highlight" data-name="icon_shorebird_native_painted_snipe_highlight" viewBox="0 0 150 150"><rect width="150" height="150" fill="none"/><path d="M86.93,49.07C79.87,45.88,68,64.7,71.41,68.29s8.79.87,13.25-2.54C90.23,61.48,94,52.27,86.93,49.07Z" fill="#00a0dd"/><path d="M99.54,21.28c-6-.84-11.64.39-15.5,3a59.9,59.9,0,0,0-11.54-2.8c-5.66-.79-16.27,0-16.27,0L16.89,18.69A8.86,8.86,0,0,0,10,21.27L8.43,22.83a6.61,6.61,0,0,0-.23,9.09L28,53.88S46.2,76.48,64.49,79c22.86,3.18,43.19-7.13,45.4-23a21.26,21.26,0,0,0-1.11-10.15C113,44,116,40.85,116.5,37,117.51,29.74,109.91,22.72,99.54,21.28Z" fill="none" stroke="#10263b" stroke-linecap="round" stroke-miterlimit="10" stroke-width="6"/><path d="M143.5,54.94S138,46.08,116.93,40.55" fill="none" stroke="#10263b" stroke-linecap="round" stroke-miterlimit="10" stroke-width="6"/><polyline points="73.75 80.41 72.64 87.05 72.64 120.26 85.93 131.33" fill="none" stroke="#10263b" stroke-linecap="round" stroke-miterlimit="10" stroke-width="6"/><polyline points="54.93 75.98 49.4 90.37 47.18 119.15 51.61 131.33" fill="none" stroke="#10263b" stroke-linecap="round" stroke-miterlimit="10" stroke-width="6"/><path d="M68.22,130.23s-19.93-5.54-21-11.08" fill="none" stroke="#10263b" stroke-linecap="round" stroke-miterlimit="10" stroke-width="6"/><path d="M61.57,120.26s-13.93,2.85-14.16-4.11" fill="none" stroke="#10263b" stroke-linecap="round" stroke-miterlimit="10" stroke-width="6"/><path d="M94.79,124.69s-21-4.06-22.15-10.89" fill="none" stroke="#10263b" stroke-linecap="round" stroke-miterlimit="10" stroke-width="6"/><path d="M67.11,122.48s4.43-5.54,5.53-10" fill="none" stroke="#10263b" stroke-linecap="round" stroke-miterlimit="10" stroke-width="6"/><circle cx="102.54" cy="33.91" r="3.32" fill="#10263b"/><path d="M86.93,49.07A6.57,6.57,0,0,1,89.37,51c3,3.88.86,10.48-4.71,14.75-4.46,3.41-13.25,2.54-13.25,2.54" fill="none" stroke="#10263b" stroke-linecap="round" stroke-miterlimit="10" stroke-width="4"/></symbol></defs><title>icon-waterbirds</title><use id="icon_shorebird_native_painted_snipe_highlight-3" data-name="icon_shorebird_native_painted_snipe_highlight" width="150" height="150" transform="translate(0)" xlink:href="#icon_shorebird_native_painted_snipe_highlight"/></svg>