<svg id="Layer_1" data-name="Layer 1" xmlns="http://www.w3.org/2000/svg" xmlns:xlink="http://www.w3.org/1999/xlink" viewBox="0 0 150 150"><defs><symbol id="icon_location_ramsar_highlight" data-name="icon_location_ramsar_highlight" viewBox="0 0 150 150"><path d="M21.79,128a60.71,60.71,0,0,0,13.84-5.68c16.64-9.89,33.26-10.28,49.93-.49,14.39,8.45,28.43,8.22,42.65-.44" fill="none" stroke="#10263b" stroke-linecap="round" stroke-linejoin="round" stroke-width="6"/><path d="M21.79,144.78a61.19,61.19,0,0,0,13.84-5.69c16.64-9.89,33.26-10.28,49.93-.49,14.39,8.46,28.43,8.23,42.65-.44" fill="none" stroke="#10263b" stroke-linecap="round" stroke-linejoin="round" stroke-width="6"/><line x1="78.44" y1="58.77" x2="78.44" y2="118.26" fill="none" stroke="#10263b" stroke-linecap="round" stroke-linejoin="round" stroke-width="6"/><path d="M87.29,79.13s4.83,27.83.16,39.13" fill="none" stroke="#10263b" stroke-linecap="round" stroke-linejoin="round" stroke-width="6"/><path d="M106.54,102.26s-10.29,1.29-17.05,9.12" fill="none" stroke="#10263b" stroke-linecap="round" stroke-linejoin="round" stroke-width="6"/><path d="M35.7,80.38s31.21,18.76,33.71,25.73" fill="none" stroke="#10263b" stroke-linecap="round" stroke-linejoin="round" stroke-width="6"/><path d="M86.32,88.51s-18,8.79-16.86,18.31" fill="none" stroke="#10263b" stroke-linecap="round" stroke-linejoin="round" stroke-width="6"/><path d="M67.66,78.27s9.9,4.18,10.78,15" fill="none" stroke="#10263b" stroke-linecap="round" stroke-linejoin="round" stroke-width="6"/><rect x="71.87" y="16.13" width="13.13" height="42.64" rx="6.57" ry="6.57" fill="#00a0dd" stroke="#10263b" stroke-linecap="round" stroke-linejoin="round" stroke-width="6"/><path d="M99.5,83.3h0A6.58,6.58,0,0,1,95,75.2l6.09-21.6a6.59,6.59,0,0,1,8.11-4.54h0a6.58,6.58,0,0,1,4.53,8.11l-6.09,21.6A6.6,6.6,0,0,1,99.5,83.3Z" fill="#00a0dd" stroke="#10263b" stroke-linecap="round" stroke-linejoin="round" stroke-width="6"/><path d="M54.57,73h0a6.57,6.57,0,0,1-8.51-3.71L38,48.9a6.58,6.58,0,0,1,3.71-8.51h0a6.58,6.58,0,0,1,8.52,3.7l8,20.39A6.58,6.58,0,0,1,54.57,73Z" fill="#00a0dd" stroke="#10263b" stroke-linecap="round" stroke-linejoin="round" stroke-width="6"/><line x1="99.04" y1="83.17" x2="86.57" y2="121.35" fill="none" stroke="#10263b" stroke-linecap="round" stroke-linejoin="round" stroke-width="6"/><line x1="111.63" y1="43.34" x2="110.02" y2="48.29" fill="none" stroke="#10263b" stroke-linecap="round" stroke-linejoin="round" stroke-width="6"/><line x1="54.66" y1="73.45" x2="72.04" y2="114.68" fill="none" stroke="#10263b" stroke-linecap="round" stroke-linejoin="round" stroke-width="6"/><line x1="78.44" y1="9.88" x2="78.44" y2="14.88" fill="none" stroke="#10263b" stroke-linecap="round" stroke-linejoin="round" stroke-width="6"/><rect width="150" height="150" fill="none"/><line x1="39.47" y1="34.62" x2="41.75" y2="40.39" fill="none" stroke="#10263b" stroke-linecap="round" stroke-linejoin="round" stroke-width="6"/></symbol></defs><title>icon-vegetation</title><use id="icon_location_ramsar_highlight-3" data-name="icon_location_ramsar_highlight" width="150" height="150" xlink:href="#icon_location_ramsar_highlight"/></svg>