<svg id="Layer_1" data-name="Layer 1" xmlns="http://www.w3.org/2000/svg" viewBox="0 0 48.19 48.19"><defs><style>.cls-1{fill:#fdb62c;}</style></defs><title>dry</title><path class="cls-1" d="M683,397.91a13.59,13.59,0,1,1,13.59-13.59A13.6,13.6,0,0,1,683,397.91Z" transform="translate(-658.86 -360.23)"/><path class="cls-1" d="M683,408.41A1.44,1.44,0,0,1,681.5,407v-4.87a1.46,1.46,0,0,1,2.91,0V407A1.45,1.45,0,0,1,683,408.41Z" transform="translate(-658.86 -360.23)"/><path class="cls-1" d="M683,368a1.45,1.45,0,0,1-1.45-1.45v-4.87a1.46,1.46,0,0,1,2.91,0v4.87A1.45,1.45,0,0,1,683,368Z" transform="translate(-658.86 -360.23)"/><path class="cls-1" d="M665.18,385.77h-4.87a1.45,1.45,0,1,1,0-2.9h4.87a1.45,1.45,0,1,1,0,2.9Z" transform="translate(-658.86 -360.23)"/><path class="cls-1" d="M705.6,385.77h-4.87a1.45,1.45,0,0,1,0-2.9h4.87a1.45,1.45,0,0,1,0,2.9Z" transform="translate(-658.86 -360.23)"/><path class="cls-1" d="M666.94,401.78a1.45,1.45,0,0,1-1-2.47l3.44-3.45a1.46,1.46,0,0,1,2,0,1.44,1.44,0,0,1,0,2.05L668,401.36A1.46,1.46,0,0,1,666.94,401.78Z" transform="translate(-658.86 -360.23)"/><path class="cls-1" d="M695.52,373.2a1.45,1.45,0,0,1-1-2.47l3.44-3.45a1.45,1.45,0,1,1,2,2.06l-3.44,3.44A1.46,1.46,0,0,1,695.52,373.2Z" transform="translate(-658.86 -360.23)"/><path class="cls-1" d="M670.39,373.2a1.44,1.44,0,0,1-1-.42l-3.44-3.45a1.44,1.44,0,0,1,0-2.05,1.46,1.46,0,0,1,2.05,0l3.44,3.45a1.45,1.45,0,0,1-1,2.47Z" transform="translate(-658.86 -360.23)"/><path class="cls-1" d="M699,401.78a1.44,1.44,0,0,1-1-.42l-3.44-3.45a1.44,1.44,0,0,1,0-2.05,1.46,1.46,0,0,1,2,0l3.44,3.45a1.45,1.45,0,0,1-1,2.47Z" transform="translate(-658.86 -360.23)"/></svg>