<svg xmlns="http://www.w3.org/2000/svg" viewBox="0 0 22.993 12.0258"><defs><style>.a{fill:#b3b3b3;}</style></defs><title>fish</title><path class="a" d="M22.052,9.0165a8.87,8.87,0,0,1-1.053-.59,14.0857,14.0857,0,0,1-1.6424-1.3634,4.8161,4.8161,0,0,0-.9694-1.1267,4.1641,4.1641,0,0,0-1.89-1.15A7.51,7.51,0,0,0,13.73,4.2723c-.0993,0-.1978.0025-.2657.0058a10.6665,10.6665,0,0,0-4.366.721A2.5968,2.5968,0,0,0,7.964,4.7383,2.6831,2.6831,0,0,0,5.3166,7.45a2.7778,2.7778,0,0,0,.1043.7541,2.2013,2.2013,0,0,1-.9329-.2458C2.6229,6.9917,1.64,6.6051.6965,7.2384c-.5083.3444-.2243,2.0364.2384,3.0654-.2963,2.3808.58,3.8552,1.1292,3.95.9437.1539,1.9536-.6672,2.8469-1.3982.2061-.1689.4007-.3287.5778-.46a1.6082,1.6082,0,0,1,.7823-.168,2.8672,2.8672,0,0,0,.0671.7583,3.4093,3.4093,0,0,0,1.6573,2.4669,1.0431,1.0431,0,0,0,1.06-.2483,11.8483,11.8483,0,0,1,1.5149-1.1987,8.8565,8.8565,0,0,0,3.3528.4023,4.3319,4.3319,0,0,0,0,.55,1.3046,1.3046,0,0,0,.7,1.27.8739.8739,0,0,0,.3394.07.9161.9161,0,0,0,.6134-.2434l1.548-1.8518c2.8171-1.1159,6.145-2.6474,6.2857-3.7v-.0009C23.5106,9.745,22.77,9.375,22.052,9.0165Z" transform="translate(-0.4266 -4.2723)"/></svg>