<svg xmlns="http://www.w3.org/2000/svg" viewBox="0 0 44.0905 32.3117"><defs><style>.a{fill:#0052bc;}</style></defs><title>flood</title><path class="a" d="M15.0128,34.4688a9.618,9.618,0,0,1,6.17,2.1333,5.9914,5.9914,0,0,0,7.69.0005A9.9851,9.9851,0,0,1,41.21,36.6021a5.7045,5.7045,0,0,0,3.8442,1.3967,2.0172,2.0172,0,0,1,0,4.0343A9.6137,9.6137,0,0,1,38.8856,39.9a5.9892,5.9892,0,0,0-7.6888,0,9.6136,9.6136,0,0,1-6.1686,2.1334A9.6184,9.6184,0,0,1,18.858,39.9a5.7062,5.7062,0,0,0-3.8452-1.3967A5.7061,5.7061,0,0,0,11.1677,39.9a9.6168,9.6168,0,0,1-6.17,2.1334,2.0172,2.0172,0,0,1,0-4.0343,5.7065,5.7065,0,0,0,3.8453-1.3967A9.6162,9.6162,0,0,1,15.0128,34.4688Z" transform="translate(-2.9809 -9.7214)"/><path class="a" d="M15.0128,22.0953a9.6174,9.6174,0,0,1,6.17,2.1334,5.9917,5.9917,0,0,0,7.69,0,9.9847,9.9847,0,0,1,12.3378,0,5.7044,5.7044,0,0,0,3.8442,1.3966,2.0172,2.0172,0,0,1,0,4.0343,9.6131,9.6131,0,0,1-6.1687-2.1334,5.99,5.99,0,0,0-7.6888,0A9.613,9.613,0,0,1,25.0282,29.66a9.6179,9.6179,0,0,1-6.17-2.1334A5.7062,5.7062,0,0,0,15.0128,26.13a5.7061,5.7061,0,0,0-3.8451,1.3966A9.6163,9.6163,0,0,1,4.998,29.66a2.0172,2.0172,0,0,1,0-4.0343,5.7064,5.7064,0,0,0,3.8453-1.3966A9.6157,9.6157,0,0,1,15.0128,22.0953Z" transform="translate(-2.9809 -9.7214)"/><path class="a" d="M15.0128,9.7214a9.618,9.618,0,0,1,6.17,2.1333,5.9914,5.9914,0,0,0,7.69.0005A9.9851,9.9851,0,0,1,41.21,11.8547a5.7045,5.7045,0,0,0,3.8442,1.3967,2.0172,2.0172,0,0,1,0,4.0343,9.6137,9.6137,0,0,1-6.1687-2.1334,5.9892,5.9892,0,0,0-7.6888,0,9.6136,9.6136,0,0,1-6.1686,2.1334,9.6184,9.6184,0,0,1-6.17-2.1334,5.7062,5.7062,0,0,0-3.8452-1.3967,5.7061,5.7061,0,0,0-3.8451,1.3967,9.6168,9.6168,0,0,1-6.17,2.1334,2.0172,2.0172,0,0,1,0-4.0343,5.7065,5.7065,0,0,0,3.8453-1.3967A9.6162,9.6162,0,0,1,15.0128,9.7214Z" transform="translate(-2.9809 -9.7214)"/></svg>