<svg xmlns="http://www.w3.org/2000/svg" viewBox="0 0 43.2983 31.1046"><defs><style>.a{fill:#fdb62c;}.b{fill:#fff;}</style></defs><title>moderate</title><path class="a" d="M34.354,31.4154a1,1,0,0,0,1.2541,1.5575A9.3628,9.3628,0,1,0,22.369,19.9038a1,1,0,0,0,1.5733,1.2338A9.7644,9.7644,0,0,0,27.0714,26.99,21.1467,21.1467,0,0,0,34.354,31.4154Z" transform="translate(-3.0435 -9.0753)"/><path class="a" d="M29.74,14.43a1,1,0,0,1-1-1V10.075a1,1,0,0,1,1.9995,0V13.43A1,1,0,0,1,29.74,14.43Z" transform="translate(-3.0435 -9.0753)"/><path class="a" d="M45.3421,26.6769H41.9869a1,1,0,0,1,0-2h3.3552a1,1,0,0,1,0,2Z" transform="translate(-3.0435 -9.0753)"/><path class="a" d="M38.4,18.017A1,1,0,0,1,37.693,16.31l2.3725-2.3725a1,1,0,1,1,1.4137,1.4139l-2.3725,2.3725A.9961.9961,0,0,1,38.4,18.017Z" transform="translate(-3.0435 -9.0753)"/><path class="a" d="M21.08,18.0169a.9973.9973,0,0,1-.707-.2928l-2.3724-2.3724a1,1,0,1,1,1.414-1.4139L21.787,16.31a1,1,0,0,1-.707,1.7068Z" transform="translate(-3.0435 -9.0753)"/><path class="a" d="M40.7724,37.7092a.997.997,0,0,1-.7069-.2927L37.693,35.0441a1,1,0,0,1,1.4137-1.414l2.3725,2.3724a1,1,0,0,1-.7068,1.7067Z" transform="translate(-3.0435 -9.0753)"/><path class="b" d="M30.18,40.18H10.5677a7.5243,7.5243,0,0,1-.1753-15.0466,10.5926,10.5926,0,0,1,20.07,2.7685A6.1423,6.1423,0,0,1,30.18,40.18Z" transform="translate(-3.0435 -9.0753)"/></svg>