<?xml version="1.0" encoding="utf-8"?>
<!-- Generator: Adobe Illustrator 22.1.0, SVG Export Plug-In . SVG Version: 6.00 Build 0)  -->
<svg version="1.1" id="Layer_1" xmlns="http://www.w3.org/2000/svg" xmlns:xlink="http://www.w3.org/1999/xlink" x="0px" y="0px"
	 viewBox="0 0 967.9 986.5" style="enable-background:new 0 0 967.9 986.5;" xml:space="preserve">
<style type="text/css">
	.st0{opacity:0.3;fill:#81C9F0;}
	.st1{fill:#81C9F0;}
</style>
<title>river</title>
<path class="st0" d="M689.9,250.5c0.4-21.6,18.3-38.8,39.9-38.4c21.5,0.4,38.8,18.2,38.4,39.8c0,10.7,8.6,19.4,19.3,19.5
	c10.5,0,20.3,4.2,27.7,11.6s11.4,17.3,11.4,27.8v29.2c-0.1,10.8,8.6,19.5,19.3,19.6H958c5.5,0,9.9,4.5,9.9,9.9s-4.5,9.9-9.9,9.9
	H845.8c-21.7-0.1-39.2-17.9-39.1-39.5l0-29.2c0.1-10.8-8.6-19.5-19.3-19.6c-21.7-0.1-39.2-17.9-39.1-39.5l0-0.1
	c0.2-10.6-8.3-19.4-18.9-19.6c-0.1,0-0.2,0-0.4,0c-10.4,0-19,8.4-19.2,18.9L689.9,250.5z"/>
<path class="st0" d="M195.1,490.4c-5.5,0-9.9-4.5-9.9-9.9c0-10.6-8.6-19.2-19.2-19.2c-0.1,0-0.1,0-0.2,0
	c-21.5,0-39.1-17.5-39.2-39.1c0-5.2-2.1-10-5.8-13.7c-3.7-3.6-8.5-5.6-13.6-5.6c0,0-0.1,0-0.1,0l-0.1,0l-0.1,0
	c-10.5,0-20.4-4.2-27.7-11.6c-7.4-7.5-11.4-17.3-11.4-27.8v-59.3c0-5.5,4.5-9.9,9.9-9.9s9.9,4.5,9.9,9.9v59.3
	c-0.1,10.8,8.6,19.5,19.3,19.6c0.1,0,0.1,0,0.2,0c21.6,0,39.2,17.5,39.3,39.1c0.1,10.7,8.8,19.3,19.4,19.3c0,0,0.1,0,0.1,0
	c21.6,0,39.2,17.6,39.2,39.1C205,485.9,200.5,490.4,195.1,490.4z"/>
<path class="st0" d="M351.4,303.1h-61.8c-10.6-0.1-20.4-4.2-27.8-11.7s-11.4-17.4-11.3-27.9c0.1-10.7-8.6-19.5-19.3-19.5
	c-21.7-0.1-39.2-17.9-39.1-39.5V99.9c0-5.5,4.5-9.9,9.9-9.9s9.9,4.5,9.9,9.9v104.7c-0.1,10.8,8.6,19.5,19.3,19.6
	c21.7,0.1,39.2,17.9,39.1,39.5c-0.1,10.7,8.6,19.5,19.3,19.5h61.7c5.5,0,9.9,4.5,9.9,9.9S356.8,303.1,351.4,303.1z"/>
<path class="st1" d="M721.8,219.5c-1-27.1-23.8-48.4-50.9-47.7c-21.4-0.2-38.8-17.6-38.8-39c0-21.5,17.5-39,39-39
	c27.3,0,49.5-22.2,49.5-49.5V0h-40v44.3c0,5.3-4.3,9.5-9.5,9.5c-43.6,0-79,35.5-79,79s35.5,79,79,79l0.7,0c5.2-0.2,9.7,3.9,9.9,9.2
	c0.1,3.4-1.5,5.8-2.5,6.8s-3.2,2.9-6.6,3c-0.2,0-0.5,0-0.7,0l-0.4,0l-258,0c-43.6,0-79,35.5-79,79c0,43.4,35.2,78.8,78.6,79
	c3.3,0.2,5.4,2,6.4,3c1,1.1,2.7,3.4,2.5,6.8c-0.2,4.9-4.1,8.8-8.9,9.1l-125.7,0c-76.1,0-138.1,61.9-138.1,138.1
	c0,76.1,61.8,138,137.8,138.1c3.4,0.1,5.5,1.9,6.6,2.9c1,1.1,2.7,3.4,2.7,6.8c-0.1,5.1-4.1,9.2-9.2,9.3l-179.8,0
	c-27.3,0-49.5,22.2-49.5,49.5c0,5.2-4.3,9.5-9.5,9.5l-0.7,0c-27.3,1-48.7,24-47.7,51.3c0.9,25.8,21.9,46.7,47.7,47.7l0.4,0h405.8
	c5.3,0,9.5,4.3,9.5,9.5v28.6c0,18.7-14,36-31,38.1c-60.6,5.7-117.7,21.1-169,49h440c-53.6-27.4-111.8-44.2-171.5-49.6
	c-13.3-1.5-28.4-19.7-28.5-37.5v-28.7c0-27.3-22.2-49.5-49.5-49.5h-405c-4.8-0.3-8.7-4.3-8.9-9.1c-0.2-5.2,3.8-9.5,8.9-9.9
	c27.1-0.3,49-22.4,49-49.5c0-5.2,4.3-9.5,9.5-9.5l180,0l0.4,0c26.8-0.5,48.1-21.8,48.6-48.6c0.2-13.2-4.7-25.8-13.9-35.3
	c-9.2-9.5-21.5-14.9-34.8-15.1l-0.4,0c-54.1,0-98.1-44-98.1-98.1c0-54.1,44-98.1,98.1-98.1l126.1,0l0.7,0
	c25.8-0.9,46.7-21.9,47.7-47.7c0.5-13.2-4.2-25.8-13.2-35.5c-9-9.7-21.2-15.3-34.5-15.8l-0.7,0c-21.5,0-39-17.5-39-39
	c0-21.5,17.5-39,39-39l257.3,0c1.1,0,2.2,0,3.2,0c13.2-0.5,25.5-6.1,34.5-15.8C717.6,245.4,722.3,232.8,721.8,219.5z"/>
</svg>
