<svg id="Layer_1" data-name="Layer 1" xmlns="http://www.w3.org/2000/svg" viewBox="0 0 611.7 1907.58"><title>river-mob</title><path d="M-386.16-1044.4c-24.66,203.22.91,208.92,16.09,328.09C-342.13-497-475.62-567.66-478.18-402c-3,192.23-8.68,264.22-9.35,508.28-.31,110.63,11.21,125.72,6,246-6.16,142-24.69,178.44,0,255.18,24.93,77.49,10.25,72.36,14.88,139.36s43.41,58.61,16.1,96.5" transform="translate(788.6 1046.81)" fill="none" stroke="#81c9f0" stroke-miterlimit="10" stroke-width="40"/><g opacity="0.3"><path d="M-320-476.17c0-25-20.07-45.33-44.82-45.33h-37.47" transform="translate(788.6 1046.81)" fill="none" stroke="#81c9f0" stroke-miterlimit="10" stroke-width="30"/><path d="M-275.15-430.84c-24.76,0-44.82-20.29-44.82-45.33" transform="translate(788.6 1046.81)" fill="none" stroke="#81c9f0" stroke-miterlimit="10" stroke-width="30"/><path d="M-275.15-430.84c24.75,0,44.81,20.29,44.81,45.33v160.75" transform="translate(788.6 1046.81)" fill="none" stroke="#81c9f0" stroke-linecap="round" stroke-miterlimit="10" stroke-width="30"/></g><path d="M-788.6,860.77c93.06-50.55,199.69-71.69,313-71.69A653.85,653.85,0,0,1-176.9,860.77" transform="translate(788.6 1046.81)" fill="#81c9f0"/><g opacity="0.3"><path d="M-566.33,378.56a29.34,29.34,0,0,0,29.52,29.18h50.94" transform="translate(788.6 1046.81)" fill="none" stroke="#81c9f0" stroke-linecap="round" stroke-miterlimit="10" stroke-width="30"/><path d="M-566.33,378.56a29.36,29.36,0,0,0-29.52-29.19" transform="translate(788.6 1046.81)" fill="none" stroke="#81c9f0" stroke-linecap="round" stroke-miterlimit="10" stroke-width="30"/><path d="M-595.85,349.37A29.36,29.36,0,0,1-625,319.85v-59.3" transform="translate(788.6 1046.81)" fill="none" stroke="#81c9f0" stroke-linecap="round" stroke-miterlimit="10" stroke-width="30"/></g><g opacity="0.3"><path d="M-574.52-215.09a29.36,29.36,0,0,0,29.19,29.52h61.75" transform="translate(788.6 1046.81)" fill="none" stroke="#81c9f0" stroke-linecap="round" stroke-miterlimit="10" stroke-width="30"/><path d="M-603.7-244.62a29.35,29.35,0,0,1,29.18,29.53" transform="translate(788.6 1046.81)" fill="none" stroke="#81c9f0" stroke-linecap="round" stroke-miterlimit="10" stroke-width="30"/><path d="M-603.7-244.62a29.35,29.35,0,0,1-29.19-29.52V-378.82" transform="translate(788.6 1046.81)" fill="none" stroke="#81c9f0" stroke-linecap="round" stroke-miterlimit="10" stroke-width="30"/></g></svg>