<svg xmlns="http://www.w3.org/2000/svg" viewBox="0 0 14.1351 17.7168"><defs><style>.a{fill:#b3b3b3;}</style></defs><title>vegetation</title><path class="a" d="M5.2824,16.7045a.3853.3853,0,0,0,.1072-.0154,7.9665,7.9665,0,0,0,1.825-.7519,5.384,5.384,0,0,1,5.8943-.0611,5.2512,5.2512,0,0,0,5.75-.0594.3769.3769,0,1,0-.3926-.6435,4.452,4.452,0,0,1-4.6161.2378l.337-1.032a3.478,3.478,0,0,1,1.7989-.9132.3772.3772,0,0,0,.3256-.4218.3836.3836,0,0,0-.42-.3268,4.3153,4.3153,0,0,0-1.3046.4383l.6672-2.0428c.0081,0,.0161.0034.0241.0034a1.2072,1.2072,0,0,0,1.1573-.8768l.7673-2.7156a1.2039,1.2039,0,0,0-.4138-1.2695l.1481-.4537a.3773.3773,0,1,0-.7172-.2343l-.1471.45a1.188,1.188,0,0,0-1.1857.8537L14.12,9.5853a1.2,1.2,0,0,0,.4217,1.277l-.4146,1.2693c-.0751-1.0566-.2257-1.94-.2382-2.0127a.3773.3773,0,1,0-.7436.1287c.0331.1905.0726.4642.1112.7691-.0089.0035-.0183.0027-.027.007-.0595.0292-.2285.1152-.4472.2449V7.9237a1.1931,1.1931,0,0,0,.8256-1.1271V3.0871a1.1925,1.1925,0,0,0-.8256-1.1266v-.485a.3774.3774,0,0,0-.7547,0v.485a1.1926,1.1926,0,0,0-.8261,1.1266v3.71a1.1933,1.1933,0,0,0,.8261,1.1271v2.3951a2.9785,2.9785,0,0,0-.8316-.5916.3775.3775,0,0,0-.2954.6947,2.01,2.01,0,0,1,1.0949,1.3887,3.7408,3.7408,0,0,0-.8176.87L9.8616,9.5559a1.1925,1.1925,0,0,0,.36-1.3534L9.2134,5.6393a1.1623,1.1623,0,0,0-1.1812-.7478l-.1757-.4447a.3773.3773,0,1,0-.7018.2773l.1758.4451A1.1934,1.1934,0,0,0,6.9748,6.52L7.9825,9.0831a1.2052,1.2052,0,0,0,1.121.7629c.0191,0,.038-.01.0572-.0109l.852,2.0222c-1.0267-.7642-2.2522-1.519-2.7871-1.84a.3772.3772,0,0,0-.3883.6469A24.7309,24.7309,0,0,1,10.65,13.37l.4094.9717a6.3421,6.3421,0,0,0-4.23.9469,7.2347,7.2347,0,0,1-1.6545.6771.3774.3774,0,0,0,.1073.7392Zm8.0618-4.8876a8.14,8.14,0,0,1-.1545,3.1418.3659.3659,0,0,0-.02.103c-.129-.0681-.2577-.139-.3869-.198V12.1692C12.9849,12.0293,13.1813,11.9077,13.3442,11.8169Zm-1.3965,2.69-.31-.7359a.3727.3727,0,0,0,.0124-.1491,1.1207,1.1207,0,0,1,.3779-.8122v1.7643c-.024-.0077-.0479-.0186-.072-.026A.3438.3438,0,0,0,11.9477,14.5071Z" transform="translate(-4.9049 -1.0982)"/><path class="a" d="M18.985,17.4091a.3772.3772,0,0,0-.5187-.126,4.4957,4.4957,0,0,1-4.9757.0528,6.152,6.152,0,0,0-6.661.0627,7.2391,7.2391,0,0,1-1.6545.6771.3774.3774,0,0,0,.1073.7393A.3853.3853,0,0,0,5.39,18.8a7.9846,7.9846,0,0,0,1.825-.7519,5.3842,5.3842,0,0,1,5.8943-.0616,5.2566,5.2566,0,0,0,5.75-.0583A.3781.3781,0,0,0,18.985,17.4091Z" transform="translate(-4.9049 -1.0982)"/></svg>