<svg xmlns="http://www.w3.org/2000/svg" viewBox="0 0 17.4427 14.4589"><defs><style>.a{fill:#b3b3b3;}</style></defs><title>water-birds</title><path class="a" d="M20.983,7.6214c-.03-.0492-.776-1.186-3.3782-1.8972.0049-.025.0166-.048.02-.0733a1.6754,1.6754,0,0,0-.6016-1.4632,3.1717,3.1717,0,0,0-1.71-.7652,3.11,3.11,0,0,0-1.9718.3352,7.532,7.532,0,0,0-1.3434-.3137A12.6411,12.6411,0,0,0,9.9654,3.44l-4.803-.337a1.3591,1.3591,0,0,0-1.0563.3948l-.192.192a1.0811,1.0811,0,0,0-.0393,1.488l2.4179,2.687A11.7711,11.7711,0,0,0,9.3715,10.488l-.5923,1.54L8.478,15.7438l.5705,1.5692a.3738.3738,0,0,0,.3511.2461.3664.3664,0,0,0,.1279-.0228.3737.3737,0,0,0,.2233-.479l-.0932-.2561a10.799,10.799,0,0,0,1.6781.6083.3788.3788,0,0,0,.1.0135.3739.3739,0,0,0,.1-.7342,10.9319,10.9319,0,0,1-1.2574-.4349c.1941-.0191.3509-.0462.417-.06a.37.37,0,0,0,.2427-.174.3716.3716,0,0,0,.6535.3127c.0178-.0222.0788-.1009.1567-.21l1.62,1.35a.3739.3739,0,1,0,.479-.5743l-.985-.8207a9.3786,9.3786,0,0,0,1.7843.5384.2846.2846,0,0,0,.0476.0043.2493.2493,0,0,0,.0467-.4942,5.8618,5.8618,0,0,1-2.388-.9254V11.7861l.1169-.7047c2.2769-.1573,4.1046-1.3747,4.3441-3.0956a2.8358,2.8358,0,0,0-.076-1.1426,1.9512,1.9512,0,0,0,.5368-.4463.3582.3582,0,0,0,.0383.0189c2.3533.6193,3.0247,1.5849,3.0382,1.6049a.3738.3738,0,0,0,.6319-.3993Zm-9.9751,8.2449a.3536.3536,0,0,0-.03.0587.3658.3658,0,0,0,.0095-.172.3768.3768,0,0,0-.441-.2915,2.0993,2.0993,0,0,1-1.2442-.0558.1076.1076,0,0,1-.0417-.09l.2362-3.07.5547-1.4421a4.1,4.1,0,0,0,.89.2366,7.4032,7.4032,0,0,0,.7693.0538l-.1.6-.0039,3.1182A3.7885,3.7885,0,0,1,11.0079,15.8663Z" transform="translate(-3.5972 -3.1001)"/></svg>