<svg xmlns="http://www.w3.org/2000/svg" viewBox="0 0 41.7793 42.5197"><defs><style>.a{fill:#00a5e5;}</style></defs><title>wet</title><path class="a" d="M38.7251,29.99H14.1035a9.4464,9.4464,0,0,1-.22-18.89,13.2987,13.2987,0,0,1,25.1974,3.4757A7.7113,7.7113,0,0,1,38.7251,29.99Z" transform="translate(-4.6571 -3.3893)"/><path class="a" d="M11.4327,45.9089a1.2557,1.2557,0,0,1-1.1335-1.7923L15.8428,32.402a1.255,1.255,0,1,1,2.2688,1.0738L12.568,45.19A1.255,1.255,0,0,1,11.4327,45.9089Z" transform="translate(-4.6571 -3.3893)"/><path class="a" d="M20.5882,45.9089a1.2558,1.2558,0,0,1-1.1335-1.7923L24.9985,32.402a1.255,1.255,0,0,1,2.2688,1.0738L21.7236,45.19A1.255,1.255,0,0,1,20.5882,45.9089Z" transform="translate(-4.6571 -3.3893)"/><path class="a" d="M29.7441,45.9089a1.2557,1.2557,0,0,1-1.1334-1.7923L34.154,32.402a1.2551,1.2551,0,0,1,2.2689,1.0738L30.88,45.19A1.255,1.255,0,0,1,29.7441,45.9089Z" transform="translate(-4.6571 -3.3893)"/></svg>