<svg id="Layer_1" data-name="Layer 1" xmlns="http://www.w3.org/2000/svg" viewBox="0 0 104.19 115.27"><title>icon-pulse</title><line x1="36.14" y1="79.14" x2="1.6" y2="113.67" fill="none" stroke="#0f263a" stroke-linecap="round" stroke-linejoin="round" stroke-width="3.2"/><path d="M425.41,334.62c27.82,0,46.58-20.89,46.58-46.58a46.58,46.58,0,1,0-46.58,46.58Z" transform="translate(-369.4 -239.86)" fill="#fff" stroke="#10263b" stroke-linecap="round" stroke-linejoin="round" stroke-width="3.2"/><path d="M419.44,319.4a3.39,3.39,0,0,1-3.27-2.57l-7-27.12-1.77,3.82a3.39,3.39,0,0,1-3.09,2l-13.46-.29a3.46,3.46,0,0,1,.07-6.92l11.31.25,4.8-10.32a3.41,3.41,0,0,1,3.05-2l.33,0a3.42,3.42,0,0,1,2.95,2.56l5.34,20.67,6.49-39.93a3.4,3.4,0,0,1,3.15-2.89h.2a3.4,3.4,0,0,1,3.25,2.54l9,33.41.9-2a3.39,3.39,0,0,1,3.08-2h15.91a3.46,3.46,0,0,1,0,6.92H446.93l-3.86,8.68a3.36,3.36,0,0,1-3.07,2h-.29a3.42,3.42,0,0,1-3-2.52l-7.4-27.49-6.56,40.32a3.43,3.43,0,0,1-3.17,2.89Z" transform="translate(-369.4 -239.86)" fill="#00a0dd"/><path d="M428.52,258.28a1.78,1.78,0,0,1,1.7,1.35l10.18,37.78,2.73-6.15a1.77,1.77,0,0,1,1.62-1.08h15.91a1.86,1.86,0,0,1,0,3.72H445.89l-4.28,9.64a1.78,1.78,0,0,1-1.61,1.07h-.15a1.8,1.8,0,0,1-1.57-1.35l-9.34-34.65-7.74,47.64a1.82,1.82,0,0,1-1.68,1.55h-.08a1.8,1.8,0,0,1-1.72-1.37L409.59,285l-3.66,7.86a1.81,1.81,0,0,1-1.64,1h0l-13.42-.29a1.86,1.86,0,0,1,0-3.72h0l12.29.27,5.24-11.26a1.78,1.78,0,0,1,1.61-1h.16a1.82,1.82,0,0,1,1.56,1.37l7.25,28,7.71-47.44a1.82,1.82,0,0,1,1.66-1.55h.11m0-3.2h-.31a5,5,0,0,0-4.62,4.22l-5.27,32.41-3.44-13.3a5,5,0,0,0-4.33-3.74l-.48,0a5,5,0,0,0-4.51,2.9l-4.36,9.37-10.2-.23h-.1a5.06,5.06,0,0,0-.09,10.12l13.41.29h.07a5,5,0,0,0,4.43-2.68l5.9,22.81a5,5,0,0,0,4.82,3.77h.28a5,5,0,0,0,4.63-4.22l5.36-33,5.48,20.31a5,5,0,0,0,4.4,3.71H440a5,5,0,0,0,4.54-3L448,297.1h12.69a5.06,5.06,0,0,0,0-10.12H444.75a5,5,0,0,0-3.46,1.42l-8-29.6a5,5,0,0,0-4.79-3.72Z" transform="translate(-369.4 -239.86)" fill="#10263b"/></svg>