<svg id="Layer_1" data-name="Layer 1" xmlns="http://www.w3.org/2000/svg" viewBox="0 0 116.33 90.02"><title>icon-tractor</title><path d="M363.73,256.46a2.74,2.74,0,0,0,2.76,2.51h4.81l-3.08,18.42h-8.3V265.47a2.71,2.71,0,0,0-1.85-2.51c-1.54-.51-3.23-1-4.73-1.4a2.63,2.63,0,0,0-.78,5.18l2.09.66v10H341.5v-1.32a2.63,2.63,0,1,0-5.26,0v1.32H331a2.73,2.73,0,0,0-2.63,2.63v25a19.71,19.71,0,1,0,30.37,22.4l30,0a23.67,23.67,0,1,0,26.43-33.66V256.34a2.73,2.73,0,0,0-2.63-2.63h-46a3.16,3.16,0,0,0-2.76,2.75Z" transform="translate(-318.85 -252.11)" fill="#fff" stroke="#10263b" stroke-linecap="round" stroke-linejoin="round" stroke-width="3.2"/><path d="M380.72,261.6a2.72,2.72,0,0,0-2.35,2.26l-6.57,46a2.74,2.74,0,0,0,2.59,3H377a2.72,2.72,0,0,0,2.55-2c3.76-16.31,13.34-24.52,25.6-27a2.71,2.71,0,0,0,2.1-2.55v-17.1a2.74,2.74,0,0,0-2.63-2.63Z" transform="translate(-318.85 -252.11)" fill="none" stroke="#10263b" stroke-linecap="round" stroke-linejoin="round" stroke-width="3.2"/><path d="M409.9,300.27a16.58,16.58,0,1,1-16.57,16.58,16.55,16.55,0,0,1,16.57-16.58Z" transform="translate(-318.85 -252.11)" fill="none" stroke="#10263b" stroke-linecap="round" stroke-linejoin="round" stroke-width="3.2"/><circle cx="21.33" cy="68.68" r="13.02" fill="none" stroke="#10263b" stroke-linecap="round" stroke-linejoin="round" stroke-width="3.2"/><path d="M409.9,308.56a8.29,8.29,0,1,0,8.29,8.29A8.33,8.33,0,0,0,409.9,308.56Z" transform="translate(-318.85 -252.11)" fill="#00a0dd" stroke="#10263b" stroke-linecap="round" stroke-linejoin="round" stroke-width="3.2"/><path d="M334.27,320.79a5.92,5.92,0,1,0,5.91-5.91,5.57,5.57,0,0,0-5.91,5.91Z" transform="translate(-318.85 -252.11)" fill="#00a0dd" stroke="#10263b" stroke-linecap="round" stroke-linejoin="round" stroke-width="3.2"/><path d="M363.73,256.46a2.74,2.74,0,0,0,2.76,2.51h4.81l-3.08,18.42h-8.3V265.47a2.71,2.71,0,0,0-1.85-2.51c-1.54-.51-3.23-1-4.73-1.4a2.63,2.63,0,0,0-.78,5.18l2.09.66v10H341.5v-1.32a2.63,2.63,0,1,0-5.26,0v1.32H331a2.73,2.73,0,0,0-2.63,2.63v25a19.71,19.71,0,1,0,30.37,22.4l30,0a23.67,23.67,0,1,0,26.43-33.66V256.34a2.73,2.73,0,0,0-2.63-2.63h-46a3.16,3.16,0,0,0-2.76,2.75Z" transform="translate(-318.85 -252.11)" fill="none" stroke="#10263b" stroke-linecap="round" stroke-linejoin="round" stroke-width="3.2"/><path d="M380.72,261.6a2.72,2.72,0,0,0-2.35,2.26l-6.57,46a2.74,2.74,0,0,0,2.59,3H377a2.72,2.72,0,0,0,2.55-2c3.76-16.31,13.34-24.52,25.6-27a2.71,2.71,0,0,0,2.1-2.55v-17.1a2.74,2.74,0,0,0-2.63-2.63Z" transform="translate(-318.85 -252.11)" fill="none" stroke="#10263b" stroke-linecap="round" stroke-linejoin="round" stroke-width="3.2"/><path d="M409.9,300.27a16.58,16.58,0,1,1-16.57,16.58,16.55,16.55,0,0,1,16.57-16.58Z" transform="translate(-318.85 -252.11)" fill="none" stroke="#10263b" stroke-linecap="round" stroke-linejoin="round" stroke-width="3.2"/><circle cx="21.33" cy="68.68" r="13.02" fill="none" stroke="#10263b" stroke-linecap="round" stroke-linejoin="round" stroke-width="3.2"/><path d="M409.9,308.56a8.29,8.29,0,1,0,8.29,8.29A8.33,8.33,0,0,0,409.9,308.56Z" transform="translate(-318.85 -252.11)" fill="none" stroke="#10263b" stroke-linecap="round" stroke-linejoin="round" stroke-width="3.2"/><path d="M334.27,320.79a5.92,5.92,0,1,0,5.91-5.91,5.57,5.57,0,0,0-5.91,5.91Z" transform="translate(-318.85 -252.11)" fill="none" stroke="#10263b" stroke-linecap="round" stroke-linejoin="round" stroke-width="3.2"/></svg>