<svg id="Layer_1" data-name="Layer 1" xmlns="http://www.w3.org/2000/svg" viewBox="0 0 152.67 139.34">
  <title>icon-australia</title>
  <g>
    <path d="M437.15,332.11a.19.19,0,0,0,.13,0c.17-.1.27-.28.47-.23a.44.44,0,0,1,.31.18.31.31,0,0,1-.16.47c-.35.13-.74-.06-1.13,0s-.25.32-.34.5-.49.43-.66.27a2.86,2.86,0,0,0-1.63-.44c-.14,0-.23.25-.42.26s-.56.07-.65-.16,0-.44-.16-.66.25-.41.49-.45a4.18,4.18,0,0,0,.82-.1,4.38,4.38,0,0,1,2.18-.41c.14,0-.1.18-.13.24s.15.08.15.14-.12.14-.08.22a.25.25,0,0,0,.13.09c.17.07.32-.1.5-.06,0,.19.14.18.23.22s.12-.06.18-.11" transform="translate(-344.37 -227.62)" fill="#fff" stroke="#10263b" stroke-linecap="round" stroke-linejoin="round" stroke-width="3.2"/>
    <path d="M437.14,332.12h.13c.17-.11.26-.28.46-.24a.47.47,0,0,1,.31.18.31.31,0,0,1-.16.47c-.35.12-.73-.06-1.12,0s-.25.31-.33.5-.49.42-.67.26a2.85,2.85,0,0,0-1.61-.43c-.14,0-.23.24-.42.25s-.55.07-.64-.16,0-.43-.15-.65.24-.4.48-.45a4.18,4.18,0,0,0,.81-.09,4.3,4.3,0,0,1,2.16-.41c.15,0-.1.18-.13.24s.15.07.15.13-.11.14-.07.22.08.08.12.1.32-.11.5-.07c0,.19.14.18.23.23s.12-.07.18-.12" transform="translate(-344.37 -227.62)" fill="#fff" stroke="#10263b" stroke-linecap="round" stroke-linejoin="round" stroke-width="3.2"/>
    <path d="M494.44,306.42a4,4,0,0,1-.06-1.19,12.88,12.88,0,0,0-.59-2.29s-.05-4.69-1.12-7.2a18.15,18.15,0,0,1-1.33-7,68.54,68.54,0,0,0-5.92-5,3.1,3.1,0,0,1-1.1-1.64c-.51-1.76-.89-3.38-1.26-5.13-1.13-.63-1.89.07-3.33-.13a56.42,56.42,0,0,0-1.79-6.61c-.77-2.5-3-4.19-4.86-6-1.45-.05-2.73-.83-4.17-1.18-.43-.16-2.78-7.22-3.37-10.73a19.93,19.93,0,0,0-.74-3.52l-1.22-2.23-2-1.24a30.59,30.59,0,0,1-4-.6,4.85,4.85,0,0,1-.43-1.35S452.94,231.09,453,231s-.06-.07-.09,0c.06-.15-.53-.89-.56-.95a1.87,1.87,0,0,0-1.43-.76,3.45,3.45,0,0,0-1,1.41c0,.06-.48,2.06-.51,2.18a188.46,188.46,0,0,0-2.54,21.58s-1,3.38-1.83,3.65a9.58,9.58,0,0,1-2.66-.18c-.08,0-2.47-1.42-5.35-3.11l1,40-33.32,1.34,2,21.81a15.51,15.51,0,0,0,2.47-.81,6,6,0,0,1,3.92,0c1,.18,1.71.93,2.6,1.19.41.08,3.14.77,4.22,1,.36.26.8.13,1.23.29s.55.89,1.08,1a21.48,21.48,0,0,0,4,4.76,19.9,19.9,0,0,0,1.15,2.94,4.22,4.22,0,0,0,1.48,1.85s1.18-1.8,1.74-2.45a20,20,0,0,1,1.82-2.84c.07-.2.66-.61.6-.6.54-1.15,1.73-1.69,2.21-2.84.16-.43,1.51-1.54,1.46-1.65.15,1.28-.06,2.87-.05,4.27-.08.49-1,.89-.76,1.3-.38.45-.26.9-.37,1.45-.06.17.37.33.37.27a2.86,2.86,0,0,1-.28,1.18c-.79.29-.53,1-1.26,1.29l0,.44c.71.31,1.77-.66,2.27.15a1.17,1.17,0,0,1,.26-.57c.41-.49-.15-1.09.37-1.32.81-.3.84-1.18,1.12-2,.14.07.09,0,0-.07.78.43.64,1.37,1.15,1.85.16.1.3.25.13.45a1.48,1.48,0,0,0-.22,1.62c-.42.33-1,1-1.24,1.06a2.61,2.61,0,0,0,.94.7c.56,0,1.16-.65,1.64-.51.38.33,1,.35,1.3.72a34.44,34.44,0,0,1,1.32,5c.15-.13.5,2.88.91,3.48s.53,1.32,1.25,1.5a28,28,0,0,1,3.71,1.78c.58,0,1.17-.14,1.68-.14.65.18,3.05,2,3.63,1.9,1-.25,2.18.08,3.21-.32.59-.26,2.42-2.38,2.85-2.21-.17.72,1.53,1.8,1.82,2s3,.56,3.42,1.11c1.47.24,2.87-2.32,3-2.46a8,8,0,0,1,3.21-.31c1.16.19,2.32.23,3.43.32a11.07,11.07,0,0,0,1.8-.95,4.69,4.69,0,0,0,2.42-2.38c1.27-2.85.54-2.73,3.09-5,1.06-1,.69-2.59,1.32-3.88,1.55-2.56,3.17-3.08,5.42-5.17a61.48,61.48,0,0,1,3.41-5.54,11.79,11.79,0,0,1,2.48-7.76C495.44,310.82,495.67,308.5,494.44,306.42Z" transform="translate(-344.37 -227.62)" fill="#fff" stroke="#10263b" stroke-linecap="round" stroke-linejoin="round" stroke-width="3.2"/>
    <path d="M458.31,354.61c1.18-.53,2.89.4,4.35.17,0,0,2.74.54,2.93.55.68.17,1.13-.25,1.79-.53a1.84,1.84,0,0,1,1.53.22c.27.3.1,1.16.15,1.72-.08,0,.21.18,0,0a4.25,4.25,0,0,1,0,2.49c-.79,1.57-.58,3.76-2.2,4.28-.59.13-.35.94-.92,1.13-.31.06-1.31.24-1.22.69a14.87,14.87,0,0,0-2.58,0c0-.58-.57-.46-.41-1.17-.11-.45-1.39-1.37-1.37-1.66-.15,0-.11-1-.24-1.46a4.31,4.31,0,0,1-.24-1.47,3.68,3.68,0,0,1-.76-1.23C458.8,357.1,458.7,355.79,458.31,354.61Z" transform="translate(-344.37 -227.62)" fill="#fff" stroke="#10263b" stroke-linecap="round" stroke-linejoin="round" stroke-width="3.2"/>
    <path d="M389.73,246.62c-.23.36-1.07.06-1.2.14s-.1.14-.07.19-1.56,1.61-1.61,1.64-1,1-1.32,1.25-.9,2.87-1,2.93a2.3,2.3,0,0,1-1.26-.11c-.38-.06-.67,1.88-.54,2.11s.54.31.69.51c.23.41-.46,1.88-.58,2.19-.42-.08-2.46-.69-2.94-.84-.28-.07-.32,1.35-.42,1.71a15.39,15.39,0,0,1,1.7,1.32,4.93,4.93,0,0,1-1.09,1.89.87.87,0,0,1-.73-.29c-.36-.42-.35-1-.65-1.48-.13-.23-.49-.34-.77-.54l-.8-.77c-.26.46-2.53,2.84-2.51,4a6.14,6.14,0,0,0,.78,2.16c.06.83-1.73,2.07-1.73,2.07-.93,1.56-.85,3.31-1.83,4.47a101.63,101.63,0,0,1-9.14,4.85c-1.48.67-2.54,1.94-4,2.75-.6.27-7.15,4.38-7.39,4.71-.67.66-2.33,2.19-2.35,2.23-.45,1-1.76.91-2.44,1.16a2.11,2.11,0,0,0-.29,2.48,4.44,4.44,0,0,1,.59,1.41,10.39,10.39,0,0,0-.62,3.92c.26.05.88,2.84,1.37,3.93.6.84,1.6,1.46,2,2.34.7.32.37,1.33.35,2-.17.44-1.18.4-1.18.4-.59.12-1.89.07-1.75.22.82,1.19,2.82,2.29,3.49,3.77.4.88,1.55,1.22,1.95,2.11a54.16,54.16,0,0,0,3.3,4.92c.28.45,0,1.16.29,1.64.08.12,1.64,5,2,5.51-.06.05.8.38.71.7.81-.15,1.33,1.47,1.33,1.47.25,1,.73,3.81.86,4.25a8.84,8.84,0,0,1,.12,4.36l-1.4.83-.25.56c.09.07-.32.72-.18.87s-.17.57,0,.77a33.58,33.58,0,0,1,2.67,2.24c.56.6,3.74.87,4.47.94a13.9,13.9,0,0,0,4.28-1.77,13.75,13.75,0,0,0,3-2.8c.59-.41,2.53-1.64,3.12-1.91a10.92,10.92,0,0,1,4-1.45c2-.21,3.21-.17,4.82-.26a4.58,4.58,0,0,0,2.81-1.37,26.77,26.77,0,0,0,1.35-3.21c.25-.91,2.46-1.56,2.46-1.7a8.15,8.15,0,0,0,1.79-1.24c2.07-.94,4.12-1.16,6.05-2.25.14,0,5.32-2.26,5.46-2.26a34.79,34.79,0,0,0,3.68-1.17,6,6,0,0,1,3.92,0c1,.18,1.71.93,2.6,1.19.41.08,3.14.77,4.22,1,.36.26.8.13,1.23.29s.55.89,1.08,1a21.48,21.48,0,0,0,4,4.76,19.9,19.9,0,0,0,1.15,2.94,4.22,4.22,0,0,0,1.48,1.85s1.18-1.8,1.74-2.45a20,20,0,0,1,1.82-2.84c.07-.2.66-.61.6-.6.54-1.15,1.73-1.69,2.21-2.84.16-.43,1.51-1.54,1.46-1.65.15,1.28-.06,2.87-.05,4.27-.08.49-1,.89-.76,1.3-.38.45-.26.9-.37,1.45-.06.17.37.33.37.27a2.86,2.86,0,0,1-.28,1.18c-.79.29-.53,1-1.26,1.29l0,.44c.71.31,1.77-.66,2.27.15a1.17,1.17,0,0,1,.26-.57c.41-.49-.15-1.09.37-1.32.81-.3.84-1.18,1.12-2,.19.1,0-.05-.15-.13.91.39.73,1.4,1.27,1.91h0c.16.1.3.25.13.45a1.48,1.48,0,0,0-.22,1.62c-.42.33-1,1-1.24,1.06a2.61,2.61,0,0,0,.94.7c.56,0,1.16-.65,1.64-.51.38.33,1,.35,1.3.72a34.32,34.32,0,0,1,1.32,5c.15-.14.5,2.87.91,3.47s.53,1.32,1.25,1.5a28,28,0,0,1,3.71,1.78c.58,0,1.17-.14,1.68-.14.65.18,3.05,2,3.63,1.9,1-.25,2.18.08,3.21-.32.59-.26,2.42-2.37,2.85-2.21-.17.72,1.53,1.8,1.82,2s3,.56,3.42,1.11c.17-.1,0-.1,0,0,1.47.24,2.87-2.32,3-2.46a8,8,0,0,1,3.21-.31c1.16.19,2.32.23,3.43.32a11.07,11.07,0,0,0,1.8-.95,4.69,4.69,0,0,0,2.42-2.38c1.27-2.85.54-2.73,3.09-5,1.06-1,.69-2.59,1.32-3.88,1.55-2.56,3.17-3.08,5.42-5.17a61.48,61.48,0,0,1,3.41-5.54,11.79,11.79,0,0,1,2.48-7.76c.08-2.17.31-4.49-.92-6.57a4,4,0,0,1-.06-1.19,12.88,12.88,0,0,0-.59-2.29s-.05-4.69-1.12-7.2a18.15,18.15,0,0,1-1.33-7,68.54,68.54,0,0,0-5.92-5,3.1,3.1,0,0,1-1.1-1.64c-.51-1.76-.89-3.38-1.26-5.13-1.13-.63-1.89.07-3.33-.13a56.42,56.42,0,0,0-1.79-6.61c-.77-2.5-3-4.19-4.86-6-1.45-.05-2.73-.83-4.17-1.18-.43-.16-2.78-7.22-3.37-10.73a19.93,19.93,0,0,0-.74-3.52l-1.22-2.23-2-1.24a30.59,30.59,0,0,1-4-.6,4.85,4.85,0,0,1-.43-1.35S452.94,231.09,453,231s-.06-.07-.09,0c.06-.15-.53-.89-.56-.95a1.87,1.87,0,0,0-1.43-.76,3.45,3.45,0,0,0-1,1.41c0,.06-.48,2.06-.51,2.18a188.46,188.46,0,0,0-2.54,21.58s-1,3.38-1.83,3.65a9.58,9.58,0,0,1-2.66-.18c-.19-.08-15.46-9-15.6-9.19s-1.34-.68-1.7-1-.55-.86-.18-1.11c.13-.08,2.3-3.22,2.21-3.88.08.05-1.38-.19-.75-1.36.13-.23,2-.49,2.07-.55l1.62-2.71c.07-.07-.09-.71-.08-.74.16-.16.32-.46.24-.58a14.73,14.73,0,0,0-1.33-1.26l-1.35-.14c-.09-.08-15.2-2.3-15.17-2.28-1.71-.83-3.34,0-2.31.65-.5-.32,0,1.85,1.05,1.88.54-.45-1.08,2.35-1.69,2.41s-1.2-.49-1.87-.49l-.88.09c0,.13-2.77,4.12-2.62,4.32a6.72,6.72,0,0,1,.38,1.12c-.1.14-1.83.8-1.8.94-.06.7-1.56,2.38-1.51,2.71.05.65.67,1,1.23,1.27.16.06,0,1.43,0,1.47s-5.84-.45-6.25-.43c-.07,0-2.56-1.66-3-1.88-.62-.35-1-1.25-1.74-1.32Z" transform="translate(-344.37 -227.62)" fill="#fff" stroke="#10263b" stroke-linecap="round" stroke-linejoin="round" stroke-width="3.2"/>
    <path d="M494.25,306.4a3.68,3.68,0,0,1-.06-1.19,13.77,13.77,0,0,0-.6-2.29s0-4.69-1.12-7.21a18.12,18.12,0,0,1-1.33-7,68.54,68.54,0,0,0-5.92-5,3.08,3.08,0,0,1-1.1-1.64c-.51-1.77-.89-3.38-1.26-5.14-1.14-.63-1.89.07-3.34-.13a58.38,58.38,0,0,0-1.78-6.61c-.78-2.5-3-4.19-4.87-6-1.45-.06-2.73-.83-4.17-1.18-.43-.16-2.78-7.23-3.37-10.74a20.87,20.87,0,0,0-.74-3.52l-1.22-2.23-2-1.24a28.53,28.53,0,0,1-4-.61,4.46,4.46,0,0,1-.44-1.35s-4.26-12.24-4.17-12.34-.07-.07-.1,0c.06-.16-.53-.89-.56-.95a1.81,1.81,0,0,0-1.43-.76,3.45,3.45,0,0,0-1,1.41c0,.06-.48,2.06-.51,2.18a188.58,188.58,0,0,0-2.54,21.59s-1,3.39-1.83,3.66a10,10,0,0,1-2.67-.19c-.07,0-2.46-1.42-5.35-3.11l1,40-33.33,1.34,2,21.83a17.83,17.83,0,0,0,2.47-.81,6,6,0,0,1,3.92,0c1,.18,1.71.94,2.6,1.19.41.09,3.15.77,4.22,1,.36.27.8.14,1.23.3s.55.89,1.09,1a21,21,0,0,0,4,4.77,19.9,19.9,0,0,0,1.15,2.94,4.22,4.22,0,0,0,1.48,1.85s1.18-1.8,1.74-2.45a19.43,19.43,0,0,1,1.82-2.84c.07-.2.67-.61.6-.6.54-1.16,1.73-1.7,2.21-2.84.16-.43,1.51-1.54,1.46-1.65a40.92,40.92,0,0,1-.05,4.27c-.07.48-1,.89-.75,1.3-.39.45-.26.89-.38,1.45-.05.16.37.33.38.27a3,3,0,0,1-.28,1.18c-.8.29-.54,1-1.27,1.29l0,.44c.72.31,1.77-.66,2.27.15a1.15,1.15,0,0,1,.27-.57c.41-.49-.15-1.09.37-1.32.8-.3.84-1.18,1.11-2,.15.07.1,0,0-.07.77.43.63,1.37,1.14,1.85.17.1.31.25.14.45a1.45,1.45,0,0,0-.22,1.62c-.42.33-1,1-1.25,1.06a2.69,2.69,0,0,0,.94.7c.56.05,1.17-.65,1.65-.51.37.33.95.35,1.29.72a34.62,34.62,0,0,1,1.33,5c.15-.14.49,2.87.91,3.47s.53,1.33,1.25,1.5a28.45,28.45,0,0,1,3.71,1.79c.58,0,1.17-.15,1.68-.14.65.18,3.05,2,3.64,1.9,1-.25,2.17.08,3.21-.32.59-.27,2.42-2.38,2.84-2.22-.17.73,1.54,1.81,1.82,2s3,.56,3.43,1.11c1.47.24,2.87-2.32,3-2.46a8.22,8.22,0,0,1,3.21-.32c1.16.19,2.32.24,3.44.33a11.51,11.51,0,0,0,1.8-.95,4.74,4.74,0,0,0,2.41-2.38c1.28-2.86.55-2.74,3.1-5,1.06-1,.68-2.59,1.31-3.88,1.55-2.56,3.18-3.08,5.44-5.17a57,57,0,0,1,3.41-5.54,11.78,11.78,0,0,1,2.47-7.76C495.24,310.8,495.48,308.48,494.25,306.4Z" transform="translate(-344.37 -227.62)" fill="#00a0dd" stroke="#10263b" stroke-linecap="round" stroke-linejoin="round" stroke-width="3.2"/>
    <line x1="55.99" y1="21.97" x2="62.37" y2="90.87" fill="#fff" stroke="#10263b" stroke-linecap="round" stroke-linejoin="round" stroke-width="3.2"/>
    <polyline points="60.16 68.51 103.97 66.99 104.38 116.34" fill="none" stroke="#10263b" stroke-linecap="round" stroke-linejoin="round" stroke-width="3.2"/>
    <line x1="92.64" y1="27.75" x2="93.61" y2="67.35" fill="#fff" stroke="#10263b" stroke-linecap="round" stroke-linejoin="round" stroke-width="3.2"/>
    <path d="M448.43,306.55l28.8,1.09s.2-.34,1.48-.81,3.65-1.09,4.71-.7a5.3,5.3,0,0,1,2.82,1.85c.51.91.89.38,1.26,0a5.07,5.07,0,0,1,1.47-.62s-.33-.92,0-1.16,1.63.31,2.17.08-1.24-.83.54-.24,2.18-.37,2.72-.12" transform="translate(-344.37 -227.62)" fill="none" stroke="#10263b" stroke-linecap="round" stroke-linejoin="round" stroke-width="3.2"/>
    <path d="M448.61,327.81a2.6,2.6,0,0,1,1.8.07c1,.39.73-.67,1.75.07a5,5,0,0,1,1.67,2.34c.32.71.51.37,1.23,0s.82,1.5,1.33,1.75.64,1.78,1.5,2.1a6.48,6.48,0,0,1,2.4,1.61c.68.73,1.22.4,1.75.07s-1-.92.54-.33a11,11,0,0,0,2.78.86c1.05.16,1.95-.4,3,.11s1.59-.2,2.46.11,1.71-.65,1.37.86-1.2,2.06-.05,2.63,5.46,2.85,5.46,2.85" transform="translate(-344.37 -227.62)" fill="none" stroke="#10263b" stroke-linecap="round" stroke-linejoin="round" stroke-width="3.2"/>
  </g>
</svg>
