<svg id="Layer_1" data-name="Layer 1" xmlns="http://www.w3.org/2000/svg" viewBox="0 0 116.12 126.68"><title>icon-dam</title><path d="M379,310.55H368.07l-3.2-61S381.58,236,418.21,236c49.74,0,59.58,13.53,59.58,13.53l-3.2,61H463.66l-1.28-9.41S447.82,298.3,421,298.3s-41.2,2.84-41.2,2.84Z" transform="translate(-363.27 -234.32)" fill="#fff"/><path d="M421.68,235.92c-46.4,0-56.81,13.6-56.81,13.6l3.2,61H379V260.62" transform="translate(-363.27 -234.32)" fill="#fff" stroke="#10263b" stroke-linecap="round" stroke-linejoin="round" stroke-width="3.2"/><path d="M421,235.92c46.4,0,56.8,13.6,56.8,13.6l-3.2,61H463.66V260.62" transform="translate(-363.27 -234.32)" fill="#fff" stroke="#10263b" stroke-linecap="round" stroke-linejoin="round" stroke-width="3.2"/><path d="M379,301.14s2.9-.49,6.7-.91l7.56-.82V273.52h6.08" transform="translate(-363.27 -234.32)" fill="#fff" stroke="#10263b" stroke-linecap="round" stroke-linejoin="round" stroke-width="3.2"/><polyline points="37.73 64.67 46.27 64 46.27 38.92 52.58 38.92" fill="#fff" stroke="#10263b" stroke-linecap="round" stroke-linejoin="round" stroke-width="3.2"/><polyline points="54.93 63.97 63.14 64 63.14 38.92 69.45 38.92" fill="#fff" stroke="#10263b" stroke-linecap="round" stroke-linejoin="round" stroke-width="3.2"/><polyline points="71.93 64 79.8 64.67 79.8 38.92 86.12 38.92" fill="#fff" stroke="#10263b" stroke-linecap="round" stroke-linejoin="round" stroke-width="3.2"/><path d="M451.67,299.52s10.64.84,12,1.62" transform="translate(-363.27 -234.32)" fill="#fff" stroke="#10263b" stroke-linecap="round" stroke-linejoin="round" stroke-width="3.2"/><path d="M383,358.46a3,3,0,0,1-.94-.14,3.18,3.18,0,0,1-2.12-4,10,10,0,0,1,3.94-5.44,3.8,3.8,0,0,0,1.74-2.25,3.75,3.75,0,0,0-.19-2.83,10.3,10.3,0,0,1,3.7-12.17,3.73,3.73,0,0,0,1.74-2.24,3.8,3.8,0,0,0-.19-2.83,10.3,10.3,0,0,1,3.7-12.17,3.77,3.77,0,0,0,1.73-2.24,3.17,3.17,0,0,1,3.06-2.27,3,3,0,0,1,.94.14,3.2,3.2,0,0,1,2.13,4,10,10,0,0,1-3.95,5.44,4,4,0,0,0-1.54,5.08,10.33,10.33,0,0,1-3.7,12.16,4,4,0,0,0-1.55,5.08A10.35,10.35,0,0,1,387.8,354a3.77,3.77,0,0,0-1.74,2.25A3.18,3.18,0,0,1,383,358.46Z" transform="translate(-363.27 -234.32)" fill="#00a0dd"/><path d="M399.17,311.49a1.53,1.53,0,0,1,.47.07,1.6,1.6,0,0,1,1.07,2,8.42,8.42,0,0,1-3.4,4.65,5.29,5.29,0,0,0-2.29,3,5.22,5.22,0,0,0,.21,3.8,8.75,8.75,0,0,1-3.16,10.4,5.21,5.21,0,0,0-2.29,3,5.3,5.3,0,0,0,.2,3.81,8.73,8.73,0,0,1-3.16,10.39,5.28,5.28,0,0,0-2.29,3.05,1.61,1.61,0,0,1-1.53,1.14,1.55,1.55,0,0,1-.47-.08,1.59,1.59,0,0,1-1.06-2,8.41,8.41,0,0,1,3.39-4.65A5.57,5.57,0,0,0,387,343.3a8.73,8.73,0,0,1,3.16-10.39,5.32,5.32,0,0,0,2.29-3.05,5.23,5.23,0,0,0-.21-3.8,8.74,8.74,0,0,1,3.17-10.4,5.21,5.21,0,0,0,2.28-3,1.6,1.6,0,0,1,1.53-1.13m0-3.2h0a4.77,4.77,0,0,0-4.59,3.4c-.21.69-.3.76-1.18,1.44a11.92,11.92,0,0,0-4.24,13.94c.35,1.06.39,1.17.18,1.86s-.3.76-1.19,1.44a11.92,11.92,0,0,0-4.24,13.94c.35,1.06.39,1.17.18,1.86s-.3.77-1.19,1.45a11.63,11.63,0,0,0-4.49,6.25,4.8,4.8,0,0,0,3.19,6,5,5,0,0,0,1.4.21,4.77,4.77,0,0,0,4.59-3.41c.21-.69.3-.76,1.19-1.44a12,12,0,0,0,4.24-14c-.36-1-.39-1.17-.18-1.86s.3-.76,1.18-1.44A11.92,11.92,0,0,0,398.26,324c-.35-1.06-.39-1.17-.18-1.86s.31-.76,1.19-1.44a11.64,11.64,0,0,0,4.5-6.25,4.8,4.8,0,0,0-3.2-6,4.7,4.7,0,0,0-1.4-.21Z" transform="translate(-363.27 -234.32)" fill="#10263b"/><path d="M407.34,358.77H407a3.21,3.21,0,0,1-2.88-3.51,9.65,9.65,0,0,1,2.83-6,3.51,3.51,0,0,0,.49-4.84A9.86,9.86,0,0,1,408.72,332a3.52,3.52,0,0,0,.49-4.83,9.83,9.83,0,0,1,1.23-12.4,3.36,3.36,0,0,0,1.22-2.33,3.19,3.19,0,0,1,3.19-2.88l.31,0a3.21,3.21,0,0,1,2.87,3.5,9.65,9.65,0,0,1-2.84,6,3.52,3.52,0,0,0-.48,4.84,9.85,9.85,0,0,1-1.24,12.4,3.36,3.36,0,0,0-1.22,2.32,3.39,3.39,0,0,0,.73,2.52,9.87,9.87,0,0,1-1.24,12.41,3.35,3.35,0,0,0-1.21,2.32A3.2,3.2,0,0,1,407.34,358.77Z" transform="translate(-363.27 -234.32)" fill="#00a0dd"/><path d="M414.84,311.18H415a1.6,1.6,0,0,1,1.43,1.75A8,8,0,0,1,414,318a5.09,5.09,0,0,0-.67,6.72,8.26,8.26,0,0,1-1.05,10.52,4.83,4.83,0,0,0-1.62,3.23,4.9,4.9,0,0,0,.95,3.5,8.26,8.26,0,0,1-1.06,10.51,5,5,0,0,0-1.62,3.24,1.59,1.59,0,0,1-1.59,1.44h-.16a1.6,1.6,0,0,1-1.43-1.75,8.06,8.06,0,0,1,2.43-5.07,5.07,5.07,0,0,0,.67-6.73,8.26,8.26,0,0,1,1.06-10.51,5.1,5.1,0,0,0,.67-6.73,8.24,8.24,0,0,1,1.05-10.51,4.88,4.88,0,0,0,1.62-3.24,1.6,1.6,0,0,1,1.59-1.44m0-3.2h0a4.78,4.78,0,0,0-4.77,4.32c-.06.58-.09.62-.81,1.41A11.43,11.43,0,0,0,407.83,328c.55.92.57,1,.51,1.54s-.09.62-.8,1.41a11.42,11.42,0,0,0-1.44,14.3c.55.92.57.95.51,1.54s-.08.61-.8,1.41a11.13,11.13,0,0,0-3.24,6.89,4.72,4.72,0,0,0,1.06,3.52,4.78,4.78,0,0,0,3.23,1.74l.48,0a4.79,4.79,0,0,0,4.78-4.32c.06-.58.08-.62.8-1.41a11.43,11.43,0,0,0,1.44-14.3c-.55-.92-.57-1-.51-1.54s.08-.61.8-1.41a11.43,11.43,0,0,0,1.43-14.29c-.55-.92-.57-1-.51-1.54s.09-.61.81-1.41a11.18,11.18,0,0,0,3.24-6.89,4.82,4.82,0,0,0-4.3-5.26l-.48,0Z" transform="translate(-363.27 -234.32)" fill="#10263b"/><path d="M431.66,359.09a3.18,3.18,0,0,1-3.18-2.88,9.65,9.65,0,0,1,1.59-6.43,3.52,3.52,0,0,0-.48-4.84,9.82,9.82,0,0,1-1.24-12.4,3.55,3.55,0,0,0-.48-4.84,9.85,9.85,0,0,1-1.25-12.41,3.36,3.36,0,0,0,.73-2.51,3.19,3.19,0,0,1,2.86-3.5l.32,0a3.2,3.2,0,0,1,3.19,2.88,9.58,9.58,0,0,1-1.6,6.42,3.51,3.51,0,0,0,.49,4.84,9.86,9.86,0,0,1,1.24,12.41,3.37,3.37,0,0,0-.73,2.51,3.33,3.33,0,0,0,1.21,2.32,9.85,9.85,0,0,1,1.25,12.41,3.35,3.35,0,0,0-.73,2.52,3.2,3.2,0,0,1-2.87,3.5Z" transform="translate(-363.27 -234.32)" fill="#00a0dd"/><path d="M430.53,310.86a1.6,1.6,0,0,1,1.59,1.44,8,8,0,0,1-1.37,5.45,4.86,4.86,0,0,0-.95,3.49,5,5,0,0,0,1.62,3.24A8.24,8.24,0,0,1,432.47,335a4.91,4.91,0,0,0-.94,3.49,4.86,4.86,0,0,0,1.62,3.24,8.26,8.26,0,0,1,1.05,10.52,4.86,4.86,0,0,0-.94,3.49,1.61,1.61,0,0,1-1.44,1.75h-.16a1.6,1.6,0,0,1-1.59-1.44,8,8,0,0,1,1.38-5.45,5.09,5.09,0,0,0-.68-6.73,8.29,8.29,0,0,1-1-10.52,4.86,4.86,0,0,0,.95-3.49,4.92,4.92,0,0,0-1.62-3.23,8.06,8.06,0,0,1-2.43-5.07,8,8,0,0,1,1.38-5.45,4.91,4.91,0,0,0,.94-3.49,1.6,1.6,0,0,1,1.43-1.75h.16m0-3.2-.46,0a4.8,4.8,0,0,0-4.31,5.26c.05.58,0,.62-.51,1.54a11.39,11.39,0,0,0,1.43,14.29c.72.8.74.83.8,1.41s0,.62-.51,1.54A11.43,11.43,0,0,0,428.4,346c.72.8.75.83.81,1.41s0,.62-.51,1.55a11.12,11.12,0,0,0-1.81,7.4,4.78,4.78,0,0,0,4.77,4.32l.49,0a4.82,4.82,0,0,0,4.29-5.26c-.06-.58,0-.62.51-1.54a11.44,11.44,0,0,0-1.43-14.3c-.72-.79-.75-.82-.81-1.41s0-.62.51-1.53a11.44,11.44,0,0,0-1.43-14.3c-.72-.79-.74-.83-.8-1.41s0-.62.51-1.53a11.23,11.23,0,0,0,1.81-7.41,4.79,4.79,0,0,0-4.78-4.32Z" transform="translate(-363.27 -234.32)" fill="#10263b"/><path d="M456.13,359.4a3.17,3.17,0,0,1-3.06-2.27,9.92,9.92,0,0,1,.25-6.72,4,4,0,0,0-1.55-5.09,10.3,10.3,0,0,1-3.7-12.16,4,4,0,0,0-1.55-5.08,10.33,10.33,0,0,1-3.7-12.16,3.81,3.81,0,0,0,.2-2.83,3.21,3.21,0,0,1,2.12-4,3.33,3.33,0,0,1,.94-.13,3.17,3.17,0,0,1,3.06,2.27,10.06,10.06,0,0,1-.25,6.72,3.73,3.73,0,0,0-.19,2.82,3.77,3.77,0,0,0,1.74,2.25,10.34,10.34,0,0,1,3.7,12.17,4,4,0,0,0,1.54,5.07,10.34,10.34,0,0,1,3.71,12.17,3.76,3.76,0,0,0-.2,2.83,3.21,3.21,0,0,1-3.06,4.14Z" transform="translate(-363.27 -234.32)" fill="#00a0dd"/><path d="M446.08,310.55a1.61,1.61,0,0,1,1.53,1.14,8.41,8.41,0,0,1-.24,5.75,5.58,5.58,0,0,0,2.09,6.85,8.73,8.73,0,0,1,3.16,10.39,5.56,5.56,0,0,0,2.08,6.85,8.38,8.38,0,0,1,3.4,4.64,8.47,8.47,0,0,1-.23,5.75,5.25,5.25,0,0,0-.21,3.81,1.6,1.6,0,0,1-1.06,2,1.91,1.91,0,0,1-.47.07,1.61,1.61,0,0,1-1.53-1.14,8.48,8.48,0,0,1,.23-5.75,5.23,5.23,0,0,0,.21-3.8,5.32,5.32,0,0,0-2.29-3.05,8.72,8.72,0,0,1-3.16-10.4,5.56,5.56,0,0,0-2.09-6.84,8.75,8.75,0,0,1-3.16-10.4,5.33,5.33,0,0,0,.21-3.8,1.59,1.59,0,0,1,1.06-2,1.55,1.55,0,0,1,.47-.08m0-3.2a4.86,4.86,0,0,0-4.24,2.55,4.76,4.76,0,0,0-.35,3.66c.2.68.17.79-.19,1.85a11.94,11.94,0,0,0,4.25,13.94c.88.68,1,.75,1.18,1.44s.17.8-.18,1.86a11.92,11.92,0,0,0,4.24,13.94c.88.68,1,.76,1.19,1.45s.17.8-.18,1.86a11.62,11.62,0,0,0-.26,7.69,4.8,4.8,0,1,0,9.18-2.79c-.21-.69-.17-.8.18-1.86A11.9,11.9,0,0,0,456.66,339c-.88-.69-1-.76-1.18-1.45s-.18-.8.18-1.86a11.94,11.94,0,0,0-4.25-13.94c-.88-.68-1-.75-1.18-1.44s-.17-.8.18-1.86a11.62,11.62,0,0,0,.26-7.69,4.77,4.77,0,0,0-4.59-3.41Z" transform="translate(-363.27 -234.32)" fill="#10263b"/></svg>