<svg id="Layer_1" data-name="Layer 1" xmlns="http://www.w3.org/2000/svg" viewBox="0 0 95.76 106.17"><title>icon-paper</title><path d="M431.43,340.89,456,340.7a11.94,11.94,0,0,0,11.81-12.05l-.67-68.33a11.94,11.94,0,0,0-12-11.81l-15.58.1" transform="translate(-373.63 -243.83)" fill="#fff" stroke="#10263b" stroke-linecap="round" stroke-linejoin="round" stroke-width="3.2"/><path d="M375.23,285.94,390,339.63A11.93,11.93,0,0,0,404.64,348l48.12-13.22a11.93,11.93,0,0,0,8.34-14.66L443,254.2a11.91,11.91,0,0,0-14.66-8.34l-35.9,9.86Zm1.62,5.91,22.33-6.11a7.59,7.59,0,0,0,5.3-9.33l-5.94-21.08" transform="translate(-373.63 -243.83)" fill="#fff" stroke="#10263b" stroke-linecap="round" stroke-linejoin="round" stroke-width="3.2"/><line x1="62.79" y1="44.42" x2="21.3" y2="55.82" fill="none" stroke="#10263b" stroke-linecap="round" stroke-linejoin="round" stroke-width="3.2"/><line x1="65.49" y1="55.57" x2="24.01" y2="66.97" fill="none" stroke="#10263b" stroke-linecap="round" stroke-linejoin="round" stroke-width="3.2"/><line x1="68.56" y1="66.71" x2="27.07" y2="78.11" fill="none" stroke="#10263b" stroke-linecap="round" stroke-linejoin="round" stroke-width="3.2"/><line x1="59.29" y1="79.56" x2="30.21" y2="87.55" fill="none" stroke="#10263b" stroke-linecap="round" stroke-linejoin="round" stroke-width="3.2"/><path d="M415.75,258.42a101.62,101.62,0,0,1-1.94,15c-.88,3.88,2.6,9.6,8.18,8.09,5.95-1.61,6.09-8.33,3.35-11.21A122.3,122.3,0,0,1,415.75,258.42Z" transform="translate(-373.63 -243.83)" fill="#00a0dd" stroke="#10263b" stroke-linecap="round" stroke-linejoin="round" stroke-width="3.2"/></svg>