<svg id="Layer_1" data-name="Layer 1" xmlns="http://www.w3.org/2000/svg" viewBox="0 0 81.64 109.23">
  <title>icon-clip-board</title>
  <g>
    <g>
      <polyline points="66.02 15.33 80.04 15.33 80.04 107.63 1.6 107.63 1.6 15.33 15.07 15.33" fill="#fff" stroke="#10263b" stroke-linecap="round" stroke-linejoin="round" stroke-width="3.2"/>
      <line x1="38.49" y1="43.09" x2="65.99" y2="43.09" fill="#fff" stroke="#10263b" stroke-linecap="round" stroke-linejoin="round" stroke-width="3.2"/>
      <line x1="38.49" y1="66.16" x2="65.99" y2="66.16" fill="#fff" stroke="#10263b" stroke-linecap="round" stroke-linejoin="round" stroke-width="3.2"/>
      <line x1="38.49" y1="89.23" x2="65.99" y2="89.23" fill="#fff" stroke="#10263b" stroke-linecap="round" stroke-linejoin="round" stroke-width="3.2"/>
      <polyline points="15.37 43.03 19.29 47.5 29.42 34.82" fill="#fff" stroke="#10263b" stroke-linecap="round" stroke-linejoin="round" stroke-width="3.2"/>
      <polyline points="15.37 66.1 19.29 70.57 29.42 57.89" fill="#fff" stroke="#10263b" stroke-linecap="round" stroke-linejoin="round" stroke-width="3.2"/>
      <line x1="40.59" y1="9.34" x2="40.59" y2="9.34" fill="#fff" stroke="#10263b" stroke-linecap="round" stroke-linejoin="round" stroke-width="3.2"/>
      <path d="M428.07,253.45v-2.31a6.92,6.92,0,0,0-6.92-6.92h0a6.92,6.92,0,0,0-6.92,6.92v2.31h-4.62a4.6,4.6,0,0,0-4.61,4.61h0a4.6,4.6,0,0,0,4.61,4.61h23.07a4.61,4.61,0,0,0,4.62-4.61h0a4.61,4.61,0,0,0-4.62-4.61Z" transform="translate(-380.62 -242.62)" fill="#fff" stroke="#10263b" stroke-linecap="round" stroke-linejoin="round" stroke-width="3.2"/>
      <rect x="15.15" y="84.66" width="9.23" height="9.23" fill="#00a0dd" stroke="#10263b" stroke-linecap="round" stroke-linejoin="round" stroke-width="3.2"/>
    </g>
    <circle cx="40.26" cy="9.06" r="2.12" fill="#10263b"/>
  </g>
</svg>
