<svg id="Layer_1" data-name="Layer 1" xmlns="http://www.w3.org/2000/svg" viewBox="0 0 116.8 74.93"><title>icon-frog</title><circle cx="100.4" cy="41.5" r="1.26" fill="none" stroke="#0f263a" stroke-linecap="round" stroke-linejoin="round" stroke-width="3.2"/><path d="M377.84,280.76s-8.34-4.6-.54-8.83,19.2-11.2,28.08-7.34" transform="translate(-362.87 -260.1)" fill="#fff" stroke="#0f263a" stroke-linecap="round" stroke-linejoin="round" stroke-width="3.2"/><circle cx="107.37" cy="27.49" r="1.26" fill="none" stroke="#0f263a" stroke-linecap="round" stroke-linejoin="round" stroke-width="3.2"/><path d="M419.79,303.92a9.42,9.42,0,0,1-2.36.1,46.07,46.07,0,0,1-9.76-1.16" transform="translate(-362.87 -260.1)" fill="none" stroke="#0f263a" stroke-linecap="round" stroke-linejoin="round" stroke-width="4.8"/><path d="M383,293.26c-3.47-2.54-5.71-5.46-5.71-8.63,0-9.46,28.76-21.82,40.14-21.82a114.52,114.52,0,0,1,21,2.21c2.35-1.36,5.63-2.21,10.14-2.21,2.26,0,7.87-1.11,10.21-1.11,2.55,0,5.92,4.05,5.61,4.67,7.57,3,13.69,7.11,13.69,8.8,0,2.59-8.44,9.33-19.4,10.47-5.29,6.67-18.66,13-29.49,16.19" transform="translate(-362.87 -260.1)" fill="#fff" stroke="#0f263a" stroke-linecap="round" stroke-linejoin="round" stroke-width="3.2"/><circle cx="51.08" cy="49.89" r="1.26" fill="none" stroke="#0f263a" stroke-linecap="round" stroke-linejoin="round" stroke-width="3.2"/><circle cx="82.69" cy="64.04" r="1.26" fill="none" stroke="#0f263a" stroke-linecap="round" stroke-linejoin="round" stroke-width="3.2"/><path d="M436.32,289.37l-6.6,6.16a4.11,4.11,0,0,0-1.12,4.25s2.84,10,3,10c.56.18,3.62,1.65,5.05,2.34,0,0,7.12,1.52,16.7,4.26,0,0-13.93-2.66-15.13,0a27.83,27.83,0,0,1,6.81,5.95s-3.62-3.88-12.69-4.22c-3.39-.13-7.34-.11-9.3-2.32a15.74,15.74,0,0,0-7.63-4.59l7.72-1.19c-1.74-4.83-3.19-10.4-3.19-10.4a4.14,4.14,0,0,1,.85-4l10.44-11.77-10.44,11.77a4.14,4.14,0,0,0-.85,4" transform="translate(-362.87 -260.1)" fill="none" stroke="#0f263a" stroke-linecap="round" stroke-linejoin="round" stroke-width="3.2"/><path d="M434.34,310c.19-.38,4.64-2.68,4.64-2.68l-3,3.49" transform="translate(-362.87 -260.1)" fill="none" stroke="#0f263a" stroke-linecap="round" stroke-linejoin="round" stroke-width="4.8"/><circle cx="76.5" cy="45.66" r="1.26" fill="none" stroke="#0f263a" stroke-linecap="round" stroke-linejoin="round" stroke-width="3.2"/><path d="M456.07,288.35s6.7,4.13,12.71.49" transform="translate(-362.87 -260.1)" fill="none" stroke="#0f263a" stroke-linecap="round" stroke-linejoin="round" stroke-width="3.2"/><polyline points="92.56 28.81 99.88 40.8 89.21 31.33" fill="none" stroke="#0f263a" stroke-linecap="round" stroke-linejoin="round" stroke-width="3.2"/><line x1="85.84" y1="34.14" x2="84.83" y2="41.43" fill="none" stroke="#0f263a" stroke-linecap="round" stroke-linejoin="round" stroke-width="3.2"/><circle cx="84.16" cy="42.53" r="1.26" fill="none" stroke="#0f263a" stroke-linecap="round" stroke-linejoin="round" stroke-width="3.2"/><circle cx="91.73" cy="56.5" r="1.26" fill="none" stroke="#0f263a" stroke-linecap="round" stroke-linejoin="round" stroke-width="3.2"/><ellipse cx="455.86" cy="276.16" rx="3.7" ry="2.85" transform="translate(-425.93 -105.58) rotate(-18.02)" fill="#10263b"/><path d="M413.18,284.66c-2.58,0-4.46-1.21-4.68-3-.24-2,1.82-3.85,4.8-4.2a8.31,8.31,0,0,1,1-.06c2.58,0,4.46,1.2,4.68,3,.24,2-1.82,3.85-4.8,4.2A8.31,8.31,0,0,1,413.18,284.66Z" transform="translate(-362.87 -260.1)" fill="#139fda"/><path d="M414.28,279c1.66,0,3,.64,3.09,1.59.13,1.1-1.39,2.18-3.4,2.43a7.21,7.21,0,0,1-.79,0c-1.66,0-3-.64-3.09-1.59-.13-1.1,1.39-2.19,3.4-2.43a7.21,7.21,0,0,1,.79,0m0-3.2h0a9.29,9.29,0,0,0-1.17.07c-3.89.46-6.55,3-6.2,6,.32,2.64,2.84,4.41,6.27,4.41a9.29,9.29,0,0,0,1.17-.07,8.81,8.81,0,0,0,4-1.46,4.83,4.83,0,0,0,2.22-4.52c-.32-2.64-2.84-4.41-6.27-4.41Z" transform="translate(-362.87 -260.1)" fill="#0f263a"/><path d="M425.24,273c-2.58,0-4.46-1.21-4.68-3a3.3,3.3,0,0,1,1.56-3,7.18,7.18,0,0,1,3.24-1.17,8.44,8.44,0,0,1,1-.06c2.58,0,4.46,1.21,4.68,3a3.25,3.25,0,0,1-1.56,3,7.14,7.14,0,0,1-3.24,1.18A8.18,8.18,0,0,1,425.24,273Z" transform="translate(-362.87 -260.1)" fill="#139fda"/><path d="M426.34,267.29c1.66,0,3,.64,3.09,1.59.13,1.1-1.39,2.19-3.4,2.43a7.21,7.21,0,0,1-.79,0c-1.66,0-3-.64-3.09-1.59s1.39-2.18,3.4-2.42a5.41,5.41,0,0,1,.79,0m0-3.2a9.29,9.29,0,0,0-1.17.07,8.81,8.81,0,0,0-4,1.46,4.85,4.85,0,0,0-2.22,4.52c.32,2.64,2.84,4.41,6.27,4.41a9.18,9.18,0,0,0,1.17-.07,8.65,8.65,0,0,0,4-1.46,4.81,4.81,0,0,0,2.22-4.52c-.32-2.64-2.84-4.41-6.27-4.41Z" transform="translate(-362.87 -260.1)" fill="#0f263a"/><path d="M400.67,276.41c-1.72,0-3-.88-3.14-2.2a2.43,2.43,0,0,1,1.11-2.26,4.45,4.45,0,0,1,2-.73,4,4,0,0,1,.59,0c1.71,0,3,.89,3.13,2.21a2.4,2.4,0,0,1-1.11,2.26,4.36,4.36,0,0,1-2,.73Z" transform="translate(-362.87 -260.1)" fill="#139fda"/><path d="M401.22,272.78c.83,0,1.49.32,1.54.8s-.69,1.09-1.7,1.21a2.55,2.55,0,0,1-.39,0c-.83,0-1.49-.32-1.55-.79s.7-1.09,1.7-1.21l.4,0m0-3.2a6.81,6.81,0,0,0-.78.05,5.88,5.88,0,0,0-2.72,1A4,4,0,0,0,396,274.4c.25,2.13,2.19,3.61,4.72,3.61a6.62,6.62,0,0,0,.77,0,5.89,5.89,0,0,0,2.73-1,4,4,0,0,0,1.77-3.75c-.25-2.13-2.2-3.62-4.72-3.62Z" transform="translate(-362.87 -260.1)" fill="#0f263a"/><path d="M412.3,273.33a2.61,2.61,0,0,1-2.83-2.05c-.16-1.36,1-2.54,2.76-2.75l.51,0a2.59,2.59,0,0,1,2.82,2.05,2.24,2.24,0,0,1-1,2.1,3.7,3.7,0,0,1-1.74.65Z" transform="translate(-362.87 -260.1)" fill="#139fda"/><path d="M412.74,270.1c.66,0,1.19.26,1.23.64s-.55.87-1.36,1l-.31,0c-.67,0-1.19-.26-1.24-.64s.56-.87,1.36-1l.32,0m0-3.2a5.48,5.48,0,0,0-.7,0c-2.64.32-4.43,2.27-4.16,4.53a4.15,4.15,0,0,0,4.42,3.46,5.34,5.34,0,0,0,.69-.05c2.64-.31,4.43-2.26,4.16-4.52a4.14,4.14,0,0,0-4.41-3.46Z" transform="translate(-362.87 -260.1)" fill="#0f263a"/><circle cx="44.56" cy="70" r="1.26" fill="none" stroke="#0f263a" stroke-linecap="round" stroke-linejoin="round" stroke-width="3.2"/><circle cx="29.71" cy="72.07" r="1.26" fill="none" stroke="#0f263a" stroke-linecap="round" stroke-linejoin="round" stroke-width="3.2"/><circle cx="43.97" cy="61.01" r="1.26" fill="none" stroke="#0f263a" stroke-linecap="round" stroke-linejoin="round" stroke-width="3.2"/><path d="M384.5,312.73c3.09.81,14.4,2.4,14.4,2.4-1.56,4,5.34,5.69,5.34,5.69-4.45,2,.78,8.36.78,8.36-15.91-5-14.12,1.24-14.12,1.24s-11.2-4.89-10.4-9.69" transform="translate(-362.87 -260.1)" fill="#fff" stroke="#0f263a" stroke-linecap="round" stroke-linejoin="round" stroke-width="3.2"/><path d="M383,293.26a52.17,52.17,0,0,0-17.74-.38c-2,1-.2,9.32,6.12,17.81,7.49,10.05,16.89,11,18.94,10s-4.56-4.35-11.47-12.36c-2.52-2.92-4.65-5.74-6.44-8.15A61.24,61.24,0,0,0,384.63,306c11.31,3.94,21.85,3.51,22.43,1.55s1.13-5.52-5.12-14c-4.93-5.74-11.27-8.38-14.14-5.9-1.52,1.31-1.77,3.78-.94,6.67-1.28-.4-2.57-.73-3.86-1" transform="translate(-362.87 -260.1)" fill="#fff" stroke="#0f263a" stroke-linecap="round" stroke-linejoin="round" stroke-width="3.2"/></svg>