<svg id="Layer_1" data-name="Layer 1" xmlns="http://www.w3.org/2000/svg" viewBox="0 0 114.19 93.01"><title>icon-people</title><path d="M410.73,289.48H432a10.81,10.81,0,0,1,8.55,4,11.65,11.65,0,0,1,2.46,9.2l-3.49,36.66a3.91,3.91,0,0,1-3.89,3.11H407.11a4,4,0,0,1-3.89-3.11l-3.5-36.4v-.13a11.26,11.26,0,0,1,11-13.35Z" transform="translate(-364.26 -251.06)" fill="#00a0dd" stroke="#10263b" stroke-linecap="round" stroke-linejoin="round" stroke-width="3.2"/><path d="M369.26,339.75l-3.24-32A9.93,9.93,0,0,1,375.74,296H394a18.28,18.28,0,0,0-.39,7.52l3.5,36.4V340a10,10,0,0,0,.64,2.07h-25.4A2.84,2.84,0,0,1,369.26,339.75Z" transform="translate(-364.26 -251.06)" fill="#fff" stroke="#10263b" stroke-linecap="round" stroke-linejoin="round" stroke-width="3.2"/><path d="M476.7,307.88l-3.11,31.74a3.32,3.32,0,0,1-3.24,2.72H445a12.38,12.38,0,0,0,.65-2.07l3.5-36.66a15,15,0,0,0-.39-7.52H467a9.86,9.86,0,0,1,7.65,3.63A10.1,10.1,0,0,1,476.7,307.88Z" transform="translate(-364.26 -251.06)" fill="#fff" stroke="#10263b" stroke-linecap="round" stroke-linejoin="round" stroke-width="3.2"/><circle cx="57.07" cy="16.12" r="14.52" fill="#00a0dd" stroke="#10263b" stroke-linecap="round" stroke-linejoin="round" stroke-width="3.2"/><circle cx="22.31" cy="26.92" r="11.5" fill="#fff" stroke="#10263b" stroke-linecap="round" stroke-linejoin="round" stroke-width="3.2"/><circle cx="91.82" cy="26.92" r="11.5" fill="#fff" stroke="#10263b" stroke-linecap="round" stroke-linejoin="round" stroke-width="3.2"/></svg>