<svg xmlns="http://www.w3.org/2000/svg" viewBox="0 0 199.2857 1568.958"><defs><style>.a{fill:#81c9f0;}</style></defs><title>mobile-river</title><path class="a" d="M850.334,1135.0364C848.7156,1062.2085,914.6849,924.6308,861,818c-56.6954-112.61-88.6219-209.4916-81.4784-280.9574,8.42-84.2325,18.75-149.3222,7.8168-224.6047-9.4407-65.0057,33.37-214.44,55.8665-326.6974,38.6128-192.6769-37.4595-419.6621-37.4595-419.6621h89.5839S948.0005-281.67,941.23-105.31c-5.6675,147.632-78.0723,233.4156-60.8076,459.79,6.6868,87.6766-23.681,157.5553-10.79,215.4921C893,675,902.5233,686.2173,952.1541,795.7289c51.4186,113.4563,9.6761,339.3075,9.6761,339.3075Z" transform="translate(-778.5308 433.9216)"/></svg>