<svg id="Layer_1" data-name="Layer 1" xmlns="http://www.w3.org/2000/svg" xmlns:xlink="http://www.w3.org/1999/xlink" viewBox="0 0 150 150"><defs><symbol id="icon_reptile_native_southern-bell-frog_outline" data-name="icon_reptile_native_southern-bell-frog_outline" viewBox="0 0 150 150"><rect width="150" height="150" fill="none"/><g id="Layer_2" data-name="Layer 2"><circle cx="127.5" cy="80.97" r="1.58" fill="none" stroke="#10263b" stroke-linecap="round" stroke-linejoin="round" stroke-width="6"/><circle cx="136.21" cy="63.46" r="1.58" fill="none" stroke="#10263b" stroke-linecap="round" stroke-linejoin="round" stroke-width="6"/><ellipse cx="118.25" cy="49.18" rx="5.78" ry="4.45" transform="matrix(0.95, -0.31, 0.31, 0.95, -9.41, 38.98)" fill="#10263b"/><path d="M73.15,83.87a11.33,11.33,0,0,1-2.94.12A57.79,57.79,0,0,1,58,82.55" fill="none" stroke="#10263b" stroke-linecap="round" stroke-linejoin="round" stroke-width="6"/><path d="M27.17,70.56C22.83,67.37,20,63.73,20,59.76,20,47.94,56,32.49,70.21,32.49a142.4,142.4,0,0,1,26.23,2.77c2.94-1.7,7-2.77,12.67-2.77,2.83,0,9.85-1.39,12.76-1.39,3.19,0,7.41,5.06,7,5.84,9.47,3.77,17.11,8.88,17.11,11,0,3.24-10.54,11.66-24.24,13.09-6.62,8.34-23.33,16.23-36.87,20.23" fill="none" stroke="#10263b" stroke-linecap="round" stroke-linejoin="round" stroke-width="6"/><path d="M27.17,70.56A64.51,64.51,0,0,0,5,70.08c-2.56,1.28-.26,11.65,7.65,22.26,9.36,12.56,21.1,13.8,23.66,12.52S30.62,99.43,22,89.41c-3.14-3.65-5.8-7.17-8-10.19A76.48,76.48,0,0,0,29.2,86.44c14.14,4.92,27.32,4.38,28,1.94s1.41-6.9-6.4-17.55c-6.16-7.16-14.08-10.46-17.68-7.37C31.26,65.1,31,68.19,32,71.8a46.73,46.73,0,0,0-4.82-1.24" fill="none" stroke="#10263b" stroke-linecap="round" stroke-linejoin="round" stroke-width="6"/><circle cx="57.7" cy="116.6" r="1.58" fill="none" stroke="#10263b" stroke-linecap="round" stroke-linejoin="round" stroke-width="6"/><circle cx="39.14" cy="119.18" r="1.58" fill="none" stroke="#10263b" stroke-linecap="round" stroke-linejoin="round" stroke-width="6"/><circle cx="56.97" cy="105.36" r="1.58" fill="none" stroke="#10263b" stroke-linecap="round" stroke-linejoin="round" stroke-width="6"/><path d="M29,94.88c3.86,1,18,3,18,3-1.95,5,6.67,7.12,6.67,7.12-5.55,2.5,1,10.45,1,10.45C34.8,109.24,37,117,37,117s-14-6.12-13-12.12" fill="none" stroke="#10263b" stroke-linecap="round" stroke-linejoin="round" stroke-width="6"/><circle cx="65.86" cy="91.47" r="1.58" fill="none" stroke="#10263b" stroke-linecap="round" stroke-linejoin="round" stroke-width="6"/><circle cx="105.36" cy="109.15" r="1.58" fill="none" stroke="#10263b" stroke-linecap="round" stroke-linejoin="round" stroke-width="6"/><path d="M93.82,65.69l-8.26,7.69a5.18,5.18,0,0,0-1.4,5.32s3.56,12.44,3.71,12.49c.69.22,4.53,2.06,6.31,2.93,0,0,8.9,1.89,20.87,5.32,0,0-17.4-3.32-18.91,0a34.89,34.89,0,0,1,8.52,7.44s-4.53-4.85-15.87-5.28c-4.23-.16-9.17-.14-11.63-2.9A19.61,19.61,0,0,0,67.63,93l9.64-1.49c-2.17-6-4-13-4-13a5.12,5.12,0,0,1,1.06-5l13-14.72-13,14.72a5.12,5.12,0,0,0-1.06,5" fill="none" stroke="#10263b" stroke-linecap="round" stroke-linejoin="round" stroke-width="6"/><path d="M20.72,54.92s-10.43-5.75-.68-11,24-14,35.1-9.17" fill="none" stroke="#10263b" stroke-linecap="round" stroke-linejoin="round" stroke-width="6"/><path d="M91.34,91.47c.23-.48,5.8-3.36,5.8-3.36l-3.8,4.36" fill="none" stroke="#10263b" stroke-linecap="round" stroke-linejoin="round" stroke-width="6"/><circle cx="97.62" cy="86.18" r="1.58" fill="none" stroke="#10263b" stroke-linecap="round" stroke-linejoin="round" stroke-width="6"/><path d="M118.5,64.42s8.38,5.15,15.89.61" fill="none" stroke="#10263b" stroke-linecap="round" stroke-linejoin="round" stroke-width="6"/><polyline points="117.7 65.12 126.86 80.1 113.51 68.26" fill="none" stroke="#10263b" stroke-linecap="round" stroke-linejoin="round" stroke-width="6"/><line x1="109.3" y1="71.78" x2="108.04" y2="80.88" fill="none" stroke="#10263b" stroke-linecap="round" stroke-linejoin="round" stroke-width="6"/><circle cx="107.19" cy="82.26" r="1.58" fill="none" stroke="#10263b" stroke-linecap="round" stroke-linejoin="round" stroke-width="6"/><circle cx="116.67" cy="99.72" r="1.58" fill="none" stroke="#10263b" stroke-linecap="round" stroke-linejoin="round" stroke-width="6"/></g></symbol></defs><title>icon-frog</title><use width="150" height="150" xlink:href="#icon_reptile_native_southern-bell-frog_outline"/><ellipse cx="327.48" cy="-5888.87" rx="4.58" ry="2.5" transform="translate(440.94 5934.11) rotate(-6.84)" fill="none" stroke="#00a0dd" stroke-linecap="round" stroke-linejoin="round" stroke-width="6"/><ellipse cx="342.14" cy="-5894.4" rx="2.29" ry="1.25" transform="translate(441.7 5935.82) rotate(-6.84)" fill="none" stroke="#00a0dd" stroke-linecap="round" stroke-linejoin="round" stroke-width="3"/><ellipse cx="312.32" cy="-5890.8" rx="2.29" ry="1.25" transform="translate(441.06 5932.29) rotate(-6.84)" fill="none" stroke="#00a0dd" stroke-linecap="round" stroke-linejoin="round" stroke-width="3"/><ellipse cx="334.74" cy="-5897.2" rx="1.15" ry="0.62" transform="translate(441.98 5934.92) rotate(-6.84)" fill="none" stroke="#00a0dd" stroke-linecap="round" stroke-linejoin="round" stroke-width="1.5"/><ellipse cx="352.93" cy="-5895.04" rx="1.15" ry="0.62" transform="translate(441.85 5937.1) rotate(-6.84)" fill="none" stroke="#00a0dd" stroke-linecap="round" stroke-linejoin="round" stroke-width="1.5"/></svg>