<svg id="Layer_1" data-name="Layer 1" xmlns="http://www.w3.org/2000/svg" viewBox="0 0 98.37 121.4"><title>icon-paper</title><path d="M1037.2,3200l.19,69.61a14.9,14.9,0,0,0,14.94,14.86l62.38-.16a14.91,14.91,0,0,0,14.87-15l-.23-85.42A14.91,14.91,0,0,0,1114.4,3169l-46.55.12Zm0,7.67,28.93-.06a9.48,9.48,0,0,0,9.46-9.51l-.25-27.37" transform="translate(-1034.2 -3166.04)" fill="#fff" stroke="#10263b" stroke-linecap="round" stroke-linejoin="round" stroke-width="6"/><line x1="76.05" y1="56.79" x2="22.27" y2="56.93" fill="none" stroke="#10263b" stroke-linecap="round" stroke-linejoin="round" stroke-width="4"/><line x1="75.65" y1="71.12" x2="21.87" y2="71.26" fill="none" stroke="#10263b" stroke-linecap="round" stroke-linejoin="round" stroke-width="4"/><line x1="75.7" y1="85.57" x2="21.92" y2="85.71" fill="none" stroke="#10263b" stroke-linecap="round" stroke-linejoin="round" stroke-width="4"/><line x1="60.31" y1="98.02" x2="22.6" y2="98.12" fill="none" stroke="#10263b" stroke-linecap="round" stroke-linejoin="round" stroke-width="4"/><path d="M1099.1,3180.07a126.85,126.85,0,0,1-7.24,17.41c-2.33,4.39,0,12.43,7.21,12.44,7.7,0,10.08-8.05,7.72-12.43A154.84,154.84,0,0,1,1099.1,3180.07Z" transform="translate(-1034.2 -3166.04)" fill="#00a0dd" stroke="#10263b" stroke-linecap="round" stroke-linejoin="round" stroke-width="4"/></svg>