<svg id="Layer_1" data-name="Layer 1" xmlns="http://www.w3.org/2000/svg" viewBox="0 0 431.77 393.37">
  <title>map-basin-wide</title>
  <path d="M469.36,398.09c.13,0,.28.06.38,0,.49-.3.77-.81,1.35-.68a1.43,1.43,0,0,1,.9.53.88.88,0,0,1-.47,1.34c-1,.38-2.13-.16-3.26,0-.74.12-.72.92-1,1.46s-1.42,1.22-1.93.77c-1.31-1.16-3.12-1.07-4.68-1.27-.41-.05-.67.71-1.21.75s-1.61.19-1.87-.47-.06-1.26-.44-1.9.71-1.17,1.41-1.29a12.49,12.49,0,0,0,2.34-.28c2.07-.78,4.09-1.49,6.26-1.17.43.07-.27.5-.36.69s.44.2.42.39-.32.4-.21.63a.73.73,0,0,0,.37.27c.48.2.93-.3,1.45-.18-.13.54.4.51.65.64s.36-.19.52-.33" transform="translate(-206.13 -101.36)" fill="none" stroke="#fff" stroke-miterlimit="10" stroke-width="1.64"/>
  <path d="M530.25,462.84c3.4-1.54,8.32,1.15,12.53.48,0,0,7.89,1.55,8.42,1.58,2,.48,3.26-.72,5.15-1.52,1.5-.33,3.59-.25,4.39.62s.29,3.35.43,5c-.2.06.62.51,0,0,.52,3,.86,5.12,0,7.18-2.26,4.52-1.67,10.81-6.33,12.31-1.68.35-1,2.69-2.63,3.24-.91.19-3.79.7-3.52,2a40.34,40.34,0,0,0-7.44.1c.07-1.67-1.62-1.32-1.18-3.35-.31-1.31-4-4-3.94-4.79-.42,0-.31-2.94-.68-4.21a12.47,12.47,0,0,1-.68-4.21c-.42,0-2.38-3.43-2.21-3.55C531.65,470,531.37,466.22,530.25,462.84Z" transform="translate(-206.13 -101.36)" fill="none" stroke="#fff" stroke-miterlimit="10" stroke-width="1.64"/>
  <path d="M332.9,152.07c-.68,1-3.1.15-3.46.39a.63.63,0,0,0-.22.55c.31.52-4.47,4.64-4.62,4.71-.41.34-3,2.79-3.81,3.61-.56.42-2.58,8.25-2.78,8.42-1.21.42-2.31,0-3.62-.31-1.09-.18-1.95,5.41-1.57,6.08s1.57.9,2,1.46c.68,1.18-1.3,5.41-1.67,6.29-1.19-.23-7.07-2-8.44-2.41-.82-.2-.94,3.88-1.23,4.92a42.13,42.13,0,0,1,4.9,3.81c.22.73-2.74,5.47-3.12,5.44a2.48,2.48,0,0,1-2.1-.85c-1.06-1.21-1-2.88-1.89-4.26-.37-.67-1.41-1-2.21-1.55l-2.31-2.21c-.74,1.32-7.28,8.18-7.22,11.39.57,2.26.91,4.36,2.24,6.22.18,2.38-5,5.95-5,5.95-2.69,4.5-2.46,9.53-5.28,12.86-1.54,1.52-25.44,14-26.28,14-4.26,1.93-7.32,5.57-11.59,7.92-1.71.78-20.56,12.6-21.26,13.55-1.92,1.89-6.69,6.31-6.75,6.42-1.3,2.76-5.06,2.62-7,3.33a6.07,6.07,0,0,0-.83,7.13,12.27,12.27,0,0,1,1.69,4.07c-1.57,3.88-1.71,7.64-1.76,11.29.74.14,2.53,8.16,3.93,11.29,1.73,2.42,4.59,4.21,5.77,6.74,2,.94,1.09,3.83,1,5.92-.47,1.23-3.39,1.12-3.39,1.12-1.69.36-5.44.22-5,.65,2.38,3.43,8.11,6.58,10,10.84,1.16,2.55,4.47,3.51,5.63,6.06,1.54,3.41,8.31,12.45,9.5,14.17.79,1.29-.13,3.34.82,4.72.24.35,4.73,14.32,5.68,15.87-.18.15,2.3,1.08,2,2,2.34-.41,3.83,4.25,3.83,4.25.73,2.95,2.1,10.95,2.47,12.22a25.77,25.77,0,0,1,.36,12.57l-4,2.37-.73,1.63c.27.2-.92,2.05-.52,2.49,0,.42-.48,1.65-.06,2.22.4-.12,7.68,6.43,7.68,6.43,1.61,1.74,10.78,2.5,12.87,2.72,4.63-.8,12.3-4.69,12.32-5.11,2.55-1.16,8.22-7.21,8.68-8,1.71-1.19,7.28-4.74,9-5.52,3.84-1.95,7.17-3.72,11.45-4.16,5.88-.62,9.22-.49,13.88-.74,2.91-.72,6.28-1.43,8.07-4a77.13,77.13,0,0,0,3.9-9.26c.72-2.61,7.06-4.46,7.08-4.89,2.12-.75,3.43-2.37,5.15-3.56,6-2.7,11.84-3.32,17.39-6.46.42,0,15.31-6.52,15.73-6.51,3.39-1.13,7.18-1.82,10.58-3.36s7.57-1,11.3,0c2.91.53,4.91,2.7,7.47,3.43,1.17.25,9,2.21,12.13,2.88,1.05.75,2.31.38,3.55.84,1.22.88,1.58,2.57,3.11,2.78.12.27,6.44,10.13,11.46,13.71.25.81,2.59,7.8,3.31,8.46a12.2,12.2,0,0,0,4.27,5.33s3.37-5.18,5-7.07c.57-1,3.67-6.71,5.23-8.16.19-.58,1.91-1.76,1.71-1.73,1.58-3.32,5-4.87,6.37-8.17.46-1.23,4.35-4.43,4.21-4.74.42,3.67-.16,8.24-.16,12.28-.21,1.4-2.76,2.56-2.16,3.73-1.11,1.31-.75,2.58-1.08,4.19-.16.47,1.07.93,1.08.78a8.4,8.4,0,0,1-.81,3.39c-2.28.83-1.53,2.95-3.64,3.7l-.05,1.26c2.05.91,5.09-1.9,6.53.44a3.3,3.3,0,0,1,.76-1.64c1.18-1.41-.43-3.14,1.07-3.79,2.32-.88,2.41-3.39,3.2-5.71.55.28.15-.15-.41-.38,2.61,1.14,2.09,4.05,3.63,5.52h0c.48.28.89.71.39,1.28-1.28,1.88-1.34,3.55-.63,4.67-1.21,1-3,3-3.58,3a7.53,7.53,0,0,0,2.7,2c1.61.16,3.35-1.87,4.73-1.47,1.08.95,2.75,1,3.74,2.08-.2.22,3.18,8.45,3.8,14.32.43-.4,1.43,8.27,2.62,10s1.52,3.82,3.59,4.32a80.42,80.42,0,0,1,10.67,5.13c1.69-.06,3.38-.41,4.85-.4,1.85.53,8.76,5.82,10.45,5.46,3-.72,6.27.24,9.24-.9,1.7-.78,7-6.85,8.19-6.39-.5,2.08,4.4,5.19,5.22,5.64.42,0,8.73,1.59,9.87,3.18.48-.28.06-.29,0,0,4.21.7,8.25-6.68,8.69-7.07,3-.73,6.33-1.44,9.24-.91,3.32.54,6.66.67,9.87.93,1-.1,5.18-2.72,5.18-2.72a13.73,13.73,0,0,0,7-6.85c3.66-8.22,1.56-7.88,8.91-14.3,3-2.81,2-7.45,3.77-11.15,4.46-7.36,9.12-8.85,15.63-14.88a167.23,167.23,0,0,1,9.8-15.94c-.53-8,2.28-15.82,7.13-22.32.23-6.27.9-12.93-2.63-18.93a10.94,10.94,0,0,1-.18-3.41c-.24-.5-.8-5.06-1.71-6.6,0,0-.15-13.48-3.22-20.71a52.26,52.26,0,0,1-3.83-20.23c-5.24-5.22-10.94-9.61-17-14.45a8.8,8.8,0,0,1-3.16-4.72c-1.48-5.08-2.56-9.72-3.63-14.78-3.27-1.8-5.44.21-9.6-.36a165.15,165.15,0,0,0-5.13-19c-2.24-7.2-8.75-12.05-14-17.27-4.18-.15-7.86-2.38-12-3.38-1.24-.46-8-20.8-9.7-30.9-.36-1.69-1.33-9.26-2.13-10.13-1.17-2.13-2.34-4.27-3.52-6.4l-5.72-3.57c-.09.23-11.25-1.44-11.39-1.75a13.63,13.63,0,0,1-1.26-3.87s-12.25-35.22-12-35.51c-.16.07-.18-.2-.27,0,.18-.45-1.54-2.57-1.61-2.72-.81-1.5-2.56-2-4.13-2.21-.34-.14-3.11,3.38-3,4.07.07.16-1.37,5.93-1.44,6.26-3.66,18.14-7.53,56.67-7.32,62.12,0,0-2.75,9.72-5.26,10.51-1.78.56-7.66-.54-7.66-.54-.56-.23-44.48-25.88-44.89-26.44-.36-.4-3.85-2-4.9-2.89-.86-.74-1.58-2.46-.51-3.18.36-.24,6.61-9.27,6.35-11.18.24.16-4-.55-2.14-3.9.36-.66,5.74-1.41,5.94-1.58.86-1.46,4.66-7.82,4.66-7.82.2-.17-.27-2-.22-2.12.44-.47.92-1.31.68-1.67-.8-1.22-3.69-3.31-3.82-3.62l-3.87-.39c-.28-.24-43.77-6.63-43.66-6.58-4.94-2.38-9.63,0-6.66,1.88-1.44-.93.1,5.32,3,5.41,1.56-1.3-3.12,6.75-4.87,6.93s-3.43-1.4-5.36-1.41l-2.54.27c0,.38-8,11.86-7.54,12.42a18.83,18.83,0,0,1,1.09,3.23c-.29.4-5.28,2.29-5.2,2.71-.17,2-4.46,6.84-4.34,7.79.15,1.87,1.94,2.86,3.56,3.65.44.18,0,4.13-.05,4.24-.18.44-16.78-1.29-18-1.25-.22-.09-7.37-4.76-8.66-5.41-1.79-1-2.92-3.58-5-3.79Z" transform="translate(-206.13 -101.36)" fill="none" stroke="#fff" stroke-miterlimit="10" stroke-width="1.64"/>
  <path d="M570.26,271.41c-1.79,0-2.74,2.93-4,4-2.14,1.26-4.15-.91-5.82-1.35h0c-2.09.3-2.17,2.39-3.15,1.82-.75,2.18-.4,3.86-1.28,5.09-1.29.78-2.91-.53-3.94,0-1.57,1.88-1.23,4-1.6,6-1,2.14-3.6,3.3-4,5.74a4.11,4.11,0,0,0-.07,1.9c-1.51,3.11-2.86,5.57-3.86,7.66.48.4.07.38,0,0,.84,2.09-.49,4.13-.26,5.09.1,1.14.91,2,1,2.9-1,1.59-3.09,1.92-4.38,2.92-2.22,3.47-1.11,7.28-2.09,11,0,1.25-2.57,1.57-3.48,2.58a67.51,67.51,0,0,0-6.73,12.56c-.42.35-2.52.68-3.22,1.7-1.12,2.68-4.07,3.41-5.68,5.12-1.39.27-3.47-.23-4.59.58-2.75,2-4.92,4-5.52,6.93-1.69,2.4-3.86,4.41-6,4.75-2.53.32-5.42-.63-7.88-1.84-.83-.17-1.73,1.47-2.79,2.08-.66.58-1.11,1.4-2.33-.25-2.15,2.36-4.35,5.21-6.9,6.67-.5,1.76-.63,5.11.77,7.19-.24.47-.22.06,0,0-1.06,0-.4,4.64-1.16,4.57,1.39,5.54,2,12.25-3.5,15.7a3.43,3.43,0,0,0-.21,3c.42,0,2.49.52,4.16.58,2.05.92,3.55,5.57,3.69,5.39a6,6,0,0,0-.18,1.43c1.28-.78,1.15,2.56,3.21-.12-.28-.18-.68-.61,0,0-.62-2.29,1.89-2.19.47-4.22,2-1.71,7.93-4,9.11-4.91a3.33,3.33,0,0,1,2.52.13c1.71,1.4,2.05,3.51,2.66,4.61.37,6,3.12,10.75,4.65,16.11,3.72-.55,5.26,3.27,8.22,4.83,6.13,1.29,12.88-.13,18.84,1.75.25-.38-.17-.4,0,0,1.07.07,9.3,3.73,9.32,3.29,2.93-.29,5.84.24,8.19-.61a14.18,14.18,0,0,1-.85-1.2c1.55-1.18,2.4-1.57,3.15-3,1.42-.57,3.08-.09,4-1.22,1.13,2.88,4,3.41,6.58,2.66.43-.4,3.88-3.19,3.85-3.18.5-1.25-.26-3.37,1.06-3.32,1.27-2.05,4-8.22,2.95-9.17a24.63,24.63,0,0,1,5.42,7.4c0,.41,4.08,2.66,4.34.95.33-2.88,0-5,.2-6.85.82-3.11,2-13.52,1.88-15.36-.12-1.51,3.8-5.55,5-3.9-.42.05-.82-.39,0,0,.18-4.53-1.74-9.2.88-12,1.31-1.62,1.41-4.13,1.45-5.94-.36-.71-2.44-1.21-2.81-2.48-.69-3.78,3.18-6.57,6-6.87,5.53,1,9.83-2.14,14.59-3.45.45-3.52.18-7.29.61-10.59.54-.43,2.44-6.22,4.59-7.81-.81-.86,1.33-2,2-2.46,1.66-4.51-1.43-11.32,3.72-14.89.86-.39.93-2.47.58-3.89a90.06,90.06,0,0,1-2.3-9.42c-1.8-4-4.58-7.84-7.86-9.64-2.89-.95-6.19-2.33-8.5-2.54-3.15.84-5.27,1.6-7.76,1.09-.4-.44-1.19-1.72-.48-2.6-2.78.38-4.4-.94-6.5-1,0-.42-2.34-4.27-4.49-4.5.59-2.76.3-6.12.78-9-.3-1.73-1.91-3.46-3.48-4.54-.91.14-1.73-.31-2.21-.18-3.29.15-5.49,3-7.16,1.75-2-1.82-1.47-4.31-1.32-5.25" transform="translate(-206.13 -101.36)" fill="#8ed8f6" opacity="0.6"/>
  <line x1="157.34" y1="59.26" x2="175.7" y2="257.53" fill="none" stroke="#fff" stroke-linecap="round" stroke-linejoin="round" stroke-width="1.64" stroke-dasharray="0 6.52 0 0"/>
  <polyline points="169.34 193.19 295.42 188.81 296.59 330.85" fill="none" stroke="#fff" stroke-linecap="round" stroke-linejoin="round" stroke-width="1.64" stroke-dasharray="0 6.52 0 0"/>
  <line x1="262.82" y1="75.9" x2="265.61" y2="189.85" fill="none" stroke="#fff" stroke-linecap="round" stroke-linejoin="round" stroke-width="1.64" stroke-dasharray="0 6.52 0 0"/>
  <path d="M501.83,324.51l82.88,3.15s.55-1,4.24-2.34,10.5-3.13,13.57-2,6.65,2.72,8.11,5.33,2.55,1.09,3.63.14,4.22-1.79,4.22-1.79-.94-2.64.13-3.34,4.67.91,6.23.24-3.56-2.39,1.57-.68,6.27-1.06,7.8-.36" transform="translate(-206.13 -101.36)" fill="none" stroke="#fff" stroke-linecap="round" stroke-linejoin="round" stroke-width="1.64" stroke-dasharray="0 6.52 0 0"/>
  <path d="M502.33,385.71a7.44,7.44,0,0,1,5.18.19c3,1.12,2.09-1.93,5,.19s3.86,4.7,4.79,6.75,1.48,1.07,3.53.13,2.36,4.34,3.85,5,1.83,5.11,4.32,6.05a18.27,18.27,0,0,1,6.9,4.64c1.94,2.09,3.49,1.14,5,.19s-2.94-2.64,1.55-1,5,2,8,2.49,5.6-1.15,8.58.32,4.57-.58,7.06.32,4.93-1.89,4,2.47-3.44,5.93-.12,7.58,15.69,8.17,15.69,8.17" transform="translate(-206.13 -101.36)" fill="none" stroke="#fff" stroke-linecap="round" stroke-linejoin="round" stroke-width="1.64" stroke-dasharray="0 6.52 0 0"/>
</svg>
