<svg id="Layer_1" data-name="Layer 1" xmlns="http://www.w3.org/2000/svg" viewBox="0 0 431.77 393.37">
  <title>map-regional</title>
  <path d="M468.86,398.1c.13,0,.28,0,.38,0,.49-.3.76-.8,1.34-.67a1.39,1.39,0,0,1,.89.53.87.87,0,0,1-.46,1.33c-1,.37-2.12-.16-3.23,0-.74.11-.72.91-1,1.44s-1.4,1.21-1.91.77c-1.3-1.15-3.1-1.06-4.64-1.26-.41-.06-.67.7-1.2.74s-1.6.19-1.86-.47-.06-1.25-.44-1.88.71-1.16,1.4-1.28a12.38,12.38,0,0,0,2.33-.28c2.05-.77,4.05-1.48,6.21-1.16.42.07-.27.5-.36.68s.43.21.42.39-.33.4-.21.63a.65.65,0,0,0,.36.26c.48.2.92-.29,1.44-.17-.13.53.4.51.65.64s.35-.19.51-.34" transform="translate(-205.67 -101.36)" fill="none" stroke="#fff" stroke-miterlimit="10"/>
  <path d="M633.78,324.14a10.94,10.94,0,0,1-.18-3.41c-.24-.5-.79-5.06-1.71-6.6,0,0-.14-13.48-3.21-20.71a52.26,52.26,0,0,1-3.84-20.23c-5.24-5.22-10.93-9.61-17-14.45a8.82,8.82,0,0,1-3.17-4.72c-1.48-5.08-2.56-9.72-3.62-14.78-3.27-1.8-5.44.21-9.61-.36a161.19,161.19,0,0,0-5.13-19c-2.23-7.2-8.75-12.05-14-17.27-4.17-.15-7.85-2.38-12-3.38-1.24-.46-8-20.8-9.7-30.9-.35-1.69-1.32-9.26-2.13-10.13-1.17-2.13-2.34-4.27-3.52-6.4l-5.71-3.57c-.1.23-11.26-1.44-11.39-1.75a13.33,13.33,0,0,1-1.26-3.87s-12.26-35.22-12-35.51c-.16.07-.18-.2-.27,0,.18-.45-1.54-2.57-1.6-2.72-.82-1.5-2.56-2-4.14-2.21-.33-.14-3.1,3.38-3,4.07.06.16-1.37,5.93-1.45,6.26-3.65,18.14-7.52,56.67-7.31,62.12,0,0-2.76,9.72-5.27,10.51-1.78.56-7.66-.54-7.66-.54-.22-.09-7.09-4.08-15.4-8.94l2.79,115-95.87,3.86,5.81,62.77a47.15,47.15,0,0,0,7.1-2.33c3.4-1.54,7.57-1,11.29,0,2.91.53,4.92,2.7,7.47,3.43,1.17.25,9.05,2.21,12.14,2.88,1,.75,2.31.38,3.55.84,1.22.88,1.57,2.57,3.11,2.78.12.27,6.44,10.13,11.46,13.71.25.81,2.58,7.8,3.3,8.46a12.34,12.34,0,0,0,4.27,5.33s3.37-5.18,5-7.07c.57-1,3.68-6.71,5.23-8.16.2-.58,1.92-1.76,1.72-1.73,1.57-3.32,5-4.87,6.36-8.17.46-1.23,4.35-4.43,4.21-4.74.43,3.67-.16,8.24-.15,12.28-.21,1.4-2.77,2.56-2.17,3.73-1.11,1.31-.74,2.58-1.08,4.19-.16.47,1.08.93,1.08.78a8.44,8.44,0,0,1-.8,3.39c-2.28.83-1.53,2.95-3.65,3.7l-.05,1.26c2.06.91,5.1-1.9,6.53.44a3.37,3.37,0,0,1,.77-1.64c1.17-1.41-.44-3.14,1.06-3.79,2.32-.88,2.42-3.39,3.2-5.71.43.22.28,0-.07-.2,2.23,1.24,1.82,3.94,3.29,5.34.48.28.89.71.39,1.28-1.27,1.88-1.34,3.55-.62,4.67-1.21,1-3,3-3.59,3a7.62,7.62,0,0,0,2.7,2c1.61.16,3.36-1.87,4.74-1.47,1.08.95,2.75,1,3.73,2.08-.2.22,3.19,8.45,3.8,14.32.43-.4,1.43,8.27,2.62,10s1.52,3.82,3.6,4.32a80.81,80.81,0,0,1,10.66,5.13c1.7-.06,3.38-.41,4.85-.4,1.86.53,8.77,5.82,10.46,5.46,2.95-.72,6.26.24,9.23-.9,1.7-.78,7-6.85,8.19-6.39-.49,2.08,4.41,5.19,5.23,5.64.42,0,8.72,1.59,9.86,3.18,4.22.7,8.26-6.68,8.69-7.07,3-.73,6.33-1.44,9.24-.91,3.32.54,6.66.67,9.87.93,1-.1,5.18-2.72,5.18-2.72a13.73,13.73,0,0,0,6.95-6.85c3.66-8.22,1.56-7.88,8.91-14.3,3-2.81,2-7.45,3.78-11.15,4.46-7.36,9.12-8.85,15.62-14.88a170.19,170.19,0,0,1,9.81-15.94c-.54-8,2.27-15.82,7.12-22.32C636.65,336.8,637.32,330.14,633.78,324.14Z" transform="translate(-205.67 -101.36)" fill="#afe2dc"/>
  <path d="M529.79,462.84c3.41-1.54,8.33,1.15,12.53.48,0,0,7.89,1.55,8.43,1.58,2,.48,3.25-.72,5.14-1.52,1.5-.33,3.59-.25,4.4.62s.29,3.35.43,5c-.21.06.61.51,0,0,.51,3,.86,5.12-.06,7.18-2.26,4.52-1.67,10.81-6.32,12.31-1.69.35-1,2.69-2.63,3.24-.91.19-3.8.7-3.53,2a40.23,40.23,0,0,0-7.43.1c.06-1.67-1.63-1.32-1.18-3.35-.32-1.31-4-4-4-4.79-.42,0-.3-2.94-.68-4.21a12.23,12.23,0,0,1-.67-4.21c-.42,0-2.38-3.43-2.21-3.55C531.19,470,530.92,466.22,529.79,462.84Z" transform="translate(-205.67 -101.36)" fill="none" stroke="#fff" stroke-miterlimit="10" stroke-width="1.64"/>
  <path d="M332.44,152.07c-.67,1-3.09.15-3.45.39-.13.09-.29.4-.22.55.3.52-4.48,4.64-4.63,4.71-.41.34-2.95,2.79-3.8,3.61-.56.42-2.58,8.25-2.79,8.42-1.2.42-2.31,0-3.62-.31-1.09-.18-1.94,5.41-1.57,6.08s1.57.9,2,1.46c.68,1.18-1.3,5.41-1.66,6.29-1.2-.23-7.07-2-8.45-2.41-.82-.2-.93,3.88-1.23,4.92a41.48,41.48,0,0,1,4.91,3.81c.22.74-2.75,5.47-3.13,5.44a2.49,2.49,0,0,1-2.1-.85c-1.06-1.21-1-2.88-1.88-4.26-.37-.67-1.42-1-2.22-1.55l-2.3-2.21c-.74,1.32-7.28,8.18-7.23,11.39.58,2.26.91,4.36,2.25,6.22.17,2.38-5,5.95-5,5.95-2.68,4.5-2.45,9.53-5.27,12.86-1.55,1.52-25.45,14-26.28,14-4.26,1.93-7.33,5.57-11.6,7.92-1.7.78-20.56,12.6-21.25,13.55-1.92,1.89-6.7,6.31-6.75,6.42-1.31,2.76-5.07,2.62-7,3.33a6.05,6.05,0,0,0-.83,7.13A12.27,12.27,0,0,1,209,279c-1.58,3.88-1.72,7.64-1.77,11.29.74.14,2.53,8.16,3.93,11.29,1.74,2.42,4.6,4.21,5.78,6.74,2,.94,1.08,3.83,1,5.92-.46,1.23-3.39,1.12-3.39,1.12-1.68.36-5.44.22-5,.65,2.38,3.43,8.12,6.58,10.05,10.84,1.16,2.55,4.46,3.51,5.62,6.06,1.55,3.41,8.31,12.45,9.5,14.17.79,1.29-.13,3.34.83,4.72.24.35,4.72,14.32,5.67,15.87-.17.15,2.3,1.08,2,2,2.34-.41,3.84,4.25,3.84,4.25.72,2.95,2.09,10.95,2.46,12.22a25.65,25.65,0,0,1,.37,12.57l-4,2.37-.73,1.63c.27.2-.92,2.05-.51,2.49,0,.42-.48,1.65-.07,2.22.4-.12,7.69,6.43,7.69,6.43,1.6,1.74,10.78,2.5,12.86,2.72,4.63-.8,12.31-4.69,12.33-5.11,2.55-1.16,8.21-7.21,8.67-8,1.71-1.19,7.29-4.74,9-5.52,3.84-1.95,7.18-3.72,11.46-4.16,5.87-.62,9.22-.49,13.88-.74,2.9-.72,6.27-1.43,8.06-4a75.49,75.49,0,0,0,3.91-9.26c.71-2.61,7.05-4.46,7.07-4.89,2.12-.75,3.43-2.37,5.15-3.56,6-2.7,11.84-3.32,17.4-6.46.42,0,15.31-6.52,15.72-6.51,3.39-1.13,7.18-1.82,10.59-3.36s7.57-1,11.29,0c2.91.53,4.92,2.7,7.47,3.43,1.17.25,9.05,2.21,12.14,2.88,1,.75,2.31.38,3.55.84,1.22.88,1.57,2.57,3.11,2.78.12.27,6.44,10.13,11.46,13.71.25.81,2.58,7.8,3.3,8.46a12.34,12.34,0,0,0,4.27,5.33s3.37-5.18,5-7.07c.57-1,3.68-6.71,5.23-8.16.2-.58,1.92-1.76,1.72-1.73,1.57-3.32,5-4.87,6.36-8.17.46-1.23,4.35-4.43,4.21-4.74.43,3.67-.16,8.24-.15,12.28-.21,1.4-2.77,2.56-2.17,3.73-1.11,1.31-.74,2.58-1.08,4.19-.16.47,1.08.93,1.08.78a8.44,8.44,0,0,1-.8,3.39c-2.28.83-1.53,2.95-3.65,3.7l-.05,1.26c2.06.91,5.1-1.9,6.53.44a3.37,3.37,0,0,1,.77-1.64c1.17-1.41-.44-3.14,1.06-3.79,2.32-.88,2.42-3.39,3.2-5.71.55.28.15-.15-.41-.38,2.62,1.14,2.09,4.05,3.63,5.52h0c.48.28.89.71.39,1.28-1.27,1.88-1.34,3.55-.62,4.67-1.21,1-3,3-3.59,3a7.62,7.62,0,0,0,2.7,2c1.61.16,3.36-1.87,4.74-1.47,1.08.95,2.75,1,3.73,2.08-.2.22,3.19,8.45,3.8,14.32.43-.4,1.43,8.27,2.62,10s1.52,3.82,3.6,4.32a80.81,80.81,0,0,1,10.66,5.13c1.7-.06,3.38-.41,4.85-.4,1.86.53,8.77,5.82,10.46,5.46,2.95-.72,6.26.24,9.23-.9,1.7-.78,7-6.85,8.19-6.39-.49,2.08,4.41,5.19,5.23,5.64.42,0,8.72,1.59,9.86,3.18.49-.28.07-.29,0,0,4.21.7,8.26-6.68,8.69-7.07,3-.73,6.33-1.44,9.24-.91,3.32.54,6.66.67,9.87.93,1-.1,5.18-2.72,5.18-2.72a13.73,13.73,0,0,0,6.95-6.85c3.66-8.22,1.56-7.88,8.91-14.3,3-2.81,2-7.45,3.78-11.15,4.46-7.36,9.12-8.85,15.62-14.88a170.19,170.19,0,0,1,9.81-15.94c-.54-8,2.27-15.82,7.12-22.32.24-6.27.91-12.93-2.63-18.93a10.94,10.94,0,0,1-.18-3.41c-.24-.5-.79-5.06-1.71-6.6,0,0-.14-13.48-3.21-20.71a52.26,52.26,0,0,1-3.84-20.23c-5.24-5.22-10.93-9.61-17-14.45a8.82,8.82,0,0,1-3.17-4.72c-1.48-5.08-2.56-9.72-3.62-14.78-3.27-1.8-5.44.21-9.61-.36a161.19,161.19,0,0,0-5.13-19c-2.23-7.2-8.75-12.05-14-17.27-4.17-.15-7.85-2.38-12-3.38-1.24-.46-8-20.8-9.7-30.9-.35-1.69-1.32-9.26-2.13-10.13-1.17-2.13-2.34-4.27-3.52-6.4l-5.71-3.57c-.1.23-11.26-1.44-11.39-1.75a13.33,13.33,0,0,1-1.26-3.87s-12.26-35.22-12-35.51c-.16.07-.18-.2-.27,0,.18-.45-1.54-2.57-1.6-2.72-.82-1.5-2.56-2-4.14-2.21-.33-.14-3.1,3.38-3,4.07.06.16-1.37,5.93-1.45,6.26-3.65,18.14-7.52,56.67-7.31,62.12,0,0-2.76,9.72-5.27,10.51-1.78.56-7.66-.54-7.66-.54-.55-.23-44.48-25.88-44.89-26.44-.35-.4-3.85-2-4.89-2.89-.86-.74-1.59-2.46-.51-3.18.35-.24,6.6-9.27,6.35-11.18.24.16-4-.55-2.15-3.9.36-.66,5.74-1.41,5.95-1.58.85-1.46,4.65-7.82,4.65-7.82.21-.17-.26-2-.22-2.12.45-.47.92-1.31.68-1.67-.79-1.22-3.69-3.31-3.81-3.62l-3.88-.39c-.28-.24-43.76-6.63-43.65-6.58-4.95-2.38-9.64,0-6.67,1.88-1.44-.93.1,5.32,3,5.41,1.56-1.3-3.12,6.75-4.88,6.93s-3.43-1.4-5.36-1.41l-2.53.27c0,.38-8,11.86-7.55,12.42a19,19,0,0,1,1.1,3.23c-.29.4-5.29,2.29-5.2,2.71-.17,2-4.47,6.84-4.34,7.79.14,1.87,1.93,2.86,3.55,3.65.45.18,0,4.13-.05,4.24-.18.44-16.78-1.29-18-1.25-.22-.09-7.37-4.76-8.66-5.41-1.79-1-2.92-3.58-5-3.79Z" transform="translate(-205.67 -101.36)" fill="none" stroke="#fff" stroke-miterlimit="10" stroke-width="1.64"/>
  <line x1="157.34" y1="59.26" x2="175.7" y2="257.53" fill="none" stroke="#fff" stroke-linecap="round" stroke-linejoin="round" stroke-width="1.64" stroke-dasharray="0 6.52 0 0"/>
  <polyline points="169.34 193.19 295.42 188.81 296.59 330.85" fill="none" stroke="#fff" stroke-linecap="round" stroke-linejoin="round" stroke-width="1.64" stroke-dasharray="0 6.52 0 0"/>
  <path d="M501.37,324.51l82.88,3.15s.56-1,4.24-2.34,10.51-3.13,13.58-2,6.64,2.72,8.1,5.33,2.56,1.09,3.63.14S618,327,618,327s-.94-2.64.13-3.34,4.67.91,6.24.24-3.56-2.39,1.56-.68,6.28-1.06,7.81-.36" transform="translate(-205.67 -101.36)" fill="none" stroke="#fff" stroke-linecap="round" stroke-linejoin="round" stroke-width="1.64" stroke-dasharray="0 6.52 0 0"/>
  <path d="M501.88,385.71a7.41,7.41,0,0,1,5.17.19c3,1.12,2.1-1.93,5.05.19s3.86,4.7,4.8,6.75,1.47,1.07,3.53.13,2.36,4.34,3.85,5,1.83,5.11,4.32,6.05a18.35,18.35,0,0,1,6.9,4.64c1.94,2.09,3.49,1.14,5,.19s-2.93-2.64,1.55-1,5,2,8,2.49,5.6-1.15,8.57.32,4.57-.58,7.07.32,4.92-1.89,3.94,2.47-3.43,5.93-.12,7.58,15.69,8.17,15.69,8.17" transform="translate(-205.67 -101.36)" fill="none" stroke="#fff" stroke-linecap="round" stroke-linejoin="round" stroke-width="1.64" stroke-dasharray="0 6.52 0 0"/>
  <text transform="translate(319.96 322.89)" font-size="12" fill="#46837a" font-family="OpenSans-Bold, Open Sans" font-weight="700">VIC</text>
  <text transform="translate(342.58 267.93)" font-size="12" fill="#46837a" font-family="OpenSans-Bold, Open Sans" font-weight="700">NSW</text>
  <text transform="translate(324.81 159.76)" font-size="12" fill="#46837a" font-family="OpenSans-Bold, Open Sans" font-weight="700">QLD</text>
  <text transform="translate(228.04 233.11)" font-size="12" fill="#46837a" font-family="OpenSans-Bold, Open Sans" font-weight="700">SA</text>
</svg>
