<svg xmlns="http://www.w3.org/2000/svg" viewBox="0 0 431.7718 393.375"><defs><style>.a{fill:#fff;}.b{fill:#8adaf9;opacity:0.6;}</style></defs><title>Basin-Aus-Map</title><path class="a" d="M1004.8369,645.4844a1.4954,1.4954,0,0,1-1.0049-.36,5.5139,5.5139,0,0,0-3.2929-.9717c-.253-.0224-.503-.0449-.7491-.0722-.0185.0195-.0371.04-.0566.06a1.8665,1.8665,0,0,1-1.1934.6641l-.1738.0137c-.7187.0625-2.0527.1709-2.5195-.9981a3.485,3.485,0,0,1-.2022-.998,1.8866,1.8866,0,0,0-.1816-.7813,1.3628,1.3628,0,0,1-.1025-1.3,2.7723,2.7723,0,0,1,2.0771-1.2158,8.5775,8.5775,0,0,1,1.0449-.0879,3.8426,3.8426,0,0,0,1.1533-.1553c1.8692-.7041,4.1983-1.5752,6.668-1.2148a.95.95,0,0,1,.7979.6474.9249.9249,0,0,1-.1436.8174.85.85,0,0,1,.1045.418,1.7925,1.7925,0,0,1,.9639-.0693l.7207.1621a1.7087,1.7087,0,0,1,1.5215-.4317,2.2013,2.2013,0,0,1,1.3994.8721,1.6325,1.6325,0,0,1,.2216,1.457,1.7957,1.7957,0,0,1-1.0976,1.1143,4.4836,4.4836,0,0,1-2.169.0928,4.7816,4.7816,0,0,0-1.24-.0537,1.9716,1.9716,0,0,0-.1474.4179,4.2181,4.2181,0,0,1-.1915.5625,2.6335,2.6335,0,0,1-1.7763,1.3623A2.0159,2.0159,0,0,1,1004.8369,645.4844Zm-5.25-1.4287.0117.0019Zm.0527-1.6358a1.177,1.177,0,0,1,.1631.0117c.2793.0352.5782.0616.8819.0889a7.0041,7.0041,0,0,1,4.1767,1.3262,1.0964,1.0964,0,0,0,.6866-.44,2.7179,2.7179,0,0,0,.1123-.3457,2.229,2.229,0,0,1,.8212-1.3447,1.4228,1.4228,0,0,1-.3994-.1035,1.44,1.44,0,0,1-.7871-.6612,1.0137,1.0137,0,0,1-.0752-.7265.9341.9341,0,0,1-.1562-.25l-.1367-.3252.0117-.0313a14.6772,14.6772,0,0,0-4.7246,1.1963,5.1451,5.1451,0,0,1-1.6641.2588,7.0271,7.0271,0,0,0-.8408.0674,2.6765,2.6765,0,0,0-.7451.2324,3.5356,3.5356,0,0,1,.3115,1.2891,2.2166,2.2166,0,0,0,.0928.55,4.53,4.53,0,0,0,.8623-.0274l.1914-.0156c-.0254-.0058.0732-.1074.1386-.1738A1.5289,1.5289,0,0,1,999.64,642.42Zm9.918-.8242a1.8445,1.8445,0,0,0,.6856-.084.1714.1714,0,0,0,.09-.083c-.0566-.0791-.1338-.15-.4307-.22-.0166.0146-.1464.125-.2314.1982-.0527.044-.1064.0889-.1611.1338Z" transform="translate(-745.1259 -344.3564)"/><path class="a" d="M1079.3477,737.7314l.038-.9687c.0157-.4092-.1074-.5352-.4033-.8369a2.49,2.49,0,0,1-.8047-2.4229,13.1494,13.1494,0,0,0-1.9277-2.1455,8.1672,8.1672,0,0,1-1.9-2.2334,5.0726,5.0726,0,0,1-.4668-2.3281,12.8781,12.8781,0,0,0-.2715-2.125,13.653,13.653,0,0,1-.7158-4.0752,14.6764,14.6764,0,0,1-2.168-3.5869,1.0788,1.0788,0,0,1-.042-.27c-.3339-1.4453-.581-2.9092-.8212-4.3252a42.7291,42.7291,0,0,0-1.3916-6.3164l-.2325-.6992.6719-.3047c2.1065-.9541,4.65-.4834,7.1094-.0264a17.2181,17.2181,0,0,0,5.6289.44l.1435-.0234.1436.0283c2.9766.585,7.8672,1.5293,8.3223,1.57l.1386.0215c1.1514.2832,2.0049-.1631,3.1895-.7783.4541-.2363.9267-.4805,1.4414-.6963l.1387-.0449c1.75-.3877,4.1162-.2891,5.1758.8564.7675.8262.7109,2.2471.6523,3.751-.0205.502-.0391.9815-.0234,1.4a.8331.8331,0,0,1,.17.9639l-.0274.0556c.4375,2.6162.6875,4.7559-.249,6.8614a23.8336,23.8336,0,0,0-1.583,4.8076c-.8486,3.3525-1.7266,6.8183-5.2412,7.9482-.4375.0967-.5606.3145-.8262,1.0781a2.9933,2.9933,0,0,1-1.7881,2.1631l-.2187.0508c-2.4473.4815-2.7383.9336-2.7715,1.0186l.2168,1.0429-1.06-.0732a39.7966,39.7966,0,0,0-7.2842.0976Zm-3.4463-9.1543a12.581,12.581,0,0,0,1.4941,1.6084c1.332,1.3028,2.2207,2.2188,2.4238,3.0606l.045.1826-.04.1846a.9643.9643,0,0,0,.33,1.166,2.84,2.84,0,0,1,.7461,1.1113,41.0055,41.0055,0,0,1,6.0576-.0556,1.7911,1.7911,0,0,1,.1231-.2178c.6406-.9649,2.21-1.39,3.8115-1.7051l.0488-.0088c.3506-.14.4883-.4472.7266-1.1338a2.7009,2.7009,0,0,1,1.9531-2.123c2.57-.83,3.2666-3.582,4.0732-6.7686a25.0689,25.0689,0,0,1,1.69-5.1054c.748-1.6827.5273-3.458.0322-6.376a.8765.8765,0,0,1-.0957-.3633l-.01-.2578-.3183-1.86.3623.3008.0029-.0888c.0352-.8936.0889-2.2442-.2168-2.5723-.4736-.5117-2.1162-.6865-3.5459-.3867-.4453.1914-.8564.4052-1.2519.6113a5.8446,5.8446,0,0,1-4.2842.9277c-.9229-.1162-6.3721-1.1816-8.2989-1.5605a18.821,18.821,0,0,1-6.038-.4688,13.5134,13.5134,0,0,0-5.4561-.33,50.7842,50.7842,0,0,1,1.2129,5.7919c.2432,1.4346.4941,2.918.832,4.3555l.0537.2285a16.5687,16.5687,0,0,0,1.64,2.6983l.5683.0195-.0322.8213a11.5778,11.5778,0,0,0,.6416,3.9424,13.3208,13.3208,0,0,1,.333,2.4629c.0283.36.0664.8466.1114,1.18l.3046.0117Zm-.0225-.0459Z" transform="translate(-745.1259 -344.3564)"/><path class="a" d="M1090.4639,682.3516l-.2325-.3223-.5126-.0859.0869-.4063c-1.4786-1.0976-7.9688-2.5215-9.0264-2.624l-.166-.0166-.17-.0811c-.0547-.0293-4.6856-2.6533-5.5508-5.2636a38.1011,38.1011,0,0,0-3.4912,3.0283,19.7083,19.7083,0,0,1-3.6455,3.0127,14.46,14.46,0,0,1-5.4825.6787,15.5863,15.5863,0,0,0-3.8935.2773c-1.2813.2666-3.5254-1.0713-7.0811-3.3037a30.0354,30.0354,0,0,0-3.7-2.1367,22.0583,22.0583,0,0,0-2.3125.1914c-.7685.0889-1.5644.1816-2.375.2119l-.2822.0108-.2295-.1651a81.6621,81.6621,0,0,0-10.44-5.0176c-1.7725-.4218-2.5244-1.8837-3.1875-3.1738a12.89,12.89,0,0,0-.83-1.456c-.7158-1.0362-1.2617-3.6729-1.9-7.0118-.1269-.66-.27-1.4091-.3965-1.998l-.292.2725-.1709-1.6348c-.416-3.9785-2.1709-9.1807-3.1132-11.9746-.3467-1.0264-.5538-1.6416-.6495-2.043a5.3044,5.3044,0,0,0-1.49-.7656,7.1647,7.1647,0,0,1-1.8242-.9356,4.4518,4.4518,0,0,0-1.6016.6338,5.1342,5.1342,0,0,1-2.8545.8858l-.2334-.0576a8.3563,8.3563,0,0,1-3.0371-2.2725l-.8877-1.1582,1.4512-.1553a17.73,17.73,0,0,0,1.544-1.3984c.3691-.3555.746-.7178,1.1064-1.0371a5.374,5.374,0,0,1,.97-4.9229l.0137-.02a1.4864,1.4864,0,0,0-.1387-.0918l.2315-.3994-.0479-.0693-.3369.3545a6.0828,6.0828,0,0,1-1.4141-2.6133,7.0247,7.0247,0,0,0-.789-1.7764q-.0528.1948-.1045.39c-.5156,1.9209-1.0479,3.9072-3.26,4.746-.1582.0684-.1982.086-.1211.85a3.3391,3.3391,0,0,1-.5771,2.6611c-.0293.042-.0645.0889-.1045.1406a2.3425,2.3425,0,0,0-.5069,1.1553l-.3779,2.1162-1.126-1.83c-.4648-.7539-1.1416-.6621-2.6835-.247a5.2338,5.2338,0,0,1-3.4834.1259l-.5079-.2246.09-2.3662.5234-.1865c.7285-.2578.9492-.7031,1.2842-1.377a4.0478,4.0478,0,0,1,2.07-2.21,9.5273,9.5273,0,0,0,.4981-2.1123,2.7653,2.7653,0,0,1-.6065-.4,1.1709,1.1709,0,0,1-.3965-1.1934,10.4831,10.4831,0,0,0,.1553-1.2969,5.3153,5.3153,0,0,1,.8184-2.8671c-.1221-.9434.6738-1.7579,1.2812-2.378a3.8,3.8,0,0,0,.9668-1.26c.001-1.4873.08-3.0577.1572-4.5772.0957-1.8975.1944-3.8428.1387-5.6308-.0693.0673-.1406.1376-.2148.21a16.69,16.69,0,0,0-2.55,2.8213,13.9148,13.9148,0,0,1-3.3789,4.4482,14.2886,14.2886,0,0,0-2.9278,3.6182,1.7613,1.7613,0,0,1-.665.794,7.5274,7.5274,0,0,0-1.11,1.0449l-.0654.1953-.1367.1064c-1.1992,1.1211-3.5733,5.3155-4.5869,7.1065-.2285.4043-.4034.7119-.502.8769l-.082.1133c-1.5723,1.83-4.9024,6.9326-4.9356,6.9844l-.4619.708-.6933-.4834a13.1278,13.1278,0,0,1-4.5059-5.5752c-.9619-1.3008-2.873-7.0762-3.2969-8.3809-4.5957-3.4091-10.0732-11.5615-11.2744-13.4873a4.0248,4.0248,0,0,1-2.1-1.7519,5.3234,5.3234,0,0,0-.8906-1.0225,5.6626,5.6626,0,0,0-1.25-.2051,4.7142,4.7142,0,0,1-2.2354-.6035c-1.9384-.4218-5.4521-1.2754-8.29-1.9648-1.7856-.4336-3.2353-.7861-3.686-.8828a14.6394,14.6394,0,0,1-3.4805-1.667,12.0043,12.0043,0,0,0-3.9658-1.7569c-4.7549-1.246-8.17-1.2636-10.8091-.0683a46.3029,46.3029,0,0,1-6.894,2.2871c-1.3174.3613-2.5621.7021-3.772,1.1045l-.14.0469-.03-.001c-.7041.2344-4.4976,1.8525-7.5684,3.1631-5.8545,2.497-7.4028,3.1386-7.9429,3.2978a46.9137,46.9137,0,0,1-9.645,3.7158,61.1548,61.1548,0,0,0-7.645,2.6846c-.521.3643-1.0049.7715-1.5156,1.2022a12.5767,12.5767,0,0,1-3.5518,2.34,7.4805,7.4805,0,0,1-1.54.7959c-1.57.6982-4.8365,2.1533-5.2354,3.6162a77.8377,77.8377,0,0,1-3.9536,9.3975l-.0708.1211c-1.8691,2.6289-5.1558,3.4375-8.0552,4.15l-.6352.1416c-1.5737.0839-2.9986.125-4.4209.167-2.728.0791-5.5493.1621-9.4195.5644-3.9306.4053-7.038,1.9824-10.6367,3.8076l-.5351.2715c-1.6421.751-6.9678,4.1377-8.7666,5.3711-.9912,1.3848-6.29,6.999-8.9292,8.1992l-.0059-.0137c-2.0073,1.751-9.68,4.6905-12.5166,5.1768l-.11.0186-.68-.0674c-7.7915-.7569-11.624-1.6289-12.8154-2.9141-2.8946-2.6006-6.2222-5.4756-7.1558-6.1142l-.2485.0732-.34-.4658a3.0265,3.0265,0,0,1-.16-2.3926c.0141-.0645.0278-.126.0395-.1807a3.2522,3.2522,0,0,1,.3716-1.9648c.0342-.0859.0757-.19.1133-.2891l-.14-.1045,1.104-2.4668,3.9478-2.3261a24.8716,24.8716,0,0,0-.4385-11.8311c-.1763-.6084-.5459-2.56-1.0141-5.03-.502-2.6484-1.07-5.65-1.4517-7.2021-.4033-1.2432-1.6694-3.8633-2.8989-3.6348l-1.3062.2325.3418-1.1534a5.4931,5.4931,0,0,0-1.14-.8086c-.4522-.2646-.77-.4511-.8662-.82-.6846-1.3222-2.3067-6.07-4.1924-11.66-.6421-1.9043-1.25-3.7061-1.3945-4.0537a4.9385,4.9385,0,0,1-.58-2.9307,3.5726,3.5726,0,0,0-.231-1.7627c-.209-.3008-.6582-.9209-1.24-1.7256-2.459-3.3994-7.0366-9.7266-8.3086-12.5351a8.0487,8.0487,0,0,0-2.5742-2.7276,9.3821,9.3821,0,0,1-3.0518-3.3379c-1.0439-2.3027-3.352-4.3213-5.5845-6.2724a27.0906,27.0906,0,0,1-4.3545-4.3916l-.3149-.34.1694-.5644c.2671-.6612.9395-.6973,2.9366-.8057a21.5992,21.5992,0,0,0,2.7231-.2529l.0982-.02.1015.0039a4.3977,4.3977,0,0,0,2.5493-.5274c.0249-.4248.0782-.8769.1328-1.3369.2256-1.8916.3-3.165-.6723-3.61l-.2744-.126-.127-.2735a13.6635,13.6635,0,0,0-3.0215-3.6748,22.6116,22.6116,0,0,1-2.6762-2.9394l-.0811-.1416a57.89,57.89,0,0,1-2.0508-6.1875,42.8086,42.8086,0,0,0-1.54-4.6812l-.4175-.081.0083-.6846c.0474-3.7886.2173-7.5107,1.7373-11.3769a12.2032,12.2032,0,0,0-1.5434-3.54,6.8833,6.8833,0,0,1,.91-8.1016l.14-.1591.1992-.0718a14.1829,14.1829,0,0,1,1.97-.4868c1.7915-.3575,3.8218-.7632,4.6079-2.4278.1109-.2055.1109-.2055,2.3726-2.3325,1.5512-1.459,3.4814-3.2744,4.5449-4.3193l0,0c1.6806-1.689,20.2656-13.1519,21.4907-13.7061a38.6333,38.6333,0,0,0,5.1729-3.6538,31.48,31.48,0,0,1,6.42-4.2705l.1753-.08.09.0034c2.3311-.729,24.625-12.5967,25.7822-13.7334,1.3423-1.5913,1.9561-3.7832,2.606-6.1035a25.9753,25.9753,0,0,1,2.5376-6.5947l.0908-.1528.1465-.1016c1.8872-1.3066,4.4678-3.6607,4.6186-5.02a15.1713,15.1713,0,0,1-1.9531-5.1885c-.0854-.3545-.1723-.7134-.2651-1.0757l-.0259-.19c-.04-2.4663,2.8765-6.2539,5.8682-9.9219.6718-.8237,1.3066-1.6021,1.4658-1.8848l.5181-.9209,3.0273,2.9029a7.88,7.88,0,0,0,.7866.4633,3.6665,3.6665,0,0,1,1.6172,1.3194,8.681,8.681,0,0,1,.8525,2.0893,5.2993,5.2993,0,0,0,.9327,2.0235,1.7043,1.7043,0,0,0,1.1967.5805,21.8377,21.8377,0,0,0,2.5474-4.3217,45.5319,45.5319,0,0,0-4.3521-3.3565l-.6562-.2856.18-.6949a14.4915,14.4915,0,0,0,.2231-1.496c.274-2.2691.4751-3.3877,1.1333-3.84a1.0445,1.0445,0,0,1,.8618-.1577c1.4014.4375,5.898,1.7725,7.7632,2.2485,1.5249-3.5649,1.5459-4.5957,1.4527-4.89a3.2718,3.2718,0,0,0-.5723-.3491,3.6279,3.6279,0,0,1-1.4019-1.0982c-.5668-1.01.1709-5.41,1.0752-6.6909a1.3,1.3,0,0,1,1.3086-.6518c.3067.0634.5738.1284.834.1919a5.1248,5.1248,0,0,0,2.04.24c.1479-.4595.4013-1.33.6313-2.12,1.4121-4.85,1.7974-5.855,2.2168-6.2237,2.313-2.227,3.5269-3.38,3.8189-3.6293l.1215-.0909a36.7588,36.7588,0,0,0,4.2046-4.0171,1.4782,1.4782,0,0,1,.584-1.1958,2.0739,2.0739,0,0,1,1.4888-.1206c.3921.05,1.5864.2012,1.7544-.0517l.125-.188,4.937-2.3643.2285.0225c1.57.1572,2.6514,1.3135,3.6055,2.334a7.8776,7.8776,0,0,0,1.74,1.5493c.8438.4287,4.0762,2.4961,6.4365,4.0059.877.561,1.7139,1.0961,2.0562,1.3081.7256.0273,2.5454.1865,5.6274.46,3.6778.3262,9.5635.8486,11.3819.86a19.8619,19.8619,0,0,0,.1333-2.9014c-1.4815-.7315-3.5557-1.8989-3.7354-4.1753-.0874-.6675.5068-1.5669,1.8589-3.5332.9917-1.4419,2.34-3.4028,2.478-4.3237-.04-.7686.86-1.1734,3.459-2.3423.5264-.2368,1.188-.5342,1.6108-.7447a15.7532,15.7532,0,0,0-.7851-2.3491c-.5025-.6679-.6343-.8437,5.3066-9.9072.9024-1.3765,1.833-2.7959,2.0713-3.2187l.0322-.5386,3.2227-.3438a7.9762,7.9762,0,0,1,3.1191.7779,6.0163,6.0163,0,0,0,2.3179.6289c.7564-.2,3.1646-3.69,4.0576-5.4331-1.6157-.5181-2.7461-2.37-3.26-3.9727a4.1948,4.1948,0,0,1-.229-2.1811,1.7864,1.7864,0,0,1-.2237-2.0489c.9649-1.7138,4.8208-2.2954,8.5367-.5078l-.02.0425c5.2294.5815,39.0483,5.6724,43.3959,6.5376l.0088-.0806,4.3584.4483.1446.3462c.1465.1445.5371.4707.8584.7387a16.6545,16.6545,0,0,1,2.9336,2.855c.4882.7315-.0225,1.7383-.5079,2.3643.0108.059.0235.1235.0362.1914.1963,1.0483.3222,1.7241-.0069,2.1572-.3886.6494-3.8134,6.376-4.6171,7.7505l-.1758.21c-.2237.191-.3916.2276-1.8545.5069a25.47,25.47,0,0,0-3.961.9565,1.7159,1.7159,0,0,0-.1718,1.586,1.77,1.77,0,0,0,.7138.6684l-.0527-.4985,2.1113,1.4043-.3037.5039c-.2881,2.831-6.24,11.2729-6.706,11.5859a.3878.3878,0,0,0-.1748.3408,2.25,2.25,0,0,0,.7627,1.5386,20.215,20.215,0,0,0,3.0009,1.7842,9.4831,9.4831,0,0,1,1.9239,1.1431c1.9326,1.4433,42.6084,25.1064,44.6005,26.2426,2.2159.4078,6.0069.899,7.1358.5406,1.2812-.3994,3.42-5.3882,4.6914-9.8316-.1621-6.2622,3.8223-44.7456,7.3369-62.1762.0186-.0894.1113-.47.2422-1.0108.3066-1.2593,1.1113-4.5649,1.1846-5.0908.0019-1.2808,2.5283-4.169,3.0722-4.5982a1.065,1.065,0,0,1,.919-.2685c1.7754.2915,3.709.8354,4.6787,2.6147.0215.0328.1016.14.206.2813a16.3018,16.3018,0,0,1,1.2178,1.8154l2.6485-1.0776-2.0352,2.3086c.7891,2.8608,7.418,22.1279,11.8945,34.9946l.0547.1567-.0107.1661a13.69,13.69,0,0,0,1.0283,3.17c1.416.36,8.3213,1.4209,10.2529,1.583l.1592-.3906,6.7256,4.1919,3.5889,6.5356c.6064.8193,1.0918,3.3218,1.8564,8.1133.1621,1.0161.2959,1.8569.3877,2.2944,1.6885,9.9839,7.9248,28.4932,9.2988,30.3311a41.4763,41.4763,0,0,1,4.503,1.477,23.1637,23.1637,0,0,0,7.1308,1.83l.32.0122.2266.2261c1.0273,1.0234,2.13,2.0571,3.1963,3.0571,4.4922,4.2105,9.1377,8.565,10.9931,14.5459a159.8884,159.8884,0,0,1,5.0235,18.5132,14.6115,14.6115,0,0,0,3.6347-.2319c1.8262-.2818,3.5528-.55,5.6924.6269l.33.1812.0772.3681c.873,4.1519,1.9834,9.147,3.6074,14.7159a7.9933,7.9933,0,0,0,2.8974,4.3144l1.835,1.4556a174.396,174.396,0,0,1,15.25,13.0537l.2539.2529-.0137.3584a51.0641,51.0641,0,0,0,3.7725,19.876c2.9238,6.8843,3.2422,19.0132,3.2734,20.8149a21.7675,21.7675,0,0,1,1.37,5.1465c.1055.5625.2256,1.2.2784,1.3477l.0605.167.0039.2226a9.7434,9.7434,0,0,0,.1094,3.0059c3.3008,5.582,3.0322,11.6875,2.7725,17.5908-.0254.5713-.0508,1.1387-.0723,1.7041l-.01.2539-.1513.2041c-4.9825,6.6846-7.4551,14.417-6.962,21.7754l.02.2949-.1729.2393c-3.3623,4.6523-9.1162,14.4189-9.6592,15.6182l-.01.2138-.2461.2276a78.9439,78.9439,0,0,1-6.1543,5.0654c-3.6162,2.7578-6.4727,4.9365-9.3272,9.6455a16.1358,16.1358,0,0,0-1.1435,4.5127c-.3779,2.4355-.7686,4.9531-2.7725,6.8125-5.1484,4.4932-5.4941,5.4775-6.64,8.7383-.4629,1.3183-1.0391,2.959-2.0781,5.2929a14.5143,14.5143,0,0,1-7.3311,7.253c-1.3516.8388-4.44,2.6924-5.4668,2.7939l-.0732.0069-.0733-.0059c-.7978-.0635-1.6045-.1191-2.416-.1748-2.4541-.169-4.99-.3438-7.5225-.7578-2.71-.4942-5.8574.1484-8.6386.8252-.0606.0908-.1465.2226-.252.38-1.3262,1.9873-4.7695,7.18-8.7383,6.8105Zm1.0527-2.1231.082.2588c2.795-.3174,5.6485-4.5937,6.6426-6.082a4.7751,4.7751,0,0,1,.5879-.8018l.1553-.1426.2051-.0507c3.0117-.7393,6.4814-1.4844,9.5839-.9151,2.4414.3994,4.9395.5713,7.3555.7373.7852.0537,1.5645.1074,2.3359.169a31.5148,31.5148,0,0,0,4.78-2.586l.1387-.0683a12.8475,12.8475,0,0,0,6.4775-6.3731c1.0313-2.3193,1.5948-3.9258,2.0479-5.2158,1.1894-3.3857,1.6338-4.6523,7.0888-9.4131,1.5684-1.456,1.8995-3.5879,2.25-5.8457a17.186,17.186,0,0,1,1.3272-5.0469c3.05-5.039,6.1641-7.413,9.7686-10.163,1.8593-1.418,3.7822-2.8838,5.9394-4.876a177.0027,177.0027,0,0,1,9.624-15.666,34.7714,34.7714,0,0,1,7.1494-22.3633c.0186-.4854.04-.9717.0616-1.46.25-5.665.5078-11.5234-2.586-16.7637a9.6257,9.6257,0,0,1-.3047-3.7226c-.08-.2754-.163-.71-.3066-1.4736a20.4854,20.4854,0,0,0-1.28-4.8125l-.1133-.19-.0019-.2207c-.001-.1338-.1768-13.4082-3.1484-20.4052a53.1333,53.1333,0,0,1-3.91-20.2129,176.3326,176.3326,0,0,0-14.8594-12.6787l-1.8437-1.4625a9.6155,9.6155,0,0,1-3.459-5.1918c-1.5752-5.3951-2.6758-10.292-3.543-14.3975a6.73,6.73,0,0,0-4.3262-.2759,15.0771,15.0771,0,0,1-4.6669.1734l-.5616-.0777-.125-.5527a163.6414,163.6414,0,0,0-5.1084-18.9258c-1.7382-5.5991-6.2226-9.8027-10.56-13.8682-.9991-.9365-2.03-1.9023-3.0088-2.8691a25.779,25.779,0,0,1-7.3155-1.9146,40.47,40.47,0,0,0-4.5234-1.477c-2.1143-.7832-8.9053-23.21-10.3174-31.5625-.0888-.42-.2285-1.29-.3965-2.3413-.3213-2.01-1.0722-6.7178-1.541-7.38l-.1-.1431-3.417-6.22-5.3056-3.3071c-.9551-.021-4.2539-.4951-6.1016-.78-5.4072-.8335-5.6211-.9941-5.8184-1.4438a15.0047,15.0047,0,0,1-1.3447-4.0977c-8.8242-25.3579-11.2793-32.706-11.8086-35.0107q-.0381-.0287-.0762-.063l.05-.0567a3.4333,3.4333,0,0,1-.0976-.6831l-.2832-.1132.001-.0025h-.001a.5324.5324,0,0,0-.0381.3062,9.4764,9.4764,0,0,0-1.2-1.8584,2.921,2.921,0,0,1-.3574-.5342c-.5674-1.0342-1.9229-1.4424-3.2363-1.6758a13.9307,13.9307,0,0,0-2.3252,3.2017,50.06,50.06,0,0,1-1.2295,5.4858c-.126.5171-.2149.8818-.2315.9575-3.7138,18.42-7.4961,56.8008-7.2988,61.9117l.0049.13-.0352.125c-.48,1.6958-3.0166,10.1988-5.8105,11.07-1.9229.6084-7.4326-.3995-8.0557-.5166l-.1611-.0479c-.3584-.1479-42.87-24.8413-45.1485-26.6211l-.01.0093c-.1592-.1338-.9268-.5386-1.542-.8643a19.838,19.838,0,0,1-3.3184-2.0019,3.8283,3.8283,0,0,1-1.3164-2.8638,2.0315,2.0315,0,0,1,.8281-1.5576c.8116-.9043,5.2413-7.582,5.9668-9.8731a5.4272,5.4272,0,0,1-.9023-.42c-1.6738-.9814-2.0674-2.68-1.0527-4.5429.3437-.6338,1.332-.9615,5.0332-1.6685.3945-.0752.8261-.1577,1.0879-.2148,1.0019-1.7012,3.9492-6.6285,4.4306-7.4331-.0166-.26-.12-.8116-.1679-1.0655-.1163-.62-.1514-.8076-.0352-1.0752l.0586-.1362.1025-.1064a2.4011,2.4011,0,0,0,.4942-.773,19.0792,19.0792,0,0,0-2.5225-2.3643c-.4482-.3754-.7334-.6152-.9209-.7949l-3.8613-.4345c-2.7725-.5674-37.4-5.648-42.6724-6.4112l-.07.25-.8789-.4228c-3.18-1.53-6.0044-.8657-6.3984-.1656-.0728.13.2133.41.5346.6192l.0034.0019-.8925,1.3746a.5755.5755,0,0,0,.726-.315,5.7591,5.7591,0,0,0,1.1978,3.1807,2.5547,2.5547,0,0,0,1.3437,1.0112.89.89,0,0,1,.9083.0127.9455.9455,0,0,1,.39,1.0825c-.26,1.1621-3.8408,7.28-5.8818,7.4986a7.2956,7.2956,0,0,1-3.0386-.7452,6.6934,6.6934,0,0,0-2.4185-.6616l-2.0073.2188c-.2881.4829-.8652,1.3691-2.03,3.1469-1.6606,2.5337-4.67,7.125-5.1757,8.3423a20.1224,20.1224,0,0,1,1.0268,3.1826l.0982.3746-.2266.3134c-.231.3194-.6592.5323-2.5537,1.3843-.7964.3579-2.0679.93-2.5342,1.2192-.24,1.1978-1.293,2.7994-2.7246,4.8809a17.5854,17.5854,0,0,0-1.5713,2.5166c.1631,1.3921,1.6162,2.2085,3.0952,2.9292a.9538.9538,0,0,1,.4878.5322c.3911.9317-.0132,4.4585-.1367,4.7578-.3189.7774-.3457.8409-13.0088-.2832-2.6084-.2314-5.3013-.4707-5.6831-.458l-.1772.0064-.1641-.0679c-.125-.0517-.208-.1-2.3975-1.5-2.2-1.4072-5.5244-3.5337-6.3213-3.9394a9.1211,9.1211,0,0,1-2.1694-1.877,5.2564,5.2564,0,0,0-2.3638-1.7895l-4.1269,1.976c-.7808.87-2.2051.689-3.1685.5674-.0678-.0088-.144-.0185-.2187-.0273a1.2291,1.2291,0,0,1-.0332.13c-.333,1.0552-3.9419,4.2442-4.88,4.9385l.0029.0034c-.2592.2217-1.52,1.4214-3.7485,3.5664a53.6519,53.6519,0,0,0-1.7773,5.4986c-.7984,2.7431-.813,2.7558-1.0552,2.9668l-.1211.105-.1519.0522a5.6209,5.6209,0,0,1-3.3042-.11c-.1557-.038-.3135-.0766-.4746-.1137a12.4146,12.4146,0,0,0-.9385,4.8286,2.9408,2.9408,0,0,0,.753.4946,3.2529,3.2529,0,0,1,1.1523.8526l.0567.0854c.6694,1.1621-.0909,3.4771-1.438,6.5947l-.4317,1.0386-.6587-.126c-1.1816-.2256-6.2465-1.7309-8.06-2.2841a19.9676,19.9676,0,0,0-.4009,2.4711c-.0508.4219-.0977.81-.1489,1.1368a32.0035,32.0035,0,0,1,4.7412,3.8623l.0361.0971c.4033,1.3457-2.7881,5.7173-2.8208,5.7593-.3027.3823-.6118.7251-1.0571.7378a3.3559,3.3559,0,0,1-2.7881-1.1851,6.6309,6.6309,0,0,1-1.2261-2.5708,7.3654,7.3654,0,0,0-.7-1.7446,2.66,2.66,0,0,0-.9814-.7051,8.6712,8.6712,0,0,1-1.0171-.6123l-.0835-.07-1.624-1.5566c-.2583.33-.5948.7441-1.0259,1.2724-1.9072,2.3389-5.4346,6.6636-5.4985,8.772.0849.335.1655.6665.2446.9946a13.1664,13.1664,0,0,0,1.8476,4.8428l.1338.187.0171.229c.1948,2.59-3.9868,5.7388-5.1748,6.5777a25.27,25.27,0,0,0-2.2793,6.0483c-.6992,2.4971-1.36,4.856-2.9839,6.7754-.9931.98-23.1264,13.1089-26.5732,14.1851l.0015.0029a29.8228,29.8228,0,0,0-6.0787,4.063,39.5963,39.5963,0,0,1-5.457,3.8335c-1.6142.7329-19.916,12.1992-21.02,13.3476-1.1318,1.12-3.0693,2.9424-4.6265,4.4063-.8921.8393-1.8115,1.7036-2.0747,1.9634-1.1357,2.2973-3.6679,2.8032-5.7075,3.21-.564.1128-1.1011.22-1.5352.3545a5.2179,5.2179,0,0,0-.6079,6,12.9521,12.9521,0,0,1,1.8042,4.3965l.0249.2094-.0791.1954a28.3881,28.3881,0,0,0-1.6967,10.6352c.4629.6367.9213,2.0825,1.8774,5.3208a60.3119,60.3119,0,0,0,1.9409,5.9058,21.9335,21.9335,0,0,0,2.44,2.6533,16.0028,16.0028,0,0,1,3.2363,3.8984c1.83,1.0518,1.56,3.3164,1.3413,5.1524-.0576.4834-.1147.957-.1313,1.3935l-.0523.2578c-.6113,1.6231-3.3149,1.6768-4.0869,1.66a23.876,23.876,0,0,1-2.8726.2646c-.2529.0137-.5395.0293-.813.0469A36.9876,36.9876,0,0,0,753.76,562.65c2.3632,2.0674,4.8076,4.2041,5.9975,6.83a8.06,8.06,0,0,0,2.5733,2.7265,9.3882,9.3882,0,0,1,3.0537,3.3389c1.2041,2.6592,5.8911,9.1377,8.1435,12.251.5918.8183,1.0479,1.4492,1.2847,1.792a4.7082,4.7082,0,0,1,.4971,2.6816,3.5544,3.5544,0,0,0,.3266,2.0283,35.974,35.974,0,0,1,1.5625,4.4073c1.3125,3.8916,3.4951,10.3613,4.1084,11.4589.063.0381.1406.0821.2261.1319a4.7582,4.7582,0,0,1,1.8,1.5156c2.45.36,3.792,4.3223,3.9507,4.8174.4072,1.6494.98,4.6738,1.4858,7.3428.4234,2.2343.8238,4.3457.9844,4.9013a26.3383,26.3383,0,0,1,.3745,12.9824l-.081.3389-4.1006,2.416-.5118,1.1436a3.5219,3.5219,0,0,1-.3256,1.1767,7.3216,7.3216,0,0,0-.295.833l.08.086-.0141.34a4.258,4.258,0,0,1-.1021.6241,4.6358,4.6358,0,0,0-.1343.9824c.8824.5254,2.7852,2.0879,7.586,6.4072.6352.6807,3.15,1.6064,11.8252,2.4492l.4619.0459a43.5368,43.5368,0,0,0,11.5478-4.64l.0064-.1729.46-.209c2.3765-1.08,7.86-6.9384,8.2984-7.6923l.0918-.1573.1567-.1162c1.7437-1.21,7.3565-4.7842,9.1157-5.5889l.5049-.2568c3.5879-1.8193,6.9771-3.5391,11.209-3.9756,3.93-.4092,6.7822-.4922,9.5405-.5722,1.3863-.0411,2.7749-.0811,4.3042-.1622l.4082-.1005c2.7271-.67,5.5459-1.3633,7.0713-3.4532a76.1453,76.1453,0,0,0,3.8325-9.1c.5435-1.998,3.33-3.3886,6.1363-4.6377.3115-.1386.6753-.3007.9126-.4179l.0063-.1582.5215-.1856a10.6919,10.6919,0,0,0,3.2622-2.13c.5366-.4521,1.0918-.92,1.7-1.34l.127-.0713a61.8479,61.8479,0,0,1,7.9169-2.792,44.4789,44.4789,0,0,0,9.4112-3.63l.2026-.1142.1153.0048c.7138-.2373,4.5678-1.8818,7.6879-3.2119,6.1788-2.6367,7.4869-3.1728,7.9219-3.2763,1.2344-.4073,2.5371-.7647,3.7984-1.11a45.158,45.158,0,0,0,6.6518-2.1992c3.9409-1.7871,8.645-.8779,11.8394-.0371a13.3534,13.3534,0,0,1,4.4487,1.9463,13.279,13.279,0,0,0,3.0391,1.4863c.4018.084,1.8691.44,3.6767.88,2.9058.7051,6.522,1.584,8.4024,1.9883l.1674.0361.1387.1a3.0541,3.0541,0,0,0,1.5757.4043,6.5658,6.5658,0,0,1,1.7856.34l.1914.1025a6.2561,6.2561,0,0,1,1.337,1.4443c.5205.7051.8418,1.1074,1.4052,1.1846l.4551.0615.1846.4209c.3779.68,6.5039,10.0381,11.1836,13.3721l.2246.16.082.2627c.5645,1.8116,2.55,7.4678,3.0987,8.12l.123.1132.0469.13a11.8208,11.8208,0,0,0,3.3174,4.4932c.9863-1.4893,3.2412-4.8447,4.538-6.3721.0987-.168.253-.4394.4483-.7851,1.7646-3.1182,3.56-6.1582,4.7744-7.3809a6.3408,6.3408,0,0,1,1.5078-1.5283c.0723-.06.1367-.1123.1895-.1553a15.4419,15.4419,0,0,1,3.291-4.1553,12.4929,12.4929,0,0,0,3.0117-3.8906,13.5819,13.5819,0,0,1,2.9277-3.39c.4366-.4258.961-.9375,1.1973-1.2071l-.5879-5.0771,2.1807,4.9131a.8624.8624,0,0,1,.0879.4423,51.4251,51.4251,0,0,1-.02,7.6055c-.0772,1.5244-.1563,3.1016-.1553,4.5684l-.0088.123a4.3463,4.3463,0,0,1-1.4248,2.2071c-.2852.2919-.8164.8359-.8233,1.0351l.2471.4854-.3506.4131a3.5091,3.5091,0,0,0-.7109,2.2919c-.0293.3809-.0615.8057-.1387,1.26a1.0687,1.0687,0,0,0,.2442.1016.6366.6366,0,0,0-.2666.02c-.0088.0508-.02.1025-.03.1533l-.0264.0977a.55.55,0,0,0,.0274-.2413.7576.7576,0,0,0-.2393.128l.4883.62.8467.0273-.0371.54a8.0311,8.0311,0,0,1-.9561,3.3506l-.1416.17-.209.0762a2.4212,2.4212,0,0,0-1.4482,1.5117,3.9589,3.9589,0,0,1-1.6787,1.9629l-.003.081a6.2942,6.2942,0,0,0,1.8838-.3262,4.7991,4.7991,0,0,1,3.4492-.0566,4.0227,4.0227,0,0,1,.37-.5537l.1181-.1592c.3242-.3877.3-.8144.2324-1.4785a2.1378,2.1378,0,0,1,1.1377-2.5342c1.3907-.5273,1.7754-1.7305,2.29-3.6513.1386-.5176.2812-1.0459.456-1.5645l.3028-.8975.3154.16.06-.1416a3.4555,3.4555,0,0,1,.4229.207,5.6256,5.6256,0,0,1,2.4687,3.5176,5.0117,5.0117,0,0,0,.9356,1.8984,2.1642,2.1642,0,0,1,.7168.6846l.0644.0615-.0205.0147a1.4192,1.4192,0,0,1,.1524.4472,1.4854,1.4854,0,0,1-.375,1.22c-.9678,1.4433-1.1826,2.8037-.5889,3.7392l.3984.627-.5849.457c-.4365.3428-.9756.8613-1.4961,1.3613-.5186.4991-.9375.8965-1.2949,1.1934a7.2832,7.2832,0,0,0,1.5888,1.042,4.6028,4.6028,0,0,0,1.8086-.7012,4.02,4.02,0,0,1,2.9668-.7461l.1748.0508.1368.12a5.2266,5.2266,0,0,0,1.5283.794,5.7758,5.7758,0,0,1,2.2685,1.3467l.502.5468-.2266.253c.1113.374.332,1.0263.5469,1.663a66.65,66.65,0,0,1,3.1514,11.9825,13.95,13.95,0,0,1,.8779,3.5683c.4228,2.211,1.0635,5.5537,1.6387,6.3867a14.2721,14.2721,0,0,1,.94,1.64c.6836,1.33,1.1221,2.0957,2.1758,2.3476a81.9832,81.9832,0,0,1,10.6963,5.0987c.666-.0371,1.3408-.1153,1.9961-.1914a23.3762,23.3762,0,0,1,2.6347-.2022l.22.0313a22.8886,22.8886,0,0,1,4.2188,2.3564c1.7754,1.1162,5.1123,3.1856,5.8516,3.0928a17.1894,17.1894,0,0,1,4.2646-.3174,12.9725,12.9725,0,0,0,4.8359-.5508,23.1053,23.1053,0,0,0,3.1582-2.6982c3.1377-2.9385,4.5206-4.0889,5.6124-3.6885l.6767.2539-.167.7031c-.2656,1.1172,2.89,3.6426,4.7158,4.6651,1.3243.2246,7.4756,1.3613,9.67,2.9365.0283-.0029.0576-.0059.0869-.0068ZM816.2388,653.9268Zm194.9546-30.1-.0039.0069a.7953.7953,0,0,0-.1006.24Zm-164.6275-191.16v0Zm61.166-32.8443a.7581.7581,0,0,0,.0894.0435Zm-2.3486-4.4638.0034.041C905.3862,395.3882,905.3853,395.3745,905.3833,395.3594ZM987.63,367.2686l.0068.01Zm66.4707-17.03.1855.4555a.7622.7622,0,0,0,.2051-.21l-.1846-.1626Z" transform="translate(-745.1259 -344.3564)"/><path class="b" d="M1109.2589,514.4137c-1.787.04-2.7359,2.9263-4.0314,4.0476-2.1412,1.2594-4.1488-.91-5.8137-1.3477.0133-.0425-.4385.7785,0,0-2.09.2965-2.17,2.3865-3.1583,1.8173-.749,2.1754-.3949,3.8611-1.2784,5.0865-1.2842.786-2.9073-.5323-3.9358.0018-1.5739,1.88-1.233,3.9832-1.6,5.968-1.0455,2.143-3.5986,3.3014-3.97,5.7417a3.9428,3.9428,0,0,0-.0681,1.9035c-1.5171,3.1081-2.8657,5.5694-3.8657,7.6614.4877.3967.07.38,0,0,.84,2.0861-.4915,4.126-.2595,5.0843.107,1.1449.9091,2.0143.96,2.8979-.9792,1.5909-3.0863,1.9282-4.3733,2.9282-2.2292,3.469-1.1165,7.2769-2.0957,11.0013-.0474,1.2547-2.57,1.575-3.48,2.5872a67.1685,67.1685,0,0,0-6.7246,12.5554c-.4234.3484-2.5267.6858-3.2218,1.697-1.1184,2.6887-4.0749,3.4121-5.6791,5.1272-1.3978.2642-3.4708-.2331-4.5892.5824-2.75,1.9622-4.9207,3.9755-5.5277,6.9208-1.6866,2.4043-3.8524,4.412-5.9595,4.7528-2.5219.32-5.4121-.6258-7.881-1.8417-.8248-.1658-1.7273,1.478-2.7889,2.0842-.6553.5787-1.1042,1.4016-2.324-.248-2.1525,2.3571-4.3524,5.2027-6.9036,6.6639-.4991,1.7683-.627,5.1091.7718,7.1955-.2387.4649-.2254.0529,0,0-1.0616.019-.3987,4.6421-1.1582,4.572,1.3883,5.5373,1.97,12.25-3.5077,15.6987a3.4444,3.4444,0,0,0-.2093,3.0276c.4214.0168,2.4935.516,4.16.5812,2.0578.914,3.5551,5.5713,3.6981,5.3923a5.8085,5.8085,0,0,0-.1885,1.4291c1.286-.7852,1.1582,2.555,3.2132-.1184-.2756-.1847-.6781-.6184,0,0-.6146-2.29,1.8921-2.1922.4687-4.2227,1.985-1.715,7.9274-4.0011,9.11-4.9112a3.3477,3.3477,0,0,1,2.52.1251c1.7131,1.4062,2.05,3.5152,2.6611,4.6148.3741,6.0476,3.1223,10.7533,4.6489,16.1047,3.7255-.5494,5.2577,3.2747,8.2181,4.8307,6.1337,1.2973,12.8792-.1214,18.8425,1.7528.2548-.3788-.1638-.3959,0,0,1.072.0682,9.3015,3.7283,9.3167,3.2937,2.9395-.2934,5.8468.2376,8.1953-.6118-.2111-.3218-.6146-.7556-.8551-1.2,1.5569-1.1791,2.4063-1.5664,3.1526-2.9992,1.4252-.5768,3.0806-.0966,3.9746-1.2189,1.13,2.8753,4.038,3.4045,6.58,2.6612.43-.4053,3.8817-3.1962,3.85-3.183.4972-1.2556-.26-3.3742,1.054-3.3182,1.2737-2.0485,4.0153-8.2211,2.9528-9.1727a24.6351,24.6351,0,0,1,5.4235,7.3952c-.0152.4166,4.0825,2.6648,4.3373.9583.3352-2.8789-.0019-4.98.2017-6.8544.8173-3.1071,2.0522-13.5156,1.8751-15.36-.1146-1.5123,3.8022-5.5486,4.9983-3.9009-.42.0551-.8249-.3833,0,0,.1733-4.5246-1.7406-9.1953.8788-12.0287,1.3106-1.6194,1.4053-4.13,1.4432-5.94-.36-.7084-2.4338-1.2055-2.8041-2.4764-.6875-3.7853,3.18-6.57,5.986-6.8716,5.5305,1.036,9.8357-2.1467,14.5924-3.45.45-3.5182.1752-7.2967.61-10.5941.5369-.4264,2.4357-6.2143,4.59-7.8045-.8087-.8645,1.3268-2.0427,1.9528-2.4611,1.6534-4.5136-1.43-11.3216,3.7208-14.8918.8513-.3863.93-2.4743.5738-3.8865a93.2475,93.2475,0,0,1-2.3012-9.4254c-1.7964-3.9719-4.5759-7.8376-7.8582-9.6414-2.89-.9452-6.184-2.3277-8.4984-2.5363-3.1469.8393-5.2673,1.5967-7.7608,1.0843-.4024-.4355-1.1856-1.72-.4763-2.5908-2.7814.3759-4.4083-.9424-6.4983-1.0228.0132-.4167-2.3448-4.2729-4.4993-4.5029.5938-2.7551.304-6.114.78-8.9806-.3-1.7274-1.91-3.4574-3.4746-4.54-.9082.1468-1.7311-.3041-2.2132-.1771-3.2917.15-5.4926,2.9982-7.1555,1.749-1.985-1.8228-1.4707-4.3126-1.3239-5.2464" transform="translate(-745.1259 -344.3564)"/><path class="a" d="M919.67,598.3193v-.09h0a.8049.8049,0,0,1,.74-.8h0a.8055.8055,0,0,1,.89.74h0c0,.02.01.05.01.08h0a.8309.8309,0,0,1-.75.81h-.07A.8237.8237,0,0,1,919.67,598.3193Zm-.6-6.4892v-.09h0a.8128.8128,0,0,1,.74-.8007h0a.8118.8118,0,0,1,.89.74h0c0,.03.01.05.01.08h0a.8228.8228,0,0,1-.75.8095h-.08A.8212.8212,0,0,1,919.07,591.83Zm-.6-6.49v-.08h0a.8145.8145,0,0,1,.74-.81h0a.8182.8182,0,0,1,.89.7393h0v.08h0a.8151.8151,0,0,1-.74.8106h-.08A.8151.8151,0,0,1,918.47,585.34Zm-.6-6.49v-.08h0a.8145.8145,0,0,1,.74-.8095h0a.8187.8187,0,0,1,.89.74h0v.09h0a.8052.8052,0,0,1-.74.8h0a.1729.1729,0,0,1-.07.01h0A.8249.8249,0,0,1,917.87,578.85Zm-.6-6.48v-.09h0a.8058.8058,0,0,1,.74-.8008h0a.8113.8113,0,0,1,.89.7305h0v.09h0a.8217.8217,0,0,1-.74.81h-.08A.8212.8212,0,0,1,917.27,572.37Zm-.6-6.49c0-.03-.01-.0606-.01-.09h0a.8212.8212,0,0,1,.75-.8h0a.8114.8114,0,0,1,.89.7393h0v.08h0a.815.815,0,0,1-.74.81h-.08A.8151.8151,0,0,1,916.67,565.88Zm-.6-6.49a.2549.2549,0,0,1-.01-.08h0a.8226.8226,0,0,1,.75-.81h0a.8186.8186,0,0,1,.89.74h0v.0791h0a.8144.8144,0,0,1-.74.8106h-.08A.8076.8076,0,0,1,916.07,559.39Zm-.6-6.49a.2244.2244,0,0,1-.01-.08h0a.8226.8226,0,0,1,.75-.8095h0a.8182.8182,0,0,1,.89.74h0v.09h0a.8118.8118,0,0,1-.74.8h0a.2249.2249,0,0,1-.08.01h0A.8084.8084,0,0,1,915.47,552.8994Zm-.61-6.48v-.09h0a.8309.8309,0,0,1,.75-.8106h0a.8188.8188,0,0,1,.89.74h0v.09h0a.8046.8046,0,0,1-.74.8h0a.2042.2042,0,0,1-.08.0108h0A.8244.8244,0,0,1,914.86,546.42Zm-.6-6.49v-.08h0a.8148.8148,0,0,1,.75-.81h0a.8245.8245,0,0,1,.89.74h0v.08h0a.8159.8159,0,0,1-.75.81h-.07A.8243.8243,0,0,1,914.26,539.93Zm-.6-6.49v-.08h0a.815.815,0,0,1,.74-.81h0a.834.834,0,0,1,.9.74h0v.08h0a.823.823,0,0,1-.75.81h0c-.02,0-.05.01-.07.01h0A.8256.8256,0,0,1,913.66,533.44Zm-.6-6.49v-.08h0a.8137.8137,0,0,1,.74-.8095h0a.8183.8183,0,0,1,.89.74h0a.2813.2813,0,0,1,.01.09h0a.8211.8211,0,0,1-.75.8h0a.1984.1984,0,0,1-.08.01h0A.822.822,0,0,1,913.06,526.95Zm-.6-6.48v-.09h0a.8217.8217,0,0,1,.74-.81h0a.82.82,0,0,1,.89.75h0a.1984.1984,0,0,1,.01.08h0a.83.83,0,0,1-.75.81h-.07A.8244.8244,0,0,1,912.46,520.47Zm-.6-6.49v-.09h0a.8123.8123,0,0,1,.74-.8h0a.8188.8188,0,0,1,.89.74h0c0,.02.01.05.01.08h0a.8319.8319,0,0,1-.75.81h-.07A.8239.8239,0,0,1,911.86,513.98Zm-.6-6.49v-.08h0a.8146.8146,0,0,1,.74-.81h0a.8189.8189,0,0,1,.89.74h0c0,.03.01.06.01.08h0a.832.832,0,0,1-.75.81h-.08A.807.807,0,0,1,911.26,507.49Zm-.6-6.49v-.08h0a.8149.8149,0,0,1,.74-.81h0a.8189.8189,0,0,1,.89.74h0v.09h0a.8126.8126,0,0,1-.74.8h0a.2134.2134,0,0,1-.08.01h0A.8232.8232,0,0,1,910.66,501Zm-.6-6.49v-.08h0a.8221.8221,0,0,1,.74-.81h0a.8188.8188,0,0,1,.89.74h0v.09h0a.8221.8221,0,0,1-.74.81h-.08A.8221.8221,0,0,1,910.06,494.51Zm-.6-6.48a.2635.2635,0,0,1,0-.09h0a.8047.8047,0,0,1,.74-.8h0a.8121.8121,0,0,1,.89.74h0v.08h0a.8145.8145,0,0,1-.74.81h-.08A.8146.8146,0,0,1,909.46,488.03Zm-.6-6.49a.2423.2423,0,0,1-.01-.08h0a.824.824,0,0,1,.75-.81h0a.8187.8187,0,0,1,.89.74h0v.08h0a.8147.8147,0,0,1-.74.81h-.08A.8145.8145,0,0,1,908.86,481.54Zm-.6-6.49a.2236.2236,0,0,1-.01-.08h0a.8232.8232,0,0,1,.75-.81h0a.8185.8185,0,0,1,.89.74h0v.09h0a.8123.8123,0,0,1-.74.8h0a.2263.2263,0,0,1-.08.01h0A.8086.8086,0,0,1,908.26,475.05Zm-.6-6.48a.281.281,0,0,1-.01-.09h0a.83.83,0,0,1,.75-.81h0a.8191.8191,0,0,1,.89.74h0v.09h0a.8053.8053,0,0,1-.74.8h0a.2416.2416,0,0,1-.08.01h0A.8081.8081,0,0,1,907.66,468.57Zm-.61-6.49v-.09h0a.8136.8136,0,0,1,.75-.8h0a.8117.8117,0,0,1,.89.74h0v.08h0a.8149.8149,0,0,1-.74.81h-.08A.8239.8239,0,0,1,907.05,462.08Zm-.6-6.49v-.08h0a.815.815,0,0,1,.74-.81h0a.8279.8279,0,0,1,.9.74h0v.08h0a.8148.8148,0,0,1-.75.81h-.07A.816.816,0,0,1,906.45,455.59Zm-.6-6.49v-.08h0a.8146.8146,0,0,1,.74-.81h0a.8336.8336,0,0,1,.9.74h0v.09h0a.8209.8209,0,0,1-.75.8h0c-.02,0-.05.01-.08.01h0A.8229.8229,0,0,1,905.85,449.1Zm-.6-6.48v-.09h0a.8217.8217,0,0,1,.74-.81h0a.819.819,0,0,1,.89.74h0a.2835.2835,0,0,1,.01.09h0a.8207.8207,0,0,1-.75.8h0a.1647.1647,0,0,1-.07.01h0A.824.824,0,0,1,905.25,442.62Zm-.6-6.49v-.09h0a.8124.8124,0,0,1,.74-.8h0a.8122.8122,0,0,1,.89.74h0a.1912.1912,0,0,1,.01.08h0a.8312.8312,0,0,1-.75.81h-.07A.8239.8239,0,0,1,904.65,436.13Zm-.6-6.49V429.56h0a.8142.8142,0,0,1,.74-.81h0a.8187.8187,0,0,1,.89.74h0c0,.03.01.05.01.08h0a.8319.8319,0,0,1-.75.81h-.07A.8163.8163,0,0,1,904.05,429.64Zm-.6-6.49v-.08h0a.8149.8149,0,0,1,.74-.81h0a.8184.8184,0,0,1,.89.74h0a.2654.2654,0,0,1,0,.09h0a.8118.8118,0,0,1-.74.8h0c-.03,0-.05.01-.08.01h0A.8229.8229,0,0,1,903.45,423.15Zm-.6-6.49v-.08h0a.822.822,0,0,1,.74-.81h0a.82.82,0,0,1,.89.75h0v.08h0a.8221.8221,0,0,1-.74.81h-.08A.8156.8156,0,0,1,902.85,416.66Zm-.6-6.48v-.09h0a.8116.8116,0,0,1,.74-.8h0a.805.805,0,0,1,.89.74h0v.08h0a.8145.8145,0,0,1-.74.81H903.06A.8146.8146,0,0,1,902.25,410.18Zm-.6-6.49a.8187.8187,0,0,1,.74-.89h0a.8189.8189,0,0,1,.89.74h0a.8188.8188,0,0,1-.74.89h-.08A.8145.8145,0,0,1,901.65,403.69Z" transform="translate(-745.1259 -344.3564)"/><path class="a" d="M1040.89,674.1494a.818.818,0,0,1,.8106-.83h0a.8254.8254,0,0,1,.83.8106h0a.8306.8306,0,0,1-.8106.83h-.01A.8158.8158,0,0,1,1040.89,674.1494Zm-.06-6.5195a.8315.8315,0,0,1,.8193-.83h0a.8177.8177,0,0,1,.82.82h0a.809.809,0,0,1-.81.8194h-.0108A.8209.8209,0,0,1,1040.83,667.63Zm-.05-6.52a.8146.8146,0,0,1,.81-.8194h0a.811.811,0,0,1,.83.81h0a.83.83,0,0,1-.8105.83h-.01A.8231.8231,0,0,1,1040.78,661.1094Zm-.0508-6.51a.8246.8246,0,0,1,.8105-.83h0a.833.833,0,0,1,.83.82h0a.8178.8178,0,0,1-.82.82h0A.8157.8157,0,0,1,1040.7295,654.6Zm-.06-6.5195a.8177.8177,0,0,1,.82-.82h0a.809.809,0,0,1,.8194.8095h0a.8232.8232,0,0,1-.81.83h-.01A.83.83,0,0,1,1040.67,648.08Zm-.05-6.5108a.83.83,0,0,1,.81-.8291h0a.8192.8192,0,0,1,.83.8194h0a.8155.8155,0,0,1-.81.82h-.0107A.8155.8155,0,0,1,1040.62,641.5693Zm-.0508-6.5195a.81.81,0,0,1,.8106-.82h0a.8094.8094,0,0,1,.82.81h0a.8182.8182,0,0,1-.8106.83h-.01A.8157.8157,0,0,1,1040.5693,635.05Zm-.06-6.51a.83.83,0,0,1,.81-.83h0a.8186.8186,0,0,1,.83.82h0a.8146.8146,0,0,1-.81.8193h-.01A.8211.8211,0,0,1,1040.51,628.54Zm-.05-6.52a.8139.8139,0,0,1,.81-.8193h0a.8226.8226,0,0,1,.83.81h0a.8314.8314,0,0,1-.8193.83h0A.824.824,0,0,1,1040.46,622.02Zm-.05-6.51a.8163.8163,0,0,1,.81-.83h0a.8177.8177,0,0,1,.82.82h0a.8085.8085,0,0,1-.8105.8193h-.01A.8055.8055,0,0,1,1040.41,615.51Zm-.0606-6.52a.8157.8157,0,0,1,.8106-.82h0a.8116.8116,0,0,1,.83.81h0a.83.83,0,0,1-.8105.83h-.01A.8238.8238,0,0,1,1040.35,608.99Zm-.05-6.5107a.8317.8317,0,0,1,.81-.83h0a.8324.8324,0,0,1,.83.82h0a.8169.8169,0,0,1-.8194.82h-.0107A.8133.8133,0,0,1,1040.3,602.48Zm-.06-6.5195a.817.817,0,0,1,.8194-.82h0a.8157.8157,0,0,1,.82.8106h0a.8093.8093,0,0,1-.8106.8193h-.01A.82.82,0,0,1,1040.24,595.96Zm-.0507-6.51a.83.83,0,0,1,.8105-.83h0a.83.83,0,0,1,.83.81h0a.82.82,0,0,1-.82.83h0A.8155.8155,0,0,1,1040.19,589.45Zm-.05-6.52a.81.81,0,0,1,.8106-.82h0a.8091.8091,0,0,1,.8193.81h0a.8079.8079,0,0,1-.81.82h-.01A.8073.8073,0,0,1,1040.14,582.93Zm-.06-6.51a.8315.8315,0,0,1,.8193-.83h0a.8178.8178,0,0,1,.82.82h0a.8152.8152,0,0,1-.81.8193h-.0108A.8146.8146,0,0,1,1040.08,576.42Zm-.05-6.52a.8145.8145,0,0,1,.81-.8193h0a.8224.8224,0,0,1,.83.8095h0a.8178.8178,0,0,1-.82.82h0A.8148.8148,0,0,1,1040.03,569.8994Zm-.0508-6.51a.8116.8116,0,0,1,.8105-.83h0a.8169.8169,0,0,1,.8194.82h0a.808.808,0,0,1-.81.82h0A.8157.8157,0,0,1,1039.9795,563.39Zm-.06-6.5195a.8155.8155,0,0,1,.81-.82h0a.8116.8116,0,0,1,.83.81h0a.8148.8148,0,0,1-.81.82h-.01A.8155.8155,0,0,1,1039.92,556.87Zm-.05-6.5107a.81.81,0,0,1,.81-.8291h0a.8168.8168,0,0,1,.82.8193h0a.8033.8033,0,0,1-.8105.82h0A.8154.8154,0,0,1,1039.87,550.3594Zm-.0605-6.52a.8177.8177,0,0,1,.82-.82h0a.81.81,0,0,1,.82.8106h0a.8148.8148,0,0,1-.8106.8193h-.01A.8211.8211,0,0,1,1039.81,543.84Zm-126.16-6.26a.83.83,0,0,1,.79-.85h0a.8309.8309,0,0,1,.85.79h0a.8241.8241,0,0,1-.79.85h-.03A.8241.8241,0,0,1,913.65,537.58Zm6.51-.23v-.02h0a.8333.8333,0,0,1,.79-.83h0a.832.832,0,0,1,.85.8h0v.02h0a.8038.8038,0,0,1-.79.82h-.03A.8245.8245,0,0,1,920.16,537.35Zm119.6-.02a.8238.8238,0,0,1,.81-.83h0a.832.832,0,0,1,.83.82h0a.8144.8144,0,0,1-.81.82h-.01A.8152.8152,0,0,1,1039.76,537.33Zm-113.09-.2v-.03h0a.8245.8245,0,0,1,.79-.82h0a.8121.8121,0,0,1,.85.79h0v.02h0a.82.82,0,0,1-.79.83h-.02A.8268.8268,0,0,1,926.67,537.13Zm6.52-.23v-.02h0a.8194.8194,0,0,1,.79-.83h0a.8155.8155,0,0,1,.84.79h0v.02h0a.813.813,0,0,1-.79.83H934A.8155.8155,0,0,1,933.19,536.9Zm6.51-.23v-.02h0a.8052.8052,0,0,1,.79-.82h0a.8029.8029,0,0,1,.84.79h0v.02h0a.8047.8047,0,0,1-.79.82h-.02A.8115.8115,0,0,1,939.7,536.67Zm6.51-.22v-.03h0a.8046.8046,0,0,1,.79-.82h0a.8241.8241,0,0,1,.85.79h0v.02h0a.8333.8333,0,0,1-.7895.83h-.04A.8154.8154,0,0,1,946.21,536.45Zm6.51-.23v-.02h0a.8269.8269,0,0,1,.79-.83h0a.8314.8314,0,0,1,.85.79h0v.02h0a.8269.8269,0,0,1-.79.83h-.03A.8181.8181,0,0,1,952.72,536.22Zm6.51-.23v-.02h0a.8173.8173,0,0,1,.79-.82h0a.8173.8173,0,0,1,.85.79h0v.02h0a.8173.8173,0,0,1-.79.82h0c-.01,0-.0195.01-.03.01h0A.8262.8262,0,0,1,959.23,535.99Zm6.51-.22v-.02h0a.8265.8265,0,0,1,.79-.83h0a.8245.8245,0,0,1,.85.79h0v.02h0a.8335.8335,0,0,1-.79.83h-.03A.8242.8242,0,0,1,965.74,535.77Zm6.51-.23v-.02h0a.8332.8332,0,0,1,.79-.83h0a.8176.8176,0,0,1,.85.79h0v.02h0a.8127.8127,0,0,1-.79.83h-.03A.8236.8236,0,0,1,972.25,535.54Zm6.51-.23v-.02h0a.8177.8177,0,0,1,.79-.82h0a.8117.8117,0,0,1,.85.79h0v.02h0a.8035.8035,0,0,1-.79.82H979.58A.8176.8176,0,0,1,978.76,535.31Zm6.52-.22v-.02h0a.8123.8123,0,0,1,.789-.83h0a.817.817,0,0,1,.8409.79h0v.02h0a.8205.8205,0,0,1-.79.83h-.03A.8082.8082,0,0,1,985.28,535.09Zm6.51-.23v-.02h0a.82.82,0,0,1,.79-.83h0a.83.83,0,0,1,.85.79h0v.02h0a.82.82,0,0,1-.79.83h-.03A.8176.8176,0,0,1,991.79,534.86Zm6.51-.23v-.02h0a.8042.8042,0,0,1,.79-.82h0a.8233.8233,0,0,1,.85.79h0v.02h0a.8178.8178,0,0,1-.79.82h-.04A.8087.8087,0,0,1,998.3,534.63Zm6.51-.22v-.02h0a.8266.8266,0,0,1,.79-.8295h0a.8312.8312,0,0,1,.8506.7895h0v.02h0a.8272.8272,0,0,1-.79.83h-.03A.8249.8249,0,0,1,1004.81,534.41Zm6.51-.23v-.02h0a.8341.8341,0,0,1,.79-.83h0a.832.832,0,0,1,.8506.79h0v.03h0a.8114.8114,0,0,1-.79.82h-.03A.8184.8184,0,0,1,1011.3193,534.18Zm6.5108-.22v-.03h0a.8172.8172,0,0,1,.79-.82h0a.8112.8112,0,0,1,.85.79h0v.02h0a.82.82,0,0,1-.79.83h-.03A.824.824,0,0,1,1017.83,533.96Zm6.5195-.23v-.02h0a.8132.8132,0,0,1,.79-.83h0a.8087.8087,0,0,1,.84.79h0v.02h0a.8129.8129,0,0,1-.79.83h-.0293A.8156.8156,0,0,1,1024.35,533.73Zm6.51-.23v-.02h0a.8055.8055,0,0,1,.79-.82h0a.8037.8037,0,0,1,.8408.79h0a.0307.0307,0,0,0,.01.02h0a.82.82,0,0,1-.8.82h-.03A.81.81,0,0,1,1030.8594,533.5Zm6.5107-.22v-.03h0a.8044.8044,0,0,1,.79-.82h0a.8242.8242,0,0,1,.85.79h0v.02h0a.8334.8334,0,0,1-.79.83h-.03A.8176.8176,0,0,1,1037.37,533.28Z" transform="translate(-745.1259 -344.3564)"/><path class="a" d="M1009.84,531v-.02h0a.8262.8262,0,0,1,.8-.82h0a.8239.8239,0,0,1,.84.8h0v.02h0a.8192.8192,0,0,1-.8.82h-.0195A.8132.8132,0,0,1,1009.84,531Zm-.16-6.51v-.02h0a.82.82,0,0,1,.8-.82h0a.8233.8233,0,0,1,.84.8h0v.02h0a.8263.8263,0,0,1-.8.82H1010.5A.82.82,0,0,1,1009.68,524.49Zm-.16-6.51v-.02h0a.8139.8139,0,0,1,.8-.82h0a.8191.8191,0,0,1,.8409.8h0v.02h0a.8266.8266,0,0,1-.8008.82h-.02A.8269.8269,0,0,1,1009.52,517.98Zm-.16-6.52v-.02h0a.8271.8271,0,0,1,.8008-.82h0a.8245.8245,0,0,1,.84.8h0v.02h0a.82.82,0,0,1-.8.82h-.02A.8137.8137,0,0,1,1009.3594,511.46Zm-.1592-6.51v-.02h0a.8256.8256,0,0,1,.8-.82h0a.8233.8233,0,0,1,.84.8h0v.02h0a.82.82,0,0,1-.8.82h-.02A.8194.8194,0,0,1,1009.2,504.95Zm-.16-6.51v-.02h0a.82.82,0,0,1,.8-.82h0a.8175.8175,0,0,1,.84.8h0v.02h0a.8333.8333,0,0,1-.8.82h-.02A.8259.8259,0,0,1,1009.04,498.44Zm-.16-6.52v-.02h0a.8338.8338,0,0,1,.8-.82h0a.8237.8237,0,0,1,.84.8h0v.02h0a.8126.8126,0,0,1-.8.82H1009.7A.8194.8194,0,0,1,1008.88,491.92Zm-.16-6.51v-.02h0a.8127.8127,0,0,1,.8-.82h0a.8239.8239,0,0,1,.84.8h0v.02h0a.82.82,0,0,1-.8.82h-.02A.8266.8266,0,0,1,1008.72,485.41Zm-.16-6.51v-.02h0a.8194.8194,0,0,1,.8-.82h0a.8117.8117,0,0,1,.8408.8h0v.02h0a.8267.8267,0,0,1-.8008.82h-.0195A.8261.8261,0,0,1,1008.56,478.9Zm-.16-6.52v-.02h0a.8337.8337,0,0,1,.8008-.82h0a.8237.8237,0,0,1,.84.8h0v.02h0a.813.813,0,0,1-.8.82h-.02A.8208.8208,0,0,1,1008.3994,472.38Zm-.1592-6.51v-.02h0a.82.82,0,0,1,.8-.82h0a.8238.8238,0,0,1,.84.8h0v.02h0a.8194.8194,0,0,1-.8.82h-.02A.826.826,0,0,1,1008.24,465.87Zm-.16-6.51v-.02h0a.8189.8189,0,0,1,.8-.82h0a.81.81,0,0,1,.84.8h0v.02h0a.8259.8259,0,0,1-.8.82h-.02A.8259.8259,0,0,1,1008.08,459.36Zm-.16-6.52v-.02h0a.8264.8264,0,0,1,.8-.82h0a.817.817,0,0,1,.84.8h0v.02h0a.8123.8123,0,0,1-.8.82h-.02A.8191.8191,0,0,1,1007.92,452.84Zm-.15-6.51a.03.03,0,0,1-.01-.02h0a.82.82,0,0,1,.8-.82h0a.8239.8239,0,0,1,.84.8h0v.02h0a.8194.8194,0,0,1-.8.82h-.0195A.8112.8112,0,0,1,1007.77,446.33Zm-.17-6.51v-.02h0a.82.82,0,0,1,.8-.82h0a.8118.8118,0,0,1,.8408.8h0v.02h0a.8266.8266,0,0,1-.8007.82h-.02A.8334.8334,0,0,1,1007.6,439.82Zm-.16-6.52v-.02h0a.8264.8264,0,0,1,.8007-.82h0a.818.818,0,0,1,.84.8h0v.02h0a.813.813,0,0,1-.8.82h-.0108A.8219.8219,0,0,1,1007.44,433.3Zm-.1592-6.51v-.02h0a.8262.8262,0,0,1,.8-.82h0a.8177.8177,0,0,1,.84.8h0v.02h0a.82.82,0,0,1-.8.82h-.02A.8325.8325,0,0,1,1007.28,426.79Zm-.15-6.52a.8.8,0,0,1,.79-.83h0a.8048.8048,0,0,1,.84.8h0a.8144.8144,0,0,1-.79.84h-.0195A.8214.8214,0,0,1,1007.13,420.27Z" transform="translate(-745.1259 -344.3564)"/><path class="a" d="M1153.31,571.66a.8176.8176,0,0,1-.1-.3907h0a.8076.8076,0,0,1,.4394-.72h0a.8042.8042,0,0,1,1.1006.34h0a.7894.7894,0,0,1,.1.3907h0a.8209.8209,0,0,1-.4394.72v-.01a.7517.7517,0,0,1-.38.1h0A.831.831,0,0,1,1153.31,571.66Zm-4.81-.25a.7819.7819,0,0,1-.17-.4805h0a.8088.8088,0,0,1,.33-.66h0a.8041.8041,0,0,1,1.14.15h0a.8285.8285,0,0,1,.17.49h0a.8258.8258,0,0,1-.32.6591h0a.8581.8581,0,0,1-.5.1709h0A.7918.7918,0,0,1,1148.5,571.41Zm-29.58-.11a.8327.8327,0,0,1-.79-.83h0c0-.01.01-.01.01-.0195h0a.8089.8089,0,0,1,.84-.79h0a.8183.8183,0,0,1,.79.83h0v.02h0a.815.815,0,0,1-.81.79h-.04Zm-6.51-.25a.8327.8327,0,0,1-.79-.83h0c.01-.01.01-.01.01-.0195h0a.8171.8171,0,0,1,.85-.79h0a.8175.8175,0,0,1,.78.83h0v.02h0a.8174.8174,0,0,1-.82.79h-.0293Zm-6.5108-.25a.8268.8268,0,0,1-.79-.83h0V569.95h0a.831.831,0,0,1,.8506-.79h0a.8189.8189,0,0,1,.79.83h0v.02h0a.8177.8177,0,0,1-.82.79h-.03Zm-6.51-.24a.8335.8335,0,0,1-.79-.83h0V569.71h0a.8244.8244,0,0,1,.8506-.79h0a.8135.8135,0,0,1,.79.83h0v.0195h0a.8186.8186,0,0,1-.82.79h-.03Zm25-.55a.7651.7651,0,0,1-.1093-.41h0a.8146.8146,0,0,1,.4092-.71h.0107a.8006.8006,0,0,1,1.1094.3106h0a.8563.8563,0,0,1,.11.3994h0a.8236.8236,0,0,1-.42.71h0a.7589.7589,0,0,1-.4.11h0A.8043.8043,0,0,1,1124.39,570.01Zm-31.51.3a.8329.8329,0,0,1-.79-.83h0V569.46h0a.8236.8236,0,0,1,.85-.79h0a.8185.8185,0,0,1,.79.83h0v.0195h0a.8172.8172,0,0,1-.8193.79h-.03Zm-6.51-.25a.8262.8262,0,0,1-.79-.83h0V569.21h0a.83.83,0,0,1,.85-.79h0a.8191.8191,0,0,1,.79.83h0v.0195h0a.8172.8172,0,0,1-.82.79h-.0293Zm-6.5107-.25a.82.82,0,0,1-.79-.83h0V568.96h0a.817.817,0,0,1,.8506-.78h0a.8045.8045,0,0,1,.79.82h0v.0195h0a.8179.8179,0,0,1-.82.79h-.03Zm-6.51-.25a.8106.8106,0,0,1-.79-.8194h0v-.02h0a.8185.8185,0,0,1,.8506-.79h0a.8138.8138,0,0,1,.79.83h0v.02h0a.8251.8251,0,0,1-.82.789h0C1073.37,569.5693,1073.3594,569.56,1073.35,569.56Zm-6.51-.24a.8255.8255,0,0,1-.79-.8291h0v-.02h0a.8241.8241,0,0,1,.85-.79h0a.8265.8265,0,0,1,.79.83h0v.02h0a.8236.8236,0,0,1-.8194.789h-.03Zm-6.51-.25a.8065.8065,0,0,1-.79-.8291h0v-.02h0a.83.83,0,0,1,.85-.79h0a.8334.8334,0,0,1,.79.83h0v.02h0a.8169.8169,0,0,1-.82.789h-.0293Zm-6.5108-.25a.8031.8031,0,0,1-.789-.8193h0v-.03h0a.8154.8154,0,0,1,.85-.78h0a.8186.8186,0,0,1,.79.82h0v.03h0a.816.816,0,0,1-.82.7793h-.03Zm-6.51-.2392a.82.82,0,0,1-.79-.83h0v-.02h0a.8184.8184,0,0,1,.8506-.79h0a.8274.8274,0,0,1,.79.83h0v.02h0a.8254.8254,0,0,1-.82.79h-.03Zm-6.51-.25a.8184.8184,0,0,1-.79-.8506h0a.8321.8321,0,0,1,.85-.79h0a.8309.8309,0,0,1,.79.8505h0a.8244.8244,0,0,1-.8193.79h-.03Zm89.58-.83a.89.89,0,0,1-.03-.2305h0a.82.82,0,0,1,.6006-.79h0a.8246.8246,0,0,1,1.01.57h0a.92.92,0,0,1,.03.22h0a.8216.8216,0,0,1-.6006.79h0a.8109.8109,0,0,1-.22.03h0A.813.813,0,0,1,1130.38,567.5Zm13.14.49a.8455.8455,0,0,1-.4892-.74h0a.9772.9772,0,0,1,.0693-.34h0a.8284.8284,0,0,1,1.08-.42h0a.7994.7994,0,0,1,.49.7393h0a.8285.8285,0,0,1-.07.34h0a.8032.8032,0,0,1-.75.49h0A.79.79,0,0,1,1143.52,567.99Zm13.42-.02a.8.8,0,0,1-.56-.7695h0a.8466.8466,0,0,1,.05-.27h0a.82.82,0,0,1,1.04-.51h0a.8258.8258,0,0,1,.55.78h0a.7387.7387,0,0,1-.04.26h0a.8347.8347,0,0,1-.7793.5595h0A.7445.7445,0,0,1,1156.94,567.97Zm5.6005-.83a.5856.5856,0,0,1-.01-.13h0a.8055.8055,0,0,1,.6992-.8h0a.8155.8155,0,0,1,.9307.6894h0a.5027.5027,0,0,1,.01.12h0a.818.818,0,0,1-.7.8106h0c-.04,0-.08.01-.12.01h0A.8257.8257,0,0,1,1162.54,567.14Zm4.14.26h0a.8216.8216,0,0,1-.66-.8h0a1.0269,1.0269,0,0,1,.02-.17h0a.8178.8178,0,0,1,.96-.64h0a.8218.8218,0,0,1,.66.8h0a1.0065,1.0065,0,0,1-.0206.17h0a.8128.8128,0,0,1-.8.65h0A.7985.7985,0,0,1,1166.68,567.3994Zm-29.9395-1.31v-.07h0a.8.8,0,0,1,.7393-.8193h.0107a.8166.8166,0,0,1,.88.7393h0c0,.03.01.0507.01.07h0a.8263.8263,0,0,1-.75.82h-.07A.817.817,0,0,1,1136.74,566.09Zm36.1.5v-.01a.7909.7909,0,0,1-.49-.75h0a.8631.8631,0,0,1,.0606-.32h0a.8253.8253,0,0,1,1.08-.43h0a.8136.8136,0,0,1,.4893.75h0a.8609.8609,0,0,1-.06.3193h0a.8114.8114,0,0,1-.76.5h0A.9464.9464,0,0,1,1172.84,566.59Z" transform="translate(-745.1259 -344.3564)"/><path class="a" d="M1121.89,671.74l-.01-.0107a.8.8,0,0,1-.43-.71h0a.7577.7577,0,0,1,.09-.39h0a.8246.8246,0,0,1,1.1094-.35h0a.8361.8361,0,0,1,.44.7392h0a1.0246,1.0246,0,0,1-.1.37h0a.8239.8239,0,0,1-.73.4405h0A.8455.8455,0,0,1,1121.89,671.74Zm-5.79-3.04h0a.8121.8121,0,0,1-.4394-.7305h0a.7082.7082,0,0,1,.1-.37h0a.806.806,0,0,1,1.1-.35h0a.8327.8327,0,0,1,.44.73h0a.8528.8528,0,0,1-.09.38h0a.823.823,0,0,1-.7305.44h0A.8066.8066,0,0,1,1116.1,668.7Zm-5.78-3a.8161.8161,0,0,1-.4492-.7305h0a.8414.8414,0,0,1,.09-.38h0a.8144.8144,0,0,1,1.1-.35h0a.8127.8127,0,0,1,.45.73h0a.814.814,0,0,1-.09.37h0a.8139.8139,0,0,1-.73.45h0A.8146.8146,0,0,1,1110.3193,665.7Zm-2.8-4.61a.8187.8187,0,0,1-.52-.77h0a.8028.8028,0,0,1,.06-.3h0a.8217.8217,0,0,1,1.07-.45h0a.8253.8253,0,0,1,.51.77h0a.8.8,0,0,1-.06.3h0a.8259.8259,0,0,1-.7608.51h0A.8028.8028,0,0,1,1107.52,661.09Zm1.05-6.3a.81.81,0,0,1-.3291-.66h0a.8312.8312,0,0,1,.17-.49h0a.814.814,0,0,1,1.14-.16h0a.8112.8112,0,0,1,.33.66h0a.8383.8383,0,0,1-.17.49h0a.8209.8209,0,0,1-.65.33h0A.8377.8377,0,0,1,1108.5693,654.79Zm-6.73-.6806a.7737.7737,0,0,1-.01-.1494h0a.815.815,0,0,1,.67-.8106h0a.81.81,0,0,1,.95.65h0a.78.78,0,0,1,.02.15h0a.8148.8148,0,0,1-.67.81h0a.7788.7788,0,0,1-.15.01h0A.8233.8233,0,0,1,1101.84,654.1094Zm-12.07.1709h0a.8156.8156,0,0,1-.73-.82h0v-.08h0a.8194.8194,0,0,1,.8995-.7305h0a.824.824,0,0,1,.74.82h0a.2249.2249,0,0,1-.01.08h0a.8225.8225,0,0,1-.8105.74h0C1089.83,654.29,1089.8,654.28,1089.77,654.28Zm6.45-.28a.8171.8171,0,0,1-.6894-.8105h0a.6313.6313,0,0,1,.01-.13h0a.8141.8141,0,0,1,.93-.68h0a.8256.8256,0,0,1,.7.81h0c0,.04-.01.08-.01.12h0a.8332.8332,0,0,1-.8106.7h0C1096.31,654.01,1096.27,654,1096.22,654Zm-16.93-1.67a.8638.8638,0,0,1-.11-.4307h0a.8111.8111,0,0,1,.39-.6992h0a.8129.8129,0,0,1,1.12.2695h0a.7331.7331,0,0,1,.12.43h0a.8372.8372,0,0,1-.39.7h0a.8208.8208,0,0,1-.43.12h0A.8372.8372,0,0,1,1079.29,652.33Zm4.0293.16a.8326.8326,0,0,1-.5293-.75h0a.7691.7691,0,0,1,.06-.3007h0a.81.81,0,0,1,1.05-.4795h0a.8271.8271,0,0,1,.53.78h0a.8562.8562,0,0,1-.05.2793h0a.8287.8287,0,0,1-.77.53h0A.7551.7551,0,0,1,1083.3193,652.49Zm-9.5293-.8007a.8165.8165,0,0,1-.24-.58h0a.7656.7656,0,0,1,.23-.5791h0a.82.82,0,0,1,1.1592-.0108h0a.8726.8726,0,0,1,.25.58h0a.8209.8209,0,0,1-.2393.58h0a.8342.8342,0,0,1-.5908.25h0A.8124.8124,0,0,1,1073.79,651.69Zm-5.11-3.4795a.8268.8268,0,0,1-.49-.75h0a.8289.8289,0,0,1,.07-.34h0a.8213.8213,0,0,1,1.08-.41h0a.801.801,0,0,1,.49.74h0a.8034.8034,0,0,1-.07.34h0a.8259.8259,0,0,1-.75.49h0A.93.93,0,0,1,1068.68,648.21Zm-4.46-5.16a.8.8,0,0,1-.07-.34h0a.7906.7906,0,0,1,.48-.74h0a.8125.8125,0,0,1,1.08.4h0a.7994.7994,0,0,1,.08.33h0a.8132.8132,0,0,1-.48.75h0a.7084.7084,0,0,1-.34.08h0A.833.833,0,0,1,1064.22,643.05Zm-3.24-5.5v-.01a.8588.8588,0,0,1-.08-.3505h0a.8066.8066,0,0,1,.4707-.7393h0a.8183.8183,0,0,1,1.09.39h0a.724.724,0,0,1,.08.35h0a.807.807,0,0,1-.4707.74h0a.71.71,0,0,1-.35.08h0A.8282.8282,0,0,1,1060.98,637.55Zm-5.1895-.99h0a.8327.8327,0,0,1-.09-.37h0a.7977.7977,0,0,1,.4394-.7393h0a.8151.8151,0,0,1,1.1006.35h0a.7423.7423,0,0,1,.1.37h0a.8389.8389,0,0,1-.44.74h0a.8524.8524,0,0,1-.38.09h0A.8216.8216,0,0,1,1055.79,636.56Zm-3.13-5.42h0a.7678.7678,0,0,1-.2207-.55h0a.8169.8169,0,0,1,.25-.61h0a.8219.8219,0,0,1,1.16.04h0a.77.77,0,0,1,.22.55h0a.8086.8086,0,0,1-.25.61h0a.8057.8057,0,0,1-.56.22h0A.8239.8239,0,0,1,1052.66,631.14ZM1046.89,629.16a.8158.8158,0,0,1,.8106-.82h0a.8177.8177,0,0,1,.83.81h0a.8324.8324,0,0,1-.82.83h0A.8238.8238,0,0,1,1046.89,629.16Zm-6.31-.1407a.8169.8169,0,0,1,.43-1.0693h0a.8309.8309,0,0,1,1.08.4394h0a.8239.8239,0,0,1-.44,1.07h0a.7117.7117,0,0,1-.3193.07h0A.8173.8173,0,0,1,1040.58,629.02Z" transform="translate(-745.1259 -344.3564)"/></svg>