<svg xmlns="http://www.w3.org/2000/svg" viewBox="0 0 431.772 393.375"><defs><style>.a{fill:#afe2dc;}.b{fill:#fff;}.c{fill:#458279;}</style></defs><title>Region-Aus-Map</title><path class="a" d="M1007.9,641.0928c.1316.004.286.0541.3826-.0037.4934-.3031.77-.8078,1.3514-.6781a1.3989,1.3989,0,0,1,.8987.53.8825.8825,0,0,1-.465,1.3409c-1.0284.3741-2.1374-.163-3.26.0019-.7462.1147-.7273.9186-.9678,1.4575-.2775.6231-1.413,1.2159-1.9215.768-1.3106-1.1544-3.126-1.0683-4.6848-1.2651-.4053-.0569-.6705.7054-1.2075.7433-.6856.0511-1.61.1942-1.875-.4707-.2264-.5681-.0606-1.26-.4413-1.8959-.465-.769.7178-1.1675,1.411-1.2868a12.485,12.485,0,0,0,2.3476-.2842c2.0645-.7775,4.0882-1.4915,6.26-1.1715.4281.0682-.2746.5066-.36.6876-.1014.2319.4318.2074.4185.39-.017.2019-.3276.4063-.2111.6384a.7167.7167,0,0,0,.3674.2633c.48.2016.9319-.2936,1.448-.1771-.126.5387.4072.5142.6553.6421.17.0832.3542-.1875.52-.3334" transform="translate(-744.6699 -344.3564)"/><path class="b" d="M1004.373,645.1416a1.1708,1.1708,0,0,1-.791-.28,5.7775,5.7775,0,0,0-3.4453-1.04c-.3174-.0274-.6308-.0557-.9336-.0938.044.01-.0537.1094-.1181.1758a1.543,1.543,0,0,1-.9805.5645l-.1758.0136c-.7226.0625-1.8066.1524-2.1846-.7939a3.23,3.23,0,0,1-.18-.9033,2.0805,2.0805,0,0,0-.2227-.9063,1.05,1.05,0,0,1-.0859-1c.3183-.6972,1.3857-.9492,1.8291-1.0263a8.3,8.3,0,0,1,.997-.083,4.0806,4.0806,0,0,0,1.2412-.1729,13.0631,13.0631,0,0,1,6.4571-1.1895.6229.6229,0,0,1,.5381.4239.7212.7212,0,0,1-.2393.7168.5378.5378,0,0,1,.1855.4609.8867.8867,0,0,1-.1425.3965.7847.7847,0,0,0,.374-.0811,1.6651,1.6651,0,0,1,.97-.122l.4912.11-.0664.2871c.0508.002.1045.0078.1573.0147l.0126.0019c.0889-.0625.1729-.1357.2549-.205a1.5146,1.5146,0,0,1,1.375-.4766,1.8935,1.8935,0,0,1,1.1973.7344,1.3146,1.3146,0,0,1,.1816,1.1728,1.4637,1.4637,0,0,1-.8935.9092,4.1414,4.1414,0,0,1-2.0108.0762,4.7751,4.7751,0,0,0-1.3144-.0528c-.1895.0293-.2578.1368-.4.6387a4.0482,4.0482,0,0,1-.1748.5156,2.3231,2.3231,0,0,1-1.543,1.1739A1.7351,1.7351,0,0,1,1004.373,645.1416Zm-5.1552-2.4141a.84.84,0,0,1,.1181.0088c.2832.0362.584.0625.8887.0889a6.6116,6.6116,0,0,1,4.0186,1.2861.3607.3607,0,0,0,.2754.0127,1.35,1.35,0,0,0,.8427-.6025,2.9063,2.9063,0,0,0,.127-.3848c.1387-.4853.3476-1.2187,1.2138-1.3525a4.3587,4.3587,0,0,1,1.087-.0088l-.0039-.002a.9033.9033,0,0,0-.129-.0429,1.1343,1.1343,0,0,1-.7294-.4981c-.0313.01-.0625.0215-.0957.0332a1.4615,1.4615,0,0,1-1.1045.06,1.146,1.146,0,0,1-.6221-.5078.7452.7452,0,0,1,.0107-.6738.6148.6148,0,0,1-.23-.2745l-.084-.1972.0918-.2891c.0088-.0185.0185-.0371.0283-.0547a13.352,13.352,0,0,0-5.2451,1.2031,4.8689,4.8689,0,0,1-1.5518.2364,7.3608,7.3608,0,0,0-.874.07,1.7966,1.7966,0,0,0-1.085.457,3.0865,3.0865,0,0,1,.3946,1.3916,2.3763,2.3763,0,0,0,.1142.63c.0948.24.5869.2188,1.1709.169l.1865-.0157c.084-.0058.2247-.15.3379-.2656A1.2271,1.2271,0,0,1,999.2178,642.7275Zm9.001-.9023c.0244.0029.05.0059.0742.01a3.4083,3.4083,0,0,0,1.5478-.0274.469.469,0,0,0,.2783-.2783.3228.3228,0,0,0-.0586-.2988.905.905,0,0,0-.5947-.3223c-.126-.0273-.2051.0107-.5019.2627-.0537.0459-.1084.0918-.1651.1377l.0537.0615c-.0293.0264-.0595.0586-.0908.09A1.2079,1.2079,0,0,1,1008.2188,641.8252Zm-.3624-1.0781.0264.0078-.0039-.1045Z" transform="translate(-744.6699 -344.3564)"/><path class="a" d="M1172.7826,567.1446a11.0167,11.0167,0,0,1-.1809-3.412c-.2376-.5068-.7946-5.0617-1.7121-6.6007,0,0-.1431-13.4853-3.2142-20.7167a52.2632,52.2632,0,0,1-3.8344-20.2224c-5.2369-5.2228-10.9351-9.6158-17.0233-14.4531a8.7993,8.7993,0,0,1-3.1668-4.7209c-1.48-5.0767-2.56-9.7172-3.6232-14.7772-3.271-1.8-5.4387.2124-9.6028-.3636a163.1543,163.1543,0,0,0-5.1355-19.02c-2.2331-7.1971-8.7466-12.0451-13.9854-17.2649-4.1754-.1581-7.8583-2.3873-12.0013-3.3853-1.2378-.4622-7.9937-20.7993-9.7022-30.9029-.3543-1.6857-1.324-9.255-2.126-10.1215q-1.76-3.206-3.52-6.4084l-5.7192-3.5646c-.0917.2256-11.2533-1.4394-11.3867-1.748a13.4558,13.4558,0,0,1-1.2622-3.8771s-12.2554-35.2163-12.0044-35.5015c-.1618.0665-.1789-.2024-.268.0209.1771-.4422-1.54-2.5682-1.6063-2.7186-.8133-1.4936-2.5606-1.9509-4.1373-2.2058-.3333-.1373-3.1015,3.3791-2.9925,4.0673.0625.1592-1.3723,5.93-1.4441,6.2617-3.6565,18.1372-7.527,56.6734-7.3158,62.1161,0,0-2.7548,9.7275-5.2672,10.5106-1.7811.5655-7.66-.54-7.66-.54-.2164-.0895-7.0924-4.0818-15.4006-8.9381l2.7926,115.0253L914.41,537.5372l5.8135,62.7739a47.8517,47.8517,0,0,0,7.0951-2.332c3.4056-1.5427,7.5668-.97,11.2942.01,2.9073.5292,4.9149,2.697,7.47,3.429,1.1716.2491,9.0467,2.217,12.1331,2.8807,1.0435.75,2.3125.3807,3.5514.8457,1.2187.88,1.5767,2.5674,3.1108,2.7756.1193.2719,6.4386,10.1342,11.4577,13.71.2521.8059,2.5891,7.7977,3.3042,8.4568a12.2756,12.2756,0,0,0,4.2711,5.3334s3.3731-5.1772,5-7.0713c.57-.9506,3.6772-6.7054,5.2331-8.1612.1942-.5729,1.9129-1.7615,1.7142-1.7255,1.5738-3.324,4.9822-4.875,6.3627-8.17.4633-1.2312,4.3514-4.4332,4.2123-4.7455.4253,3.6742-.1618,8.2465-.1581,12.2854-.2092,1.396-2.7642,2.555-2.1658,3.7322-1.1088,1.3086-.7435,2.5814-1.0787,4.19-.1579.463,1.075.93,1.0787.7775a8.3659,8.3659,0,0,1-.8039,3.3876c-2.28.8287-1.5276,2.9528-3.646,3.7045l-.0483,1.2556c2.056.91,5.0938-1.8958,6.5326.4406a3.3464,3.3464,0,0,1,.7622-1.6441c1.1733-1.4043-.4366-3.14,1.0643-3.7859,2.3222-.88,2.4179-3.3887,3.1991-5.7069.4264.2166.28.006-.0675-.2072,2.2234,1.2406,1.82,3.9432,3.29,5.3409.482.28.8883.7161.3909,1.2805-1.2763,1.88-1.3408,3.5511-.6268,4.6743-1.2074.9471-2.9621,2.9716-3.5835,3.0389a7.6479,7.6479,0,0,0,2.6981,2.0133c1.6107.1544,3.3561-1.8722,4.7349-1.4705,1.0825.9469,2.7512,1.0093,3.7343,2.0786-.1962.2187,3.1857,8.4463,3.8,14.3215.4292-.4,1.4291,8.2674,2.6194,9.99,1.19,1.718,1.5248,3.8211,3.5988,4.3182a80.1548,80.1548,0,0,1,10.666,5.1328c1.6922-.0651,3.3762-.4157,4.8468-.4043,1.8552.5294,8.7647,5.8165,10.4567,5.4634,2.9547-.7274,6.2636.2366,9.2334-.9065,1.7008-.7717,6.9566-6.8448,8.19-6.3838-.4933,2.0753,4.4063,5.1878,5.2275,5.6329.4165.0171,8.7247,1.5929,9.8657,3.1821,4.2106.7043,8.2543-6.6737,8.6852-7.0713,2.9564-.7265,6.3316-1.4368,9.2408-.9055,3.3241.5435,6.662.6687,9.8716.9244.9658-.0957,5.18-2.7132,5.18-2.7132a13.74,13.74,0,0,0,6.951-6.8507c3.66-8.2237,1.5568-7.8829,8.9084-14.2987,3.0342-2.8153,1.9622-7.45,3.774-11.15,4.4613-7.3613,9.1224-8.8564,15.6246-14.886a170.88,170.88,0,0,1,9.8071-15.9391c-.5343-7.97,2.2728-15.8131,7.1225-22.3191C1175.6481,579.8013,1176.3187,573.1362,1172.7826,567.1446Z" transform="translate(-744.6699 -344.3564)"/><path class="b" d="M1078.8916,737.7314l.0381-.9687c.0156-.4092-.1074-.5352-.4033-.8369a2.49,2.49,0,0,1-.8047-2.4229,13.1459,13.1459,0,0,0-1.9278-2.1455,8.1433,8.1433,0,0,1-1.9-2.2344,5.09,5.09,0,0,1-.4668-2.3261,12.806,12.806,0,0,0-.2715-2.126,13.67,13.67,0,0,1-.7149-4.0732,14.7058,14.7058,0,0,1-2.1689-3.59,1.0953,1.0953,0,0,1-.042-.2695c-.333-1.4434-.58-2.9043-.8193-4.3184a42.6516,42.6516,0,0,0-1.3936-6.3222l-.2324-.7.6719-.3047c2.1084-.9551,4.6513-.4824,7.11-.0264a17.2184,17.2184,0,0,0,5.627.44l.1445-.0234.1435.0283c2.9766.586,7.8682,1.53,8.3233,1.5713l.1387.0215c1.1474.2842,2.0029-.1641,3.1894-.78.4541-.2353.9258-.48,1.44-.6953l.1387-.0449c1.752-.3926,4.1172-.2891,5.1758.8574.7676.8262.7119,2.2481.6523,3.7529-.0195.501-.038.98-.0234,1.3975a.8335.8335,0,0,1,.1709.9639l-.0273.0566c.4375,2.6152.6875,4.7539-.251,6.86a23.8879,23.8879,0,0,0-1.5821,4.8076c-.8486,3.3525-1.7265,6.8183-5.2412,7.9482-.4375.0967-.5605.3145-.8261,1.0781a2.9935,2.9935,0,0,1-1.7881,2.1631l-.2188.0508c-2.4463.4815-2.7373.9326-2.77,1.0186l.2178,1.0429-1.0615-.0732a39.8076,39.8076,0,0,0-7.2852.0976Zm-3.4463-9.1543a12.5757,12.5757,0,0,0,1.4942,1.6084c1.332,1.3028,2.2207,2.2188,2.4238,3.0606l.0449.1826-.04.1846a.9642.9642,0,0,0,.33,1.166,2.8386,2.8386,0,0,1,.7461,1.1113,40.8815,40.8815,0,0,1,6.0586-.0556,1.9261,1.9261,0,0,1,.1221-.2178c.6406-.9649,2.21-1.39,3.8115-1.7051l.0489-.0088c.3505-.14.4882-.4472.7265-1.1338a2.7009,2.7009,0,0,1,1.9531-2.123c2.57-.83,3.2666-3.582,4.0733-6.7686a25.0625,25.0625,0,0,1,1.69-5.1054c.749-1.6836.5283-3.459.0322-6.377a.8682.8682,0,0,1-.0947-.3613l-.0107-.2578-.3194-1.8623.3633.3017.0029-.0859c.0362-.8945.0889-2.2461-.2168-2.5752-.4736-.5137-2.1142-.69-3.5459-.3867-.4453.1914-.8554.4052-1.2509.6113a5.8948,5.8948,0,0,1-4.2842.93c-.9229-.1172-6.3731-1.1836-8.3-1.5625a18.8155,18.8155,0,0,1-6.0371-.4688c-2.0069-.373-3.917-.7285-5.4571-.33a50.8572,50.8572,0,0,1,1.2149,5.7988c.2422,1.4316.4932,2.9131.83,4.35l.0527.2246a16.5735,16.5735,0,0,0,1.6426,2.7022l.5674.0214-.0323.8194a11.5912,11.5912,0,0,0,.64,3.9394,13.3774,13.3774,0,0,1,.3349,2.4658c.0284.36.0655.8457.1114,1.1788l.3037.0117Zm-.0224-.0459Z" transform="translate(-744.6699 -344.3564)"/><path class="b" d="M1090.0068,682.3525l-.2314-.3232-.5127-.0859.0869-.4063c-1.4785-1.0967-7.9678-2.5215-9.0264-2.624l-.165-.0166-.17-.08c-.0547-.03-4.6875-2.6523-5.5508-5.2646a38.102,38.102,0,0,0-3.4912,3.0273,19.677,19.677,0,0,1-3.6465,3.0137,14.4955,14.4955,0,0,1-5.4824.6787,15.6692,15.6692,0,0,0-3.8926.2773c-1.2822.2666-3.5254-1.0713-7.08-3.3027a29.966,29.966,0,0,0-3.7011-2.1367,21.95,21.95,0,0,0-2.32.1914c-.7666.0888-1.5586.1806-2.3671.2119l-.2823.0117-.2295-.166a81.6461,81.6461,0,0,0-10.44-5.0186c-1.7725-.4218-2.5244-1.8837-3.1875-3.1738a12.8741,12.8741,0,0,0-.83-1.456c-.7148-1.0362-1.2607-3.6709-1.9-7.0079-.1269-.6621-.2705-1.414-.3974-2.0039l-.293.2725-.17-1.6328c-.416-3.9766-2.169-9.1758-3.1113-11.97-.3467-1.0284-.5547-1.6455-.65-2.0479a5.326,5.326,0,0,0-1.4912-.7656,7.1653,7.1653,0,0,1-1.8243-.9356,4.4984,4.4984,0,0,0-1.6015.6338,5.1369,5.1369,0,0,1-2.8545.8858l-.2344-.0576a8.36,8.36,0,0,1-3.0342-2.2715l-.8877-1.1563,1.4493-.1572a17.6134,17.6134,0,0,0,1.5449-1.3994c.3681-.3555.7451-.7178,1.1054-1.0371a5.3749,5.3749,0,0,1,.97-4.9229l.0136-.0215a1.3773,1.3773,0,0,0-.1386-.0908l.2324-.3984-.0488-.0694-.336.3536a6.0868,6.0868,0,0,1-1.416-2.6133,7.0258,7.0258,0,0,0-.7871-1.7764q-.0528.1964-.1045.39c-.5156,1.9209-1.0478,3.9072-3.26,4.746-.1582.0684-.1982.086-.1211.8506a3.3222,3.3222,0,0,1-.6044,2.6944l.0058-.0059c.0029,0-.0371.0527-.083.1123a2.3279,2.3279,0,0,0-.5078,1.1553l-.3779,2.1162-1.126-1.83c-.4649-.7539-1.1406-.6621-2.6836-.247a5.234,5.234,0,0,1-3.4834.1259l-.5078-.2246.09-2.3662.5235-.1865c.7295-.2588.95-.7041,1.2851-1.3779a4.0506,4.0506,0,0,1,2.0694-2.209,9.5228,9.5228,0,0,0,.498-2.1123,2.7789,2.7789,0,0,1-.6055-.4,1.17,1.17,0,0,1-.3964-1.1934,10.4635,10.4635,0,0,0,.1552-1.2959,5.3066,5.3066,0,0,1,.8174-2.8672c-.1221-.9433.6738-1.7578,1.2813-2.3779a3.7958,3.7958,0,0,0,.9668-1.2607c.0009-1.4873.08-3.0577.1572-4.5772.0957-1.8975.1943-3.8418.1387-5.63l-.2159.21a16.7063,16.7063,0,0,0-2.5478,2.82,13.9118,13.9118,0,0,1-3.38,4.4492,14.2972,14.2972,0,0,0-2.9277,3.6172,1.7684,1.7684,0,0,1-.6661.7959,7.4558,7.4558,0,0,0-1.1084,1.043l-.0654.1953-.1367.1064c-1.1973,1.1192-3.5684,5.3057-4.5811,7.0938-.2324.4111-.4091.7226-.5087.89l-.0821.1133c-1.5732,1.8311-4.9013,6.9326-4.9345,6.9844l-.461.708-.6943-.4834a13.126,13.126,0,0,1-4.5078-5.5762c-.9532-1.2988-2.8711-7.0761-3.2959-8.38-4.5948-3.4082-10.0733-11.5615-11.2744-13.4873a4.0221,4.0221,0,0,1-2.0987-1.7509,5.3234,5.3234,0,0,0-.8906-1.0225,5.6217,5.6217,0,0,0-1.2524-.2051,4.7084,4.7084,0,0,1-2.2339-.6035c-1.9248-.4189-5.4112-1.2666-8.2276-1.95-1.8139-.44-3.2924-.8-3.7485-.8965a14.6764,14.6764,0,0,1-3.48-1.6679,11.9857,11.9857,0,0,0-3.9668-1.7579c-4.7549-1.246-8.17-1.2636-10.8086-.0683a46.3279,46.3279,0,0,1-6.8945,2.2871c-1.3179.3613-2.562.7021-3.772,1.1045l-.1386.0459-.03-.001c-.7022.2344-4.4907,1.8506-7.5581,3.1592-5.8638,2.5019-7.4136,3.1435-7.9541,3.3027a46.9181,46.9181,0,0,1-9.645,3.7158,61.1159,61.1159,0,0,0-7.6446,2.6846c-.52.3643-1.0039.7715-1.5141,1.2012a12.5808,12.5808,0,0,1-3.5538,2.3408,7.4777,7.4777,0,0,1-1.54.7959c-1.57.6982-4.8364,2.1533-5.2358,3.6162a77.8753,77.8753,0,0,1-3.9532,9.3985l-.0712.121c-1.8687,2.628-5.1553,3.4366-8.0547,4.1495l-.6348.1416c-1.5742.0839-2.999.125-4.4214.167-2.728.0791-5.5493.1621-9.4194.5644-3.9336.4072-7.0435,1.9844-10.6441,3.8115l-.5278.2676c-1.6475.7529-6.97,4.14-8.7666,5.3721-.99,1.3838-6.2915,7-8.9292,8.1992l-.0059-.0137c-2.0073,1.75-9.68,4.69-12.5166,5.1768l-.11.0185-.6929-.0683c-7.7846-.7588-11.6133-1.63-12.8027-2.9141-2.8945-2.6006-6.2227-5.4756-7.1563-6.1142l-.249.0732-.34-.4658a3.0281,3.0281,0,0,1-.16-2.3906c.0137-.0635.0274-.1231.0386-.1778a3.1932,3.1932,0,0,1,.3725-1.9687c.0342-.086.0762-.19.1138-.2891l-.1406-.1045,1.105-2.4668,3.9472-2.3271a24.866,24.866,0,0,0-.4379-11.8311c-.1763-.6084-.5464-2.56-1.0142-5.03-.502-2.6484-1.0708-5.6494-1.4517-7.2011-.4028-1.2442-1.666-3.8643-2.8989-3.6358l-1.3061.2325.3417-1.1524a5.4686,5.4686,0,0,0-1.14-.81c-.4526-.2646-.77-.4511-.8667-.8213-.6851-1.3222-2.3071-6.07-4.1924-11.6591-.6421-1.9043-1.25-3.7061-1.3945-4.0537a4.9385,4.9385,0,0,1-.58-2.9307,3.5727,3.5727,0,0,0-.2309-1.7627c-.209-.3008-.6583-.9209-1.24-1.7256-2.459-3.3994-7.0366-9.7266-8.3081-12.5351a8.0533,8.0533,0,0,0-2.5747-2.7276,9.3808,9.3808,0,0,1-3.0518-3.3369c-1.0439-2.3037-3.3525-4.3223-5.5854-6.2744a27.03,27.03,0,0,1-4.353-4.3906l-.3155-.34.1695-.5644c.2671-.6612.9394-.6973,2.9365-.8057a21.5955,21.5955,0,0,0,2.7231-.2529l.0982-.02.1015.0039a4.4627,4.4627,0,0,0,2.5494-.5264c.0249-.4258.0781-.8789.1328-1.34.2251-1.89.3-3.1621-.6724-3.6075l-.2739-.1259-.1275-.2735a13.6748,13.6748,0,0,0-3.0224-3.6767,22.5744,22.5744,0,0,1-2.6753-2.9385l-.0811-.1416a57.7572,57.7572,0,0,1-2.0507-6.1875,42.8426,42.8426,0,0,0-1.54-4.6817l-.4175-.081.0083-.6841c.0474-3.7886.2173-7.5107,1.7373-11.3769a12.187,12.187,0,0,0-1.5439-3.54,6.8826,6.8826,0,0,1,.91-8.1016l.14-.1591.1992-.0718a14.1765,14.1765,0,0,1,1.9707-.4868c1.791-.3575,3.8213-.7632,4.607-2.4273.1113-.206.1113-.206,2.3735-2.3335,1.5508-1.4585,3.4814-3.2739,4.5444-4.3188l.0005,0c1.68-1.6885,20.2647-13.1514,21.49-13.7061a38.5685,38.5685,0,0,0,5.1738-3.6543,31.4637,31.4637,0,0,1,6.4194-4.27l.1753-.08.09.0034c2.3311-.729,24.625-12.5967,25.7823-13.7334,1.3422-1.5913,1.956-3.7832,2.6059-6.1035a25.96,25.96,0,0,1,2.5376-6.5947l.0908-.1528.1465-.1016c1.8867-1.3066,4.4678-3.66,4.6187-5.0195a15.1562,15.1562,0,0,1-1.9527-5.1871c-.0859-.3549-.1728-.7138-.2656-1.0771l-.0259-.19c-.04-2.4663,2.876-6.2535,5.8672-9.9209.6724-.8247,1.3076-1.6036,1.4668-1.8863l.5181-.9209,3.0278,2.9029a7.9332,7.9332,0,0,0,.7866.4638,3.6662,3.6662,0,0,1,1.6167,1.3189,8.7,8.7,0,0,1,.8526,2.09,5.3,5.3,0,0,0,.9326,2.0239,1.7052,1.7052,0,0,0,1.1968.58,21.84,21.84,0,0,0,2.5468-4.3217,45.492,45.492,0,0,0-4.3515-3.357l-.6563-.2851.18-.6949a14.4854,14.4854,0,0,0,.2232-1.496c.2739-2.2691.4751-3.3877,1.1333-3.84a1.0437,1.0437,0,0,1,.8618-.1577c1.3984.437,5.894,1.773,7.7627,2.249,1.5259-3.5649,1.5469-4.5957,1.4531-4.8906a3.268,3.268,0,0,0-.5723-.3491,3.6215,3.6215,0,0,1-1.4018-1.0986c-.5669-1.01.1709-5.4092,1.0747-6.69a1.306,1.306,0,0,1,1.3091-.6518c.3071.0634.5742.1284.8349.1923a5.1151,5.1151,0,0,0,2.0386.2393c.148-.4595.4014-1.33.6314-2.12,1.4121-4.8486,1.7973-5.854,2.2163-6.2227l.0634-.061c1.5562-1.4976,3.3892-3.2564,3.7559-3.5688l.123-.0918a36.5874,36.5874,0,0,0,4.2037-4.0162,1.4792,1.4792,0,0,1,.5825-1.1953,2.0759,2.0759,0,0,1,1.49-.1211c.3926.05,1.5864.2012,1.7544-.0517l.125-.188,4.937-2.3643.2285.0225c1.57.1572,2.6514,1.3135,3.6055,2.334a7.868,7.868,0,0,0,1.74,1.55c.8428.4282,4.0718,2.4931,6.43,4.0014.88.563,1.72,1.1,2.063,1.3121.7256.0273,2.5454.1865,5.627.46,3.6782.3262,9.5639.8486,11.3823.86a19.9153,19.9153,0,0,0,.1333-2.9014c-1.4815-.731-3.5557-1.8975-3.7354-4.1753-.0874-.6675.5069-1.5669,1.8594-3.5337.9912-1.4414,2.34-3.4023,2.4776-4.3232-.0406-.7686.86-1.1734,3.4594-2.3423.5264-.2368,1.187-.5342,1.61-.7442a15.7808,15.7808,0,0,0-.7847-2.35c-.5029-.6679-.6347-.8432,5.3081-9.91.9019-1.3755,1.8321-2.7945,2.07-3.2168l.0332-.5381,3.2216-.3438a7.9724,7.9724,0,0,1,3.12.7783,6.0275,6.0275,0,0,0,2.3178.629c.7559-.2,3.1636-3.69,4.0572-5.4332-1.6162-.5185-2.7461-2.371-3.2608-3.9741a4.1963,4.1963,0,0,1-.2285-2.18,1.7862,1.7862,0,0,1-.2236-2.0489c.9658-1.7138,4.8208-2.2954,8.5366-.5078l-.02.0425c5.2329.582,39.0478,5.6724,43.3955,6.5376l.0088-.0806,4.3584.4483.1445.3462c.1465.144.5371.4707.8584.7387a16.6423,16.6423,0,0,1,2.9346,2.855c.4883.7305-.0225,1.7378-.5088,2.3638.0107.0571.0225.12.0351.186.2139,1.1377.3116,1.7608-.01,2.169-.4053.6787-3.8115,6.3745-4.6133,7.7451l-.1748.2094c-.2236.191-.3916.2281-1.8535.5069a25.5135,25.5135,0,0,0-3.9639.9565,1.7184,1.7184,0,0,0-.1709,1.586,1.7737,1.7737,0,0,0,.7139.6684l-.0518-.4941,2.11,1.3984-.3037.5049c-.2871,2.833-6.2412,11.2744-6.7061,11.5869a.386.386,0,0,0-.1738.3394,2.2534,2.2534,0,0,0,.7617,1.5405,20.2736,20.2736,0,0,0,3.002,1.7832,9.5127,9.5127,0,0,1,1.9238,1.1436c1.9326,1.4428,42.6025,25.103,44.6,26.2421,2.2148.4078,6.0019.899,7.1357.5406,1.2832-.4,3.4209-5.3882,4.6924-9.8311-.1621-6.2612,3.8213-44.7441,7.336-62.1767.0185-.0884.1054-.4439.2285-.9512.3105-1.2749,1.125-4.6206,1.2-5.1509.0009-1.2808,2.5263-4.1685,3.07-4.5981a1.068,1.068,0,0,1,.9189-.2681c1.7744.291,3.709.835,4.6787,2.6147.0205.0318.1006.1377.2041.2788a16.2632,16.2632,0,0,1,1.2188,1.816l2.6572-1.0879-2.043,2.32c.7881,2.8594,7.417,22.1284,11.8946,34.9951l.0547.1572-.0108.166a13.8171,13.8171,0,0,0,1.0283,3.17c1.419.36,8.3213,1.42,10.252,1.583l.1592-.3916,6.7256,4.1919,3.5908,6.5356c.6054.8194,1.0908,3.3208,1.8554,8.1118.1622,1.0171.2959,1.8584.3877,2.2964,1.6885,9.9854,7.9248,28.4942,9.3,30.3311a41.3818,41.3818,0,0,1,4.502,1.477,23.179,23.179,0,0,0,7.1309,1.83l.32.0122.2265.2261c1.0264,1.0224,2.128,2.0552,3.1944,3.0542,4.4931,4.2114,9.14,8.5659,10.9951,14.5483a159.7614,159.7614,0,0,1,5.0234,18.5132,14.6187,14.6187,0,0,0,3.6348-.2319c1.8291-.2827,3.5557-.55,5.6934.6269l.3291.1812.0771.3681c1.2344,5.8731,2.3135,10.274,3.6074,14.7168a7.9942,7.9942,0,0,0,2.8975,4.3135l1.8242,1.4468a174.5613,174.5613,0,0,1,15.2607,13.0625l.254.2529-.0137.3584a51.0758,51.0758,0,0,0,3.7724,19.876c2.9239,6.8843,3.2432,19.0122,3.2745,20.8149a21.8094,21.8094,0,0,1,1.37,5.1524c.1054.56.2256,1.1963.2783,1.3428l.06.1669.0039.2208a9.7413,9.7413,0,0,0,.11,3.0068c3.3008,5.5849,3.0313,11.6924,2.7715,17.5986-.0254.5684-.0508,1.1338-.0723,1.6963l-.01.2539-.1514.2041c-4.9824,6.6846-7.4551,14.417-6.9619,21.7754l.02.2949-.1728.2393c-3.3633,4.6562-9.1162,14.4219-9.6592,15.6191l-.01.2139-.2461.2275a78.6719,78.6719,0,0,1-6.1533,5.0635c-3.6162,2.7578-6.4726,4.9365-9.3262,9.6465a16.1111,16.1111,0,0,0-1.1445,4.5127c-.3789,2.4355-.77,4.9531-2.7734,6.8125-5.1485,4.4932-5.4942,5.4775-6.64,8.7383-.4629,1.3183-1.039,2.959-2.0781,5.2929a14.514,14.514,0,0,1-7.3311,7.253c-1.3515.8388-4.44,2.6924-5.4668,2.7939l-.0732.0069-.0732-.0059c-.7979-.0635-1.6045-.1191-2.4161-.1748-2.4541-.169-4.99-.3438-7.5224-.7578-2.709-.4942-5.8574.1484-8.6377.8252-.0606.0908-.1465.2226-.251.38-1.3271,1.9882-4.8086,7.1806-8.74,6.8105Zm1.0537-2.124.0821.2588c2.7959-.3174,5.6494-4.5937,6.6435-6.083a4.8,4.8,0,0,1,.5879-.8008l.1553-.1426.2051-.0507c3.0107-.7393,6.48-1.4844,9.583-.9151,2.4414.3994,4.9394.5713,7.3555.7373.7851.0537,1.5644.1074,2.3359.169a31.5245,31.5245,0,0,0,4.78-2.586l.1386-.0683a12.8481,12.8481,0,0,0,6.4776-6.3731c1.0312-2.3193,1.5947-3.9258,2.0478-5.2158,1.1895-3.3857,1.6338-4.6523,7.0889-9.4131,1.5684-1.456,1.9-3.5879,2.251-5.8467a17.2134,17.2134,0,0,1,1.3261-5.0459c3.0508-5.04,6.1651-7.414,9.7705-10.164,1.8594-1.418,3.78-2.8828,5.9375-4.874a177.246,177.246,0,0,1,9.6241-15.667,34.7708,34.7708,0,0,1,7.1494-22.3633c.0185-.4824.04-.9668.0615-1.4531.25-5.667.5088-11.5274-2.5859-16.7706a9.6266,9.6266,0,0,1-.3047-3.7226c-.0791-.2744-.1621-.708-.3057-1.4688a20.4806,20.4806,0,0,0-1.28-4.8173l-.1123-.19-.0029-.2207c-.001-.1328-.1777-13.4082-3.1484-20.4052a53.108,53.108,0,0,1-3.9112-20.2125,176.6057,176.6057,0,0,0-14.87-12.6879l-1.833-1.4537a9.6171,9.6171,0,0,1-3.459-5.1914c-1.2636-4.3305-2.333-8.6718-3.5429-14.3979a6.7248,6.7248,0,0,0-4.3262-.2759,15.06,15.06,0,0,1-4.667.1734l-.5615-.0777-.125-.5527a163.3752,163.3752,0,0,0-5.1084-18.9258c-1.7383-5.6006-6.2237-9.8047-10.5625-13.8706-.9981-.9356-2.0274-1.9-3.0059-2.8662a25.7766,25.7766,0,0,1-7.3144-1.9151,40.4934,40.4934,0,0,0-4.5244-1.477c-2.1133-.7817-8.9053-23.209-10.3174-31.5625-.09-.4209-.2285-1.291-.3965-2.3433-.3213-2.01-1.0723-6.7163-1.54-7.3784l-.1-.1421-3.4179-6.2207-5.3057-3.3071c-.9551-.02-4.248-.4941-6.0957-.7788-5.416-.835-5.625-.9946-5.8232-1.4439a15.0624,15.0624,0,0,1-1.3457-4.0981c-8.8252-25.3623-11.28-32.7085-11.8086-35.0117-.0264-.02-.0528-.0415-.0782-.065l.0508-.0576a3.4067,3.4067,0,0,1-.0976-.6806l-.2813-.1128a.527.527,0,0,0-.0381.3046,9.45,9.45,0,0,0-1.2031-1.8613,3.037,3.037,0,0,1-.3545-.5288c-.5684-1.0376-1.9238-1.4458-3.2363-1.6792a13.9158,13.9158,0,0,0-2.3252,3.2007,50.5524,50.5524,0,0,1-1.2451,5.5464c-.1182.4863-.2012.8271-.2168.9-3.7139,18.4209-7.4951,56.8-7.2979,61.91l.0059.13-.0362.125c-.48,1.6958-3.0175,10.1988-5.8115,11.0694-1.92.61-7.4336-.3995-8.0556-.5166l-.1612-.0479c-.3593-.1484-42.8613-24.8379-45.1474-26.6206l-.01.01c-.1592-.1338-.9268-.5391-1.543-.8648a19.9076,19.9076,0,0,1-3.3183-2.0019,3.8333,3.8333,0,0,1-1.3164-2.8653,2.0292,2.0292,0,0,1,.8281-1.5566c.8115-.9033,5.2422-7.582,5.9668-9.8731a5.4293,5.4293,0,0,1-.8994-.4194c-1.6758-.9809-2.07-2.68-1.0557-4.5439.3438-.6338,1.332-.9615,5.0352-1.6685.3935-.0752.8242-.1572,1.0859-.2143,1.0029-1.7017,3.9512-6.6329,4.4307-7.4346-.0166-.2612-.12-.815-.168-1.07-.1152-.6138-.15-.7989-.0371-1.0645l.0586-.1382.1045-.1089a2.3647,2.3647,0,0,0,.4951-.7729,19.0391,19.0391,0,0,0-2.5234-2.3648c-.4483-.3754-.7334-.6152-.9209-.7949l-3.8614-.4345c-2.7715-.5674-37.4-5.648-42.6718-6.4112l-.07.25-.8789-.4228c-3.18-1.53-6.0044-.8657-6.3984-.1656-.0732.13.2134.41.5347.6192l.0034.0019-.8926,1.3746a.5756.5756,0,0,0,.7261-.315,5.761,5.761,0,0,0,1.1972,3.1807,2.5589,2.5589,0,0,0,1.3443,1.0117.8881.8881,0,0,1,.9082.0127.9452.9452,0,0,1,.39,1.082c-.26,1.1616-3.84,7.2793-5.8818,7.499a7.1975,7.1975,0,0,1-3.0386-.7456,6.6959,6.6959,0,0,0-2.4189-.6616l-2.0074.2188c-.288.4824-.8642,1.3676-2.0288,3.1445-1.6616,2.5347-4.6723,7.1274-5.1777,8.3447a20.0455,20.0455,0,0,1,1.0269,3.1836l.0981.374-.2266.3135c-.23.3189-.6587.5318-2.5522,1.3833-.7969.3584-2.0689.93-2.5352,1.22-.24,1.1978-1.2929,2.7994-2.7241,4.88a17.584,17.584,0,0,0-1.5723,2.5171c.1636,1.3931,1.6167,2.209,3.0953,2.9287a.9576.9576,0,0,1,.4882.5327c.3912.9322-.0131,4.4585-.1367,4.7578-.3193.7774-.3471.84-13.0093-.2832-2.6084-.2314-5.3012-.4707-5.6826-.458l-.1767.0059-.1641-.0674c-.1255-.0517-.2085-.1-2.4043-1.5044-2.1977-1.4057-5.5195-3.53-6.3149-3.935a9.13,9.13,0,0,1-2.169-1.8775,5.2614,5.2614,0,0,0-2.3642-1.7895l-4.127,1.976c-.7807.87-2.2051.689-3.1684.5674-.0679-.0088-.1441-.0185-.2188-.0273a1.1506,1.1506,0,0,1-.0342.1328c-.3369,1.0615-3.938,4.24-4.88,4.9355l.003.0039c-.376.3213-2.8653,2.7164-3.6831,3.5035l-.0655.0629a53.6234,53.6234,0,0,0-1.7768,5.4981c-.7988,2.7436-.8135,2.7563-1.0557,2.9673l-.1211.105-.1513.0517a5.5993,5.5993,0,0,1-3.3038-.1094c-.1557-.038-.3139-.0766-.475-.1137a12.4055,12.4055,0,0,0-.9385,4.8286,2.9313,2.9313,0,0,0,.7529.4946,3.2529,3.2529,0,0,1,1.1523.8526l.0567.0854c.67,1.1631-.0913,3.48-1.44,6.6l-.43,1.0327-.6577-.1255c-1.1333-.2158-6.1407-1.6972-8.06-2.2837a19.889,19.889,0,0,0-.4009,2.4707c-.0508.4219-.0976.81-.1489,1.1368a32.0049,32.0049,0,0,1,4.7417,3.8637l.0352.0957c.4038,1.3462-2.7876,5.7178-2.8208,5.76-.3023.3818-.6114.7251-1.0572.7373a3.3631,3.3631,0,0,1-2.7876-1.1841,6.6394,6.6394,0,0,1-1.226-2.5713,7.3845,7.3845,0,0,0-.7-1.7451,2.6619,2.6619,0,0,0-.9815-.7046,8.6165,8.6165,0,0,1-1.0171-.6133l-.0835-.07-1.624-1.5566c-.2583.3305-.5952.7446-1.0264,1.2739-1.9072,2.3384-5.434,6.6631-5.498,8.771.0854.3355.1655.668.2451.9966a13.154,13.154,0,0,0,1.8472,4.8408l.1338.187.0171.229c.1948,2.5894-3.9873,5.7383-5.1748,6.5777a25.2542,25.2542,0,0,0-2.2793,6.0478c-.6993,2.4971-1.36,4.856-2.9839,6.7754-.9932.98-23.1265,13.1089-26.5733,14.1851l.0015.0029a29.7932,29.7932,0,0,0-6.0781,4.0625,39.5426,39.5426,0,0,1-5.458,3.834c-1.6143.7329-19.9161,12.1992-21.02,13.3476-1.1313,1.12-3.0688,2.9419-4.6259,4.4058-.8926.84-1.813,1.7051-2.0762,1.9643-1.1343,2.2969-3.6665,2.8028-5.7061,3.21-.5644.1128-1.1015.22-1.5356.3545a5.2187,5.2187,0,0,0-.6084,6,12.9491,12.9491,0,0,1,1.8047,4.3965l.0249.2094-.0791.1954a28.3862,28.3862,0,0,0-1.6968,10.6352c.4629.6367.9214,2.0825,1.8769,5.32a60.24,60.24,0,0,0,1.9415,5.9063,21.9079,21.9079,0,0,0,2.4389,2.6523,16.0028,16.0028,0,0,1,3.2373,3.9c1.83,1.0508,1.56,3.3145,1.3413,5.15-.0576.4834-.1147.958-.1313,1.3955l-.0523.2578c-.6118,1.6221-3.3193,1.6758-4.0869,1.6592a23.8761,23.8761,0,0,1-2.8725.2646c-.253.0137-.54.0293-.813.0469a36.9662,36.9662,0,0,0,3.3652,3.1846c2.3643,2.0664,4.8086,4.2041,5.9985,6.831a8.0556,8.0556,0,0,0,2.5728,2.7256,9.3841,9.3841,0,0,1,3.0542,3.3389c1.2041,2.6592,5.8911,9.1377,8.1436,12.251.5918.8183,1.0478,1.4492,1.2846,1.792a4.7074,4.7074,0,0,1,.4971,2.6816,3.5544,3.5544,0,0,0,.3267,2.0283,36.0012,36.0012,0,0,1,1.5625,4.4073c1.3125,3.8916,3.4951,10.3623,4.1084,11.4589.0629.0381.1406.0821.226.1329a4.7428,4.7428,0,0,1,1.8,1.5146c2.45.36,3.792,4.3232,3.9507,4.8184.4072,1.6484.98,4.6728,1.4859,7.3408.4233,2.2353.8232,4.3467.9843,4.9023a26.3314,26.3314,0,0,1,.3741,12.9824l-.0811.3389-4.1,2.417-.5122,1.1426a3.5218,3.5218,0,0,1-.3257,1.1777,7.221,7.221,0,0,0-.2944.833l.0791.085-.0137.34a4.2915,4.2915,0,0,1-.1025.625,4.59,4.59,0,0,0-.1338.9815c.8823.5254,2.7851,2.0869,7.5859,6.4072.6343.68,3.146,1.6045,11.8125,2.4492l.4746.0469a43.5212,43.5212,0,0,0,11.5479-4.6406l.0063-.1719.4605-.209c2.3745-1.0791,7.86-6.9385,8.2983-7.6924l.0918-.1572.1563-.1162c1.7412-1.209,7.351-4.7832,9.1162-5.59l.497-.2529c3.59-1.8213,6.982-3.541,11.2163-3.98,3.9307-.4092,6.7828-.4922,9.5411-.5722,1.3862-.0411,2.7749-.0811,4.3042-.1622l.4087-.1005c2.7265-.67,5.5454-1.3633,7.0708-3.4522a76.2068,76.2068,0,0,0,3.832-9.1006c.5439-1.998,3.33-3.3886,6.1367-4.6377.3115-.1386.6753-.3007.9126-.4179l.0064-.1582.5214-.1856a10.67,10.67,0,0,0,3.2642-2.1318c.5361-.4512,1.09-.918,1.6982-1.3369l.127-.0723a61.8438,61.8438,0,0,1,7.917-2.792,44.4781,44.4781,0,0,0,9.4111-3.63l.2027-.1142.1152.0048c.7148-.2373,4.5747-1.8837,7.6992-3.2167,6.1777-2.6358,7.4785-3.169,7.9111-3.2715,1.2339-.4073,2.5371-.7647,3.7979-1.11a45.158,45.158,0,0,0,6.6518-2.1992c3.941-1.7871,8.6451-.8779,11.8394-.0371a13.34,13.34,0,0,1,4.45,1.9473,13.2868,13.2868,0,0,0,3.0381,1.4863c.4062.0849,1.9028.4482,3.7393.8945,2.8842.7,6.4736,1.5723,8.34,1.9736l.167.0362.1386.1a3.0584,3.0584,0,0,0,1.5743.4043,6.5043,6.5043,0,0,1,1.7876.34l.1914.1026a6.2159,6.2159,0,0,1,1.3369,1.4443c.52.7041.8418,1.1064,1.4043,1.1836l.4551.0615.1845.4209c.378.68,6.5039,10.0381,11.1836,13.3721l.2246.1592.0821.2636c.5673,1.8155,2.5586,7.4786,3.0986,8.1211l.123.1133.0469.13a11.8241,11.8241,0,0,0,3.3184,4.4922c.9863-1.4893,3.24-4.8447,4.5371-6.3721.1-.17.2568-.4463.4551-.7969,1.7636-3.1142,3.5556-6.1494,4.7685-7.3691a6.3068,6.3068,0,0,1,1.5059-1.5264c.0722-.06.1377-.1132.1894-.1572a15.4828,15.4828,0,0,1,3.292-4.1543,12.4737,12.4737,0,0,0,3.0127-3.8916,13.573,13.573,0,0,1,2.9268-3.3887c.4355-.4257.9609-.9375,1.1972-1.207l-.582-5.0322,2.1738,4.8652a.8651.8651,0,0,1,.0889.4453,51.3979,51.3979,0,0,1-.02,7.6045c-.0771,1.5244-.1562,3.1016-.1553,4.5684l-.0088.122a4.339,4.339,0,0,1-1.4257,2.21c-.2852.291-.8155.834-.8223,1.0332l.2471.4854-.3506.4121a3.5152,3.5152,0,0,0-.71,2.2939c-.0293.3819-.0615.8047-.1387,1.2588a1.0981,1.0981,0,0,0,.2432.1025.5971.5971,0,0,0-.2656.02c-.0088.0508-.0195.1015-.03.1533l-.0264.0977a.5534.5534,0,0,0,.0274-.2422.7829.7829,0,0,0-.24.1289l.4882.62.8467.0273-.0371.54a8.03,8.03,0,0,1-.9561,3.3506l-.1416.17-.2089.0762a2.42,2.42,0,0,0-1.4473,1.5117,3.9564,3.9564,0,0,1-1.68,1.9629l-.0029.081a6.3045,6.3045,0,0,0,1.8838-.3262,4.799,4.799,0,0,1,3.4492-.0566,4.1016,4.1016,0,0,1,.374-.5576l.1152-.1543c.3233-.3867.2989-.8145.2325-1.4785a2.1388,2.1388,0,0,1,1.1377-2.5352c1.3906-.5273,1.7754-1.7305,2.29-3.6513.1387-.5176.2813-1.0459.4561-1.5645l.3027-.8975.3154.16.0606-.1416a3.5461,3.5461,0,0,1,.4238.207,5.6277,5.6277,0,0,1,2.4668,3.5166,5.0353,5.0353,0,0,0,.9365,1.9,2.159,2.159,0,0,1,.7149.6817l.0673.0644-.0214.0147a1.4224,1.4224,0,0,1,.1513.4462,1.4851,1.4851,0,0,1-.375,1.22c-.9677,1.4433-1.1826,2.8047-.5888,3.7392l.3984.626-.584.458c-.4375.3428-.9756.86-1.4961,1.3613-.5185.4991-.9375.8965-1.2949,1.1934a7.26,7.26,0,0,0,1.5889,1.042,4.6,4.6,0,0,0,1.8076-.7012,4.02,4.02,0,0,1,2.9668-.7461l.1748.0508.1357.12a5.2609,5.2609,0,0,0,1.5293.794,5.78,5.78,0,0,1,2.27,1.3467l.5029.5478-.2276.2539c.1123.374.333,1.0283.5479,1.666a66.6943,66.6943,0,0,1,3.1494,11.9776,13.8645,13.8645,0,0,1,.8789,3.5713c.4238,2.2109,1.0635,5.5507,1.6387,6.3837a14.2425,14.2425,0,0,1,.94,1.64c.6836,1.33,1.1221,2.0957,2.1758,2.3476a81.9813,81.9813,0,0,1,10.6963,5.0987c.6631-.0362,1.3359-.1143,1.9883-.19a23.3673,23.3673,0,0,1,2.6435-.2022l.2178.0313a22.7932,22.7932,0,0,1,4.22,2.3564c1.7754,1.1152,5.1026,3.1846,5.8516,3.0918a17.319,17.319,0,0,1,4.2637-.3174,12.9752,12.9752,0,0,0,4.8359-.5508,23.11,23.11,0,0,0,3.1592-2.6982c3.1347-2.9365,4.5117-4.1026,5.6123-3.6885l.6777.2539-.168.7031c-.2666,1.1192,2.8887,3.6436,4.7159,4.6651,1.3242.2246,7.4755,1.3613,9.6689,2.9365.0293-.0029.0576-.0059.0869-.0068Zm-80.3212-56.4033-.0049.0078a.82.82,0,0,0-.1016.2432ZM859.94,404.8789Zm47.3365-5.0552a.7707.7707,0,0,0,.0883.043C907.3364,399.8525,907.3066,399.8379,907.2769,399.8237Zm-2.3487-4.3515Zm0-.1128.0035.0415C904.9307,395.3882,904.93,395.3745,904.9277,395.3594Zm72.4717-14.8057Zm9.7754-13.2851.0068.01Zm66.47-17.0313.1875.4565a.762.762,0,0,0,.2041-.21l-.1884-.1651Z" transform="translate(-744.6699 -344.3564)"/><path class="b" d="M919.22,598.3193a.2807.2807,0,0,1-.01-.09h0a.8135.8135,0,0,1,.75-.8h0a.8051.8051,0,0,1,.89.74h0v.08h0a.8212.8212,0,0,1-.74.81h-.08A.8144.8144,0,0,1,919.22,598.3193Zm-.61-6.4892v-.09h0a.8138.8138,0,0,1,.75-.8007h0a.8178.8178,0,0,1,.89.74h0v.08h0a.8137.8137,0,0,1-.74.8095h-.08A.8306.8306,0,0,1,918.61,591.83Zm-.6-6.49v-.08h0a.815.815,0,0,1,.75-.81h0a.8309.8309,0,0,1,.89.7393h0v.08h0a.8155.8155,0,0,1-.74.8106h-.08A.8243.8243,0,0,1,918.01,585.34Zm-.6-6.49v-.08h0a.8145.8145,0,0,1,.74-.8095h0a.819.819,0,0,1,.89.74h0a.2783.2783,0,0,1,.01.09h0a.8124.8124,0,0,1-.74.8h0a.2548.2548,0,0,1-.08.01h0A.8248.8248,0,0,1,917.41,578.85Zm-.6-6.48v-.09h0a.8058.8058,0,0,1,.74-.8008h0a.8113.8113,0,0,1,.89.7305h0a.2807.2807,0,0,1,.01.09h0a.83.83,0,0,1-.75.81h-.07A.8232.8232,0,0,1,916.81,572.37Zm-.6-6.49v-.09h0a.8042.8042,0,0,1,.74-.8h0a.8114.8114,0,0,1,.89.7393h0a.2277.2277,0,0,1,.01.08h0a.8236.8236,0,0,1-.75.81h-.07A.8243.8243,0,0,1,916.21,565.88Zm-.6-6.49v-.08h0a.814.814,0,0,1,.74-.81h0a.8187.8187,0,0,1,.89.74h0c0,.0293.01.05.01.0791h0a.8318.8318,0,0,1-.75.8106h-.07A.8167.8167,0,0,1,915.61,559.39Zm-.6-6.49v-.08h0a.8141.8141,0,0,1,.74-.8095h0a.8185.8185,0,0,1,.89.74h0c0,.03.01.06.01.09h0a.8294.8294,0,0,1-.75.8h0a.1748.1748,0,0,1-.07.01h0A.8243.8243,0,0,1,915.01,552.8994Zm-.6-6.48v-.09h0a.8226.8226,0,0,1,.74-.8106h0a.8191.8191,0,0,1,.89.74h0v.09h0a.8046.8046,0,0,1-.74.8h0a.2042.2042,0,0,1-.08.0108h0A.8225.8225,0,0,1,914.41,546.42Zm-.6-6.49v-.08h0a.8138.8138,0,0,1,.74-.81h0a.8184.8184,0,0,1,.89.74h0v.08h0a.8149.8149,0,0,1-.74.81h-.08A.8216.8216,0,0,1,913.81,539.93Zm-.6-6.49c0-.03-.01-.06-.01-.08h0a.8319.8319,0,0,1,.75-.81h0a.8187.8187,0,0,1,.89.74h0v.08h0a.8143.8143,0,0,1-.74.81h0c-.03,0-.05.01-.08.01h0A.8155.8155,0,0,1,913.21,533.44Zm-.6-6.49a.19.19,0,0,1-.01-.08h0a.8231.8231,0,0,1,.75-.8095h0a.8183.8183,0,0,1,.89.74h0v.09h0a.8123.8123,0,0,1-.74.8h0a.2548.2548,0,0,1-.08.01h0A.8155.8155,0,0,1,912.61,526.95Zm-.6-6.48a.281.281,0,0,1-.01-.09h0a.83.83,0,0,1,.75-.81h0a.82.82,0,0,1,.89.75h0v.08h0a.8217.8217,0,0,1-.74.81h-.08A.8081.8081,0,0,1,912.01,520.47Zm-.61-6.49v-.09h0a.8211.8211,0,0,1,.75-.8h0a.8191.8191,0,0,1,.89.74h0v.08h0a.8149.8149,0,0,1-.74.81h-.08A.8239.8239,0,0,1,911.4,513.98Zm-.6-6.49v-.08h0a.8228.8228,0,0,1,.74-.81h0a.8286.8286,0,0,1,.9.74h0v.08h0a.816.816,0,0,1-.75.81h-.07A.8163.8163,0,0,1,910.8,507.49Zm-.6-6.49v-.08h0a.8149.8149,0,0,1,.74-.81h0a.8339.8339,0,0,1,.9.74h0v.09h0a.8213.8213,0,0,1-.75.8h0a.1647.1647,0,0,1-.07.01h0A.8252.8252,0,0,1,910.2,501Zm-.6-6.49v-.08h0a.8225.8225,0,0,1,.74-.81h0a.819.819,0,0,1,.89.74h0a.2835.2835,0,0,1,.01.09h0a.83.83,0,0,1-.75.81h-.07A.8253.8253,0,0,1,909.6,494.51Zm-.6-6.48v-.09h0a.8124.8124,0,0,1,.74-.8h0a.8122.8122,0,0,1,.89.74h0a.2258.2258,0,0,1,.01.08h0a.8231.8231,0,0,1-.75.81h-.07A.8243.8243,0,0,1,909,488.03Zm-.6-6.49v-.08h0a.8145.8145,0,0,1,.74-.81h0a.8189.8189,0,0,1,.89.74h0c0,.03.01.06.01.08h0a.8319.8319,0,0,1-.75.81h-.07A.8239.8239,0,0,1,908.4,481.54Zm-.6-6.49v-.08h0a.8145.8145,0,0,1,.74-.81h0a.8187.8187,0,0,1,.89.74h0c0,.03.01.06.01.09h0a.83.83,0,0,1-.75.8h0a.1748.1748,0,0,1-.07.01h0A.8247.8247,0,0,1,907.8,475.05Zm-.6-6.48v-.09h0a.8221.8221,0,0,1,.74-.81h0a.8185.8185,0,0,1,.89.74h0v.09h0a.8049.8049,0,0,1-.74.8h0a.2129.2129,0,0,1-.08.01h0A.815.815,0,0,1,907.2,468.57Zm-.6-6.49v-.09h0a.805.805,0,0,1,.74-.8h0a.8119.8119,0,0,1,.89.74h0v.08h0a.8149.8149,0,0,1-.74.81h-.08A.8146.8146,0,0,1,906.6,462.08Zm-.6-6.49a.2408.2408,0,0,1-.01-.08h0a.8241.8241,0,0,1,.75-.81h0a.8189.8189,0,0,1,.89.74h0v.08h0a.8139.8139,0,0,1-.74.81H906.81A.8063.8063,0,0,1,906,455.59Zm-.6-6.49a.2121.2121,0,0,1-.01-.08h0a.8237.8237,0,0,1,.75-.81h0a.8188.8188,0,0,1,.89.74h0v.09h0a.8122.8122,0,0,1-.74.8h0c-.03,0-.05.01-.08.01h0A.8155.8155,0,0,1,905.4,449.1Zm-.6-6.48a.28.28,0,0,1-.01-.09h0a.8306.8306,0,0,1,.75-.81h0a.8188.8188,0,0,1,.89.74h0v.09h0a.8045.8045,0,0,1-.74.8h0a.2155.2155,0,0,1-.08.01h0A.8074.8074,0,0,1,904.8,442.62Zm-.6-6.49a.2831.2831,0,0,1-.01-.09h0a.8213.8213,0,0,1,.75-.8h0a.8118.8118,0,0,1,.89.74h0v.08h0a.814.814,0,0,1-.74.81h-.08A.8077.8077,0,0,1,904.2,436.13Zm-.6-6.49a.251.251,0,0,1-.01-.0795h0a.8142.8142,0,0,1,.74-.81h0a.8225.8225,0,0,1,.9.74h0v.08h0a.8151.8151,0,0,1-.74.81h-.08A.8.8,0,0,1,903.6,429.64Zm-.61-6.49v-.08h0a.815.815,0,0,1,.74-.81h0a.8282.8282,0,0,1,.9.74h0v.09h0a.8129.8129,0,0,1-.75.8h0c-.02,0-.05.01-.07.01h0A.8253.8253,0,0,1,902.99,423.15Zm-.6-6.49v-.08h0a.8221.8221,0,0,1,.74-.81h0a.82.82,0,0,1,.89.75h0a.1971.1971,0,0,1,.01.08h0a.83.83,0,0,1-.75.81h-.07A.8254.8254,0,0,1,902.39,416.66Zm-.6-6.48v-.09h0a.8117.8117,0,0,1,.74-.8h0a.8048.8048,0,0,1,.89.74h0a.1984.1984,0,0,1,.01.08h0a.8232.8232,0,0,1-.75.81h-.08A.8217.8217,0,0,1,901.79,410.18Zm-.6-6.49a.8188.8188,0,0,1,.74-.89h0a.8187.8187,0,0,1,.89.74h0a.8187.8187,0,0,1-.74.89H902A.8217.8217,0,0,1,901.19,403.69Z" transform="translate(-744.6699 -344.3564)"/><path class="b" d="M1040.43,674.1494a.82.82,0,0,1,.82-.83h0a.8087.8087,0,0,1,.8193.8106h0a.8224.8224,0,0,1-.81.83h-.01A.822.822,0,0,1,1040.43,674.1494Zm-.05-6.5195a.83.83,0,0,1,.81-.83h0a.82.82,0,0,1,.83.82h0a.8146.8146,0,0,1-.81.8194h-.01A.8148.8148,0,0,1,1040.38,667.63Zm-.05-6.52a.8078.8078,0,0,1,.81-.8194h0a.8088.8088,0,0,1,.82.81h0a.8241.8241,0,0,1-.8106.83h-.01A.8148.8148,0,0,1,1040.33,661.1094Zm-.0606-6.51a.8312.8312,0,0,1,.8106-.83h0a.82.82,0,0,1,.83.82h0a.8158.8158,0,0,1-.8106.82h-.01A.8227.8227,0,0,1,1040.27,654.6Zm-.05-6.5195a.8157.8157,0,0,1,.8106-.82h0a.8235.8235,0,0,1,.8291.8095h0a.8316.8316,0,0,1-.8194.83h0A.8231.8231,0,0,1,1040.22,648.08Zm-.05-6.5108a.8166.8166,0,0,1,.81-.8291h0a.8169.8169,0,0,1,.82.8194h0a.8092.8092,0,0,1-.81.82h-.0107A.8072.8072,0,0,1,1040.17,641.5693Zm-.0605-6.5195a.8156.8156,0,0,1,.8105-.82h0a.8177.8177,0,0,1,.83.81h0a.8311.8311,0,0,1-.8105.83h-.01A.831.831,0,0,1,1040.1094,635.05Zm-.05-6.51a.8238.8238,0,0,1,.8105-.83h0a.8169.8169,0,0,1,.8194.82h0a.8018.8018,0,0,1-.81.8193h-.01A.8127.8127,0,0,1,1040.06,628.54Zm-.06-6.52a.814.814,0,0,1,.81-.8193h0a.81.81,0,0,1,.83.81h0a.8229.8229,0,0,1-.81.83h-.0108A.83.83,0,0,1,1040,622.02Zm-.05-6.51a.83.83,0,0,1,.81-.83h0a.8322.8322,0,0,1,.83.82h0a.8168.8168,0,0,1-.82.8193h0A.8139.8139,0,0,1,1039.95,615.51Zm-.0508-6.52a.81.81,0,0,1,.8106-.82h0a.8093.8093,0,0,1,.82.81h0a.8241.8241,0,0,1-.8106.83h-.01A.8155.8155,0,0,1,1039.8994,608.99Zm-.06-6.5107a.8317.8317,0,0,1,.81-.83h0a.82.82,0,0,1,.83.82h0a.8148.8148,0,0,1-.81.82h-.01A.822.822,0,0,1,1039.84,602.48Zm-.05-6.5195a.8088.8088,0,0,1,.81-.82h0a.8306.8306,0,0,1,.83.8106h0a.8337.8337,0,0,1-.82.83h0A.8176.8176,0,0,1,1039.79,595.96Zm-.0605-6.51a.8323.8323,0,0,1,.82-.83h0a.8148.8148,0,0,1,.82.81h0a.8117.8117,0,0,1-.8105.83h-.01A.8224.8224,0,0,1,1039.7295,589.45Zm-.05-6.52a.8156.8156,0,0,1,.8105-.82h0a.8236.8236,0,0,1,.8291.81h0a.83.83,0,0,1-.81.83h-.01A.8177.8177,0,0,1,1039.68,582.93Zm-.05-6.51a.8238.8238,0,0,1,.81-.83h0a.8178.8178,0,0,1,.82.82h0a.8091.8091,0,0,1-.81.8193h-.0107A.8063.8063,0,0,1,1039.63,576.42Zm-.0606-6.52a.8175.8175,0,0,1,.82-.8193h0a.8081.8081,0,0,1,.82.8095h0a.8305.8305,0,0,1-.8106.83h-.01A.8311.8311,0,0,1,1039.5693,569.8994Zm-.05-6.51a.8242.8242,0,0,1,.8106-.83h0a.833.833,0,0,1,.83.82h0a.8178.8178,0,0,1-.82.82h0A.8157.8157,0,0,1,1039.52,563.39Zm-.05-6.5195a.8028.8028,0,0,1,.8106-.82h0a.809.809,0,0,1,.8193.81h0a.8232.8232,0,0,1-.81.83h-.01A.8156.8156,0,0,1,1039.47,556.87Zm-.06-6.5107a.8161.8161,0,0,1,.81-.8291h0a.819.819,0,0,1,.83.8193h0a.8154.8154,0,0,1-.81.82h-.0107A.8154.8154,0,0,1,1039.41,550.3594Zm-.0508-6.52a.8094.8094,0,0,1,.8105-.82h0a.81.81,0,0,1,.82.8106h0a.8182.8182,0,0,1-.8105.83h-.01A.8221.8221,0,0,1,1039.3594,543.84ZM913.2,537.58a.8241.8241,0,0,1,.79-.85h0a.815.815,0,0,1,.84.79h0a.8169.8169,0,0,1-.79.85h-.03A.809.809,0,0,1,913.2,537.58Zm6.51-.23v-.02h0a.8188.8188,0,0,1,.79-.83h0a.8319.8319,0,0,1,.85.8h0v.02h0a.8189.8189,0,0,1-.8.82h-.03A.815.815,0,0,1,919.71,537.35Zm119.59-.02a.8323.8323,0,0,1,.82-.83h0a.8172.8172,0,0,1,.8194.82h0a.8144.8144,0,0,1-.81.82h-.01A.8215.8215,0,0,1,1039.3,537.33Zm-113.08-.2v-.03h0a.8111.8111,0,0,1,.79-.82h0a.824.824,0,0,1,.85.79h0v.02h0a.8337.8337,0,0,1-.79.83h-.03A.8246.8246,0,0,1,926.22,537.13Zm6.51-.23v-.02h0a.8334.8334,0,0,1,.79-.83h0a.8307.8307,0,0,1,.85.79h0v.02h0a.8264.8264,0,0,1-.79.83h-.03A.8245.8245,0,0,1,932.73,536.9Zm6.51-.23v-.02h0a.8184.8184,0,0,1,.79-.82h0a.8178.8178,0,0,1,.85.79h0v.02h0a.8185.8185,0,0,1-.79.82h-.03A.8179.8179,0,0,1,939.24,536.67Zm6.51-.22v-.03h0a.8181.8181,0,0,1,.79-.82h0a.8115.8115,0,0,1,.85.79h0v.02h0a.826.826,0,0,1-.79.83h-.03A.8245.8245,0,0,1,945.75,536.45Zm6.52-.23c-.01-.01-.01-.01-.01-.02h0a.8338.8338,0,0,1,.79-.83h0a.8191.8191,0,0,1,.85.79h0v.02h0a.8132.8132,0,0,1-.79.83h-.03A.8086.8086,0,0,1,952.27,536.22Zm6.51-.23v-.02h0a.8042.8042,0,0,1,.79-.82h0a.8026.8026,0,0,1,.84.79h0v.02h0a.804.804,0,0,1-.79.82h0a.0336.0336,0,0,1-.02.01h0A.82.82,0,0,1,958.78,535.99Zm6.51-.22v-.02h0a.8133.8133,0,0,1,.79-.83h0a.8086.8086,0,0,1,.84.79h0v.02h0a.82.82,0,0,1-.79.83h-.03A.809.809,0,0,1,965.29,535.77Zm6.51-.23v-.02h0a.8194.8194,0,0,1,.79-.83h0a.83.83,0,0,1,.85.79h0v.02h0a.8261.8261,0,0,1-.79.83H972.62A.8173.8173,0,0,1,971.8,535.54Zm6.51-.23v-.02h0a.8111.8111,0,0,1,.79-.82h0a.8251.8251,0,0,1,.8506.79h0v.02h0a.818.818,0,0,1-.79.82h-.03A.8106.8106,0,0,1,978.31,535.31Zm6.51-.22v-.02h0a.8272.8272,0,0,1,.79-.83h0a.8318.8318,0,0,1,.8506.79h0v.02h0a.8342.8342,0,0,1-.79.83h-.03A.8256.8256,0,0,1,984.8193,535.09Zm6.5108-.23v-.02h0a.8334.8334,0,0,1,.79-.83h0a.8307.8307,0,0,1,.85.79h0v.02h0a.8135.8135,0,0,1-.79.83h-.03A.824.824,0,0,1,991.33,534.86Zm6.51-.23v-.02h0a.8174.8174,0,0,1,.79-.82h0a.8049.8049,0,0,1,.85.79h0v.02h0a.804.804,0,0,1-.79.82H998.66A.8175.8175,0,0,1,997.84,534.63Zm6.51-.22v-.02h0a.8282.8282,0,0,1,.8-.8295h0a.8163.8163,0,0,1,.8408.7895h0v.02h0a.8138.8138,0,0,1-.79.83h-.03A.8249.8249,0,0,1,1004.35,534.41Zm6.52-.23v-.02h0a.8191.8191,0,0,1,.79-.83h0a.8162.8162,0,0,1,.84.79h0v.03h0a.8041.8041,0,0,1-.79.82h-.0205A.8106.8106,0,0,1,1010.87,534.18Zm6.51-.22v-.03h0a.8041.8041,0,0,1,.79-.82h0a.8231.8231,0,0,1,.85.79h0v.02h0a.8334.8334,0,0,1-.79.83h-.04A.8153.8153,0,0,1,1017.38,533.96Zm6.51-.23v-.02h0a.8133.8133,0,0,1,.79-.83h0a.8247.8247,0,0,1,.8506.79h0v.02h0a.8275.8275,0,0,1-.79.83h-.03A.8178.8178,0,0,1,1023.89,533.73Zm6.51-.23v-.02h0a.812.812,0,0,1,.79-.82h0a.818.818,0,0,1,.8505.79h0v.02h0a.8186.8186,0,0,1-.79.82h-.03A.8256.8256,0,0,1,1030.3994,533.5Zm6.5108-.22v-.03h0a.818.818,0,0,1,.79-.82h0a.8241.8241,0,0,1,.85.79h0v.02h0a.8334.8334,0,0,1-.79.83h-.03A.824.824,0,0,1,1036.91,533.28Z" transform="translate(-744.6699 -344.3564)"/><path class="b" d="M1009.38,531v-.02h0a.8177.8177,0,0,1,.8-.81h0a.8086.8086,0,0,1,.84.79h0v.02h0a.8127.8127,0,0,1-.8.82H1010.2A.8194.8194,0,0,1,1009.38,531Zm-.16-6.51v-.02h0a.8264.8264,0,0,1,.8-.82h0a.8173.8173,0,0,1,.84.8h0v.02h0a.82.82,0,0,1-.8.82h-.02A.82.82,0,0,1,1009.22,524.49Zm-.16-6.51v-.02h0a.82.82,0,0,1,.8-.82h0a.813.813,0,0,1,.8408.8h0v.02h0a.8267.8267,0,0,1-.8008.82h-.0195A.8261.8261,0,0,1,1009.06,517.98Zm-.16-6.52v-.02h0a.8274.8274,0,0,1,.8008-.82h0a.8244.8244,0,0,1,.84.8h0v.02h0a.8134.8134,0,0,1-.8.82h-.02A.8273.8273,0,0,1,1008.8994,511.46Zm-.1592-6.51v-.02h0a.8256.8256,0,0,1,.8-.82h0a.8173.8173,0,0,1,.84.8h0v.02h0a.82.82,0,0,1-.8.82h-.02A.8259.8259,0,0,1,1008.74,504.95Zm-.15-6.51v-.02h0a.8132.8132,0,0,1,.8-.82h0a.8089.8089,0,0,1,.83.8h0v.02h0a.8043.8043,0,0,1-.8.81h0c0,.01-.01.01-.02.01h0A.8173.8173,0,0,1,1008.59,498.44Zm-.16-6.52v-.02h0a.8184.8184,0,0,1,.79-.82h0a.8177.8177,0,0,1,.84.8h0v.02h0a.8108.8108,0,0,1-.79.82h-.0293A.811.811,0,0,1,1008.43,491.92Zm-.16-6.51v-.02h0a.8116.8116,0,0,1,.79-.82h0a.8177.8177,0,0,1,.84.8h0v.02h0a.8108.8108,0,0,1-.79.82h-.0293A.8187.8187,0,0,1,1008.27,485.41Zm-.16-6.51v-.03h0a.8109.8109,0,0,1,.8008-.81h0a.8093.8093,0,0,1,.83.8h0v.02h0a.8266.8266,0,0,1-.8007.82h-.01A.82.82,0,0,1,1008.1094,478.9Zm-.1592-6.52v-.02h0a.8191.8191,0,0,1,.8-.82h0a.83.83,0,0,1,.84.8h0v.02h0a.82.82,0,0,1-.8.82h-.02A.8123.8123,0,0,1,1007.95,472.38Zm-.16-6.51v-.02h0a.8193.8193,0,0,1,.8-.82h0a.8152.8152,0,0,1,.83.8h0c.01.01.01.01.01.02h0a.8268.8268,0,0,1-.8.82h-.02A.82.82,0,0,1,1007.79,465.87Zm-.16-6.51v-.02h0a.8124.8124,0,0,1,.8-.82h0a.8167.8167,0,0,1,.84.8h0v.02h0a.8257.8257,0,0,1-.8.82h-.03A.8173.8173,0,0,1,1007.63,459.36Zm-.16-6.52v-.02h0a.8258.8258,0,0,1,.8-.82h0a.8231.8231,0,0,1,.84.8h0v.03h0a.8167.8167,0,0,1-.8.81h-.0293A.8106.8106,0,0,1,1007.47,452.84Zm-.16-6.51v-.02h0a.82.82,0,0,1,.8-.82h0a.8253.8253,0,0,1,.8408.8h0v.02h0a.8269.8269,0,0,1-.8008.82h-.0195A.82.82,0,0,1,1007.31,446.33Zm-.16-6.51v-.03h0a.811.811,0,0,1,.8008-.81h0a.8172.8172,0,0,1,.84.8h0v.02h0a.8333.8333,0,0,1-.8.82h-.02A.8275.8275,0,0,1,1007.1494,439.82Zm-.1592-6.52v-.02h0a.8189.8189,0,0,1,.8-.82h0a.8235.8235,0,0,1,.84.8h0v.02h0a.82.82,0,0,1-.8.82h-.02A.8189.8189,0,0,1,1006.99,433.3Zm-.16-6.51v-.02h0a.82.82,0,0,1,.8-.82h0a.8237.8237,0,0,1,.84.8h0v.02h0a.8266.8266,0,0,1-.8.82h-.02A.8192.8192,0,0,1,1006.83,426.79Zm-.16-6.51a.8174.8174,0,0,1,.8-.84h0a.8168.8168,0,0,1,.84.8h0a.8235.8235,0,0,1-.8.84h-.02A.8262.8262,0,0,1,1006.67,420.28Z" transform="translate(-744.6699 -344.3564)"/><path class="b" d="M1152.85,571.66a.7086.7086,0,0,1-.09-.3907h0a.8057.8057,0,0,1,.43-.72h0a.8153.8153,0,0,1,1.11.34h0a.9085.9085,0,0,1,.1.3907h0a.8614.8614,0,0,1-.4394.72h0a.8546.8546,0,0,1-.38.09h0A.8349.8349,0,0,1,1152.85,571.66Zm-4.81-.24a.82.82,0,0,1-.16-.49h0a.7739.7739,0,0,1,.32-.66h0a.8159.8159,0,0,1,1.1494.15h0a.8171.8171,0,0,1,.16.49h0a.7988.7988,0,0,1-.32.6591h0a.7668.7668,0,0,1-.4893.1709h0A.8294.8294,0,0,1,1148.04,571.42Zm-29.57-.12a.8257.8257,0,0,1-.79-.83h0V570.45h0a.8243.8243,0,0,1,.8506-.79h0a.8256.8256,0,0,1,.789.83h0v.02h0a.8236.8236,0,0,1-.8193.79h-.03Zm-6.51-.25a.8191.8191,0,0,1-.79-.83h0V570.2h0a.83.83,0,0,1,.85-.79h0a.8327.8327,0,0,1,.79.83h0v.02h0a.8238.8238,0,0,1-.8194.79h-.03Zm-6.51-.25a.8121.8121,0,0,1-.79-.83h0V569.95h0a.8294.8294,0,0,1,.85-.79h0a.8327.8327,0,0,1,.79.83h0v.02h0a.8171.8171,0,0,1-.82.79h-.0293Zm-6.5107-.24a.82.82,0,0,1-.79-.83h0V569.71h0a.8244.8244,0,0,1,.8506-.79h0a.8268.8268,0,0,1,.79.83h0v.0195h0a.8245.8245,0,0,1-.82.79h-.03Zm24.99-.55a.7912.7912,0,0,1-.11-.41h0a.8041.8041,0,0,1,.4209-.71h0a.8005.8005,0,0,1,1.1094.3106h0a.7642.7642,0,0,1,.11.4092h0a.81.81,0,0,1-.41.7v.01a.8424.8424,0,0,1-.4.1006h0A.8312.8312,0,0,1,1123.93,570.01Zm-31.5.3a.8192.8192,0,0,1-.79-.83h0V569.46h0a.8245.8245,0,0,1,.8506-.79h0a.8336.8336,0,0,1,.79.83h0v.0195h0a.8253.8253,0,0,1-.82.79h-.03Zm-6.51-.25a.8191.8191,0,0,1-.79-.83h0V569.21h0a.824.824,0,0,1,.85-.79h0a.8328.8328,0,0,1,.79.83h0v.0195h0a.8169.8169,0,0,1-.8193.79h-.03Zm-6.51-.25a.8063.8063,0,0,1-.79-.83h0V568.96h0a.81.81,0,0,1,.85-.78h0a.8174.8174,0,0,1,.79.82h0v.0195h0a.8238.8238,0,0,1-.82.79h-.0293Zm-6.5206-.25a.8179.8179,0,0,1-.79-.8194h0c0-.0107,0-.02.01-.02h0a.8069.8069,0,0,1,.8506-.79h0a.8057.8057,0,0,1,.78.83h0v.02h0a.8163.8163,0,0,1-.8105.789h0C1072.92,569.5693,1072.8994,569.56,1072.89,569.56Zm-6.51-.24a.8172.8172,0,0,1-.78-.8291h0v-.02h0a.81.81,0,0,1,.84-.79h0a.8191.8191,0,0,1,.79.83h0v.02h0a.817.817,0,0,1-.8193.789h-.03Zm-6.51-.25a.8193.8193,0,0,1-.79-.8291h0a.0318.0318,0,0,1,.01-.02h0a.8038.8038,0,0,1,.85-.78h0a.8031.8031,0,0,1,.78.82h0v.02h0a.8105.8105,0,0,1-.82.789h-.0293Zm-6.5107-.25a.8178.8178,0,0,1-.79-.8193h0v-.02h0a.8184.8184,0,0,1,.8506-.79h0a.805.805,0,0,1,.79.82h0v.03h0a.816.816,0,0,1-.82.7793h-.03Zm-6.51-.2392a.8348.8348,0,0,1-.79-.83h0v-.02h0a.8184.8184,0,0,1,.8506-.79h0a.814.814,0,0,1,.79.83h0v.02h0a.8194.8194,0,0,1-.82.79h-.03Zm-6.51-.25a.8316.8316,0,0,1-.79-.8506h0a.8314.8314,0,0,1,.85-.79h0a.8243.8243,0,0,1,.79.8505h0a.8245.8245,0,0,1-.8194.79h-.03Zm89.59-.83a.6167.6167,0,0,1-.04-.2305h0a.8187.8187,0,0,1,.6006-.7793h0a.8016.8016,0,0,1,1.01.56h0a.92.92,0,0,1,.03.22h0a.8129.8129,0,0,1-.5908.79h0a.8831.8831,0,0,1-.2295.03h0A.8024.8024,0,0,1,1129.93,567.5Zm13.14.49a.8022.8022,0,0,1-.4892-.74h0a.8268.8268,0,0,1,.0693-.34h0a.8219.8219,0,0,1,1.08-.42h0a.8312.8312,0,0,1,.49.7393h0a.7825.7825,0,0,1-.07.34h0a.823.823,0,0,1-.75.49h0A.79.79,0,0,1,1143.0693,567.99Zm13.41-.02a.8126.8126,0,0,1-.55-.78h0a.8158.8158,0,0,1,.04-.26h0a.8154.8154,0,0,1,1.04-.51h0a.813.813,0,0,1,.55.78h0a.7388.7388,0,0,1-.04.26h0a.8318.8318,0,0,1-.77.5595h0A.8516.8516,0,0,1,1156.48,567.97Zm5.6006-.83c0-.04-.0108-.08-.0108-.13h0a.8256.8256,0,0,1,.7-.8h0a.8249.8249,0,0,1,.94.6894h0v.12h0a.8182.8182,0,0,1-.69.8106h0a.5019.5019,0,0,1-.12.01h0A.8267.8267,0,0,1,1162.08,567.14Zm4.14.26h0a.8129.8129,0,0,1-.65-.8h0a.9031.9031,0,0,1,.0108-.17h0a.8226.8226,0,0,1,.97-.64h0a.8129.8129,0,0,1,.65.8h0a.9077.9077,0,0,1-.0107.17h0a.8158.8158,0,0,1-.81.65h0A.8546.8546,0,0,1,1166.22,567.3994ZM1136.28,566.08V566.02h0a.8163.8163,0,0,1,.75-.8193h0a.82.82,0,0,1,.89.75h0v.06h0a.8187.8187,0,0,1-.75.82h-.07A.8239.8239,0,0,1,1136.28,566.08Zm36.1093.5a.7984.7984,0,0,1-.5-.75h0a.7131.7131,0,0,1,.07-.32h0a.81.81,0,0,1,1.07-.43h0a.8272.8272,0,0,1,.5.76h0a.7807.7807,0,0,1-.07.32h0a.8148.8148,0,0,1-.75.4892h0A.7154.7154,0,0,1,1172.39,566.58Z" transform="translate(-744.6699 -344.3564)"/><path class="b" d="M1121.43,671.74h0a.8617.8617,0,0,1-.4395-.7207h0a.7772.7772,0,0,1,.1-.39h0a.823.823,0,0,1,1.11-.34h0a.7854.7854,0,0,1,.43.73h0a.814.814,0,0,1-.09.37h0a.8239.8239,0,0,1-.73.4405h0A.8544.8544,0,0,1,1121.43,671.74Zm-5.78-3.04a.8139.8139,0,0,1-.4394-.7305h0a.7423.7423,0,0,1,.1-.37h0a.8133.8133,0,0,1,1.1006-.35h0a.8376.8376,0,0,1,.4394.74h0a.8426.8426,0,0,1-.09.3692h0a.835.835,0,0,1-.73.44h0A.7534.7534,0,0,1,1115.6494,668.7Zm-5.79-3h0a.825.825,0,0,1-.4395-.7305h0a.814.814,0,0,1,.09-.37h0a.8071.8071,0,0,1,1.1-.3594h0a.82.82,0,0,1,.45.73h0a.8015.8015,0,0,1-.09.37h0a.8283.8283,0,0,1-.74.45h0A.8449.8449,0,0,1,1109.8594,665.7Zm-2.8-4.61a.8312.8312,0,0,1-.52-.76h0a1.05,1.05,0,0,1,.06-.3h0a.8259.8259,0,0,1,1.07-.461h0a.8108.8108,0,0,1,.51.77h0a.7986.7986,0,0,1-.06.3h0a.8015.8015,0,0,1-.7607.51h0A.8028.8028,0,0,1,1107.06,661.09Zm1.05-6.3a.8008.8008,0,0,1-.3194-.66h0a.77.77,0,0,1,.17-.49h0a.803.803,0,0,1,1.14-.1494h0a.8084.8084,0,0,1,.33.6592h0a.8291.8291,0,0,1-.17.49h0a.8248.8248,0,0,1-.65.32h0A.8438.8438,0,0,1,1108.1094,654.79Zm-6.72-.6806a.7737.7737,0,0,1-.01-.1494h0a.814.814,0,0,1,.66-.8106h.01a.81.81,0,0,1,.95.65h0a.78.78,0,0,1,.02.15h0a.8242.8242,0,0,1-.67.81h0a.7737.7737,0,0,1-.1494.01h0A.8236.8236,0,0,1,1101.39,654.1094Zm-12.07.1709a.8055.8055,0,0,1-.73-.8106h0v-.09h0a.82.82,0,0,1,.9-.7305h0a.8392.8392,0,0,1,.7393.82h0c0,.03-.01.05-.01.08h0a.8144.8144,0,0,1-.81.74h0A.2906.2906,0,0,1,1089.3193,654.28Zm6.45-.28h0a.818.818,0,0,1-.7-.8105h0c0-.04.0108-.08.0108-.12h0a.8234.8234,0,0,1,.9394-.6894h0a.8171.8171,0,0,1,.69.81h0a.6246.6246,0,0,1-.01.13h0a.8157.8157,0,0,1-.8008.6905h0A.5392.5392,0,0,1,1095.77,654Zm-16.93-1.6807a.8106.8106,0,0,1-.12-.42h0a.8112.8112,0,0,1,.39-.6992h0a.8235.8235,0,0,1,1.1308.2695h0a.8292.8292,0,0,1,.1192.43h0a.8372.8372,0,0,1-.39.7h0a.8461.8461,0,0,1-.43.12h0A.8115.8115,0,0,1,1078.84,652.3193Zm4.03.1807v-.01a.8031.8031,0,0,1-.53-.75h0a1.0442,1.0442,0,0,1,.05-.3007h0a.8124.8124,0,0,1,1.0606-.47h0v-.01h0a.84.84,0,0,1,.5293.76h0a.7989.7989,0,0,1-.06.3h0a.8053.8053,0,0,1-.76.53h0A.9175.9175,0,0,1,1082.87,652.5Zm-9.53-.8105h0a.8669.8669,0,0,1-.25-.5694h0a.8572.8572,0,0,1,.24-.59h0a.8212.8212,0,0,1,1.16-.0108h0a.8209.8209,0,0,1,.2393.58h0a.8544.8544,0,0,1-.2295.58h0a.8511.8511,0,0,1-.59.25h0A.7961.7961,0,0,1,1073.34,651.69Zm-5.12-3.4795a.8629.8629,0,0,1-.49-.75h0a.7645.7645,0,0,1,.08-.33h0a.8143.8143,0,0,1,1.08-.42h0a.8211.8211,0,0,1,.4805.75h0a.791.791,0,0,1-.07.33h0a.8047.8047,0,0,1-.75.49h0A.7886.7886,0,0,1,1068.22,648.21Zm-4.45-5.16h0a.8027.8027,0,0,1-.08-.33h0a.8111.8111,0,0,1,.48-.75h0a.8236.8236,0,0,1,1.09.4h0a.8289.8289,0,0,1,.07.34h0a.8341.8341,0,0,1-.48.75h0a.7975.7975,0,0,1-.34.07h0A.8087.8087,0,0,1,1063.77,643.05Zm-3.2392-5.5a.7782.7782,0,0,1-.08-.36h0a.8006.8006,0,0,1,.46-.7295h0a.82.82,0,0,1,1.1.38H1062a.7916.7916,0,0,1,.08.36h0a.8113.8113,0,0,1-.46.73h0a.7412.7412,0,0,1-.3506.08h0A.815.815,0,0,1,1060.53,637.55Zm-5.19-.99a.7331.7331,0,0,1-.1-.37h0a.81.81,0,0,1,.4395-.7295h0a.8143.8143,0,0,1,1.11.34h0a.8451.8451,0,0,1,.09.37h0a.8391.8391,0,0,1-.44.74h0a.8559.8559,0,0,1-.38.09h0A.8069.8069,0,0,1,1055.34,636.56Zm-3.14-5.42a.8058.8058,0,0,1-.2207-.54h0a.7923.7923,0,0,1,.2607-.6094h0a.82.82,0,0,1,1.1592.0293h0a.8148.8148,0,0,1,.2207.55h0a.8237.8237,0,0,1-.2607.61h0a.8061.8061,0,0,1-.56.22h0A.8422.8422,0,0,1,1052.2,631.14ZM1046.44,629.16a.81.81,0,0,1,.8105-.82h0a.8085.8085,0,0,1,.8193.81h0a.8315.8315,0,0,1-.8193.83h0A.8154.8154,0,0,1,1046.44,629.16Zm-6.3194-.13a.8307.8307,0,0,1,.4395-1.08h0a.8167.8167,0,0,1,1.07.4394h0a.82.82,0,0,1-.43,1.07h0a.7806.7806,0,0,1-.32.07h0A.8376.8376,0,0,1,1040.12,629.03Z" transform="translate(-744.6699 -344.3564)"/><path class="c" d="M1070.5908,658.6846h1.834l-2.9121,8.5664h-1.98l-2.9062-8.5664h1.834l1.6113,5.0976q.1347.4512.2783,1.0518t.1787.8349a15.0223,15.0223,0,0,1,.4395-1.8867Z" transform="translate(-744.6699 -344.3564)"/><path class="c" d="M1073.5029,667.251v-8.5664h1.8164v8.5664Z" transform="translate(-744.6699 -344.3564)"/><path class="c" d="M1081.1143,660.0732a1.8508,1.8508,0,0,0-1.5879.7706,3.5842,3.5842,0,0,0-.5625,2.1474q0,2.8653,2.15,2.8652a6.797,6.797,0,0,0,2.1855-.4511v1.5234a6.0689,6.0689,0,0,1-2.3555.4395,3.5924,3.5924,0,0,1-2.8593-1.1338,4.8006,4.8006,0,0,1-.99-3.2549,5.3138,5.3138,0,0,1,.4864-2.3408,3.5148,3.5148,0,0,1,1.3974-1.541,4.1335,4.1335,0,0,1,2.1358-.5362,5.7651,5.7651,0,0,1,2.5078.6035l-.586,1.4766a9.6807,9.6807,0,0,0-.9668-.3984A2.8833,2.8833,0,0,0,1081.1143,660.0732Z" transform="translate(-744.6699 -344.3564)"/><path class="c" d="M1095.9277,612.291h-2.3086l-3.7265-6.4805h-.0528q.1115,1.7169.1114,2.4493v4.0312h-1.6231v-8.5664h2.291l3.7207,6.416h.0411q-.0879-1.67-.0879-2.3613v-4.0547h1.6347Z" transform="translate(-744.6699 -344.3564)"/><path class="c" d="M1103.1406,609.9121a2.2145,2.2145,0,0,1-.8349,1.8281,3.6274,3.6274,0,0,1-2.3233.668,5.4573,5.4573,0,0,1-2.4258-.5156v-1.6875a10.0041,10.0041,0,0,0,1.4678.5449,4.3418,4.3418,0,0,0,1.0986.1582,1.5623,1.5623,0,0,0,.917-.2285.7817.7817,0,0,0,.3194-.68.75.75,0,0,0-.1406-.4482,1.5747,1.5747,0,0,0-.4131-.378,10.63,10.63,0,0,0-1.11-.58,5.2655,5.2655,0,0,1-1.1777-.709,2.6642,2.6642,0,0,1-.627-.791,2.2581,2.2581,0,0,1-.2344-1.0547,2.2136,2.2136,0,0,1,.7706-1.7871,3.2014,3.2014,0,0,1,2.13-.65,5.0283,5.0283,0,0,1,1.2745.1582,8.7515,8.7515,0,0,1,1.2685.4453l-.5859,1.4121a8.5755,8.5755,0,0,0-1.1338-.3926,3.65,3.65,0,0,0-.8819-.1113,1.1681,1.1681,0,0,0-.791.24.7926.7926,0,0,0-.2754.627.776.776,0,0,0,.1114.4189,1.2229,1.2229,0,0,0,.3545.3457,10.9759,10.9759,0,0,0,1.1513.6006,4.5808,4.5808,0,0,1,1.6465,1.1514A2.2467,2.2467,0,0,1,1103.1406,609.9121Z" transform="translate(-744.6699 -344.3564)"/><path class="c" d="M1113.0371,612.291h-2.0683l-1.16-4.5q-.0645-.24-.22-.9931t-.1787-1.0108q-.0353.3164-.1758,1.0166t-.2168.999l-1.1543,4.4883h-2.0625l-2.1856-8.5664h1.7871l1.0957,4.6758q.2872,1.2949.4161,2.2441.0351-.3339.1611-1.0341t.2373-1.087l1.248-4.7988h1.7168l1.2481,4.7988q.082.3223.2051.9844t.1875,1.1367q.0585-.4571.1875-1.14t.2343-1.1045l1.09-4.6758h1.7871Z" transform="translate(-744.6699 -344.3564)"/><path class="c" d="M1078.332,499.8257a5.4134,5.4134,0,0,1-.5361,2.5342,3.27,3.27,0,0,1-1.5732,1.497l2.0625,2.3028h-2.3262l-1.57-1.9219h-.1348a3.91,3.91,0,0,1-3.0234-1.1426,4.6662,4.6662,0,0,1-1.0547-3.2812,4.6029,4.6029,0,0,1,1.0576-3.2666,3.9548,3.9548,0,0,1,3.0322-1.128,3.9,3.9,0,0,1,3.0205,1.1368A4.66,4.66,0,0,1,1078.332,499.8257Zm-6.2519,0a3.5784,3.5784,0,0,0,.5449,2.1621,1.9066,1.9066,0,0,0,1.6289.7266q2.1738,0,2.1738-2.8887,0-2.8945-2.1621-2.8945a1.92,1.92,0,0,0-1.6347.7294A3.5636,3.5636,0,0,0,1072.08,499.8257Z" transform="translate(-744.6699 -344.3564)"/><path class="c" d="M1080.1074,504.1206v-8.5664h1.8164v7.0664h3.4746v1.5Z" transform="translate(-744.6699 -344.3564)"/><path class="c" d="M1093.9941,499.7554a4.2182,4.2182,0,0,1-1.2041,3.24,4.91,4.91,0,0,1-3.4775,1.125h-2.4258v-8.5664h2.6895a4.529,4.529,0,0,1,3.2578,1.1074A4.0738,4.0738,0,0,1,1093.9941,499.7554Zm-1.8867.0468q0-2.76-2.4375-2.76h-.9668v5.5781h.7793Q1092.1074,502.6206,1092.1074,499.8022Z" transform="translate(-744.6699 -344.3564)"/><path class="c" d="M978.8486,575.0918a2.2145,2.2145,0,0,1-.8349,1.8281,3.6274,3.6274,0,0,1-2.3233.668,5.4573,5.4573,0,0,1-2.4258-.5156v-1.6875a10.0041,10.0041,0,0,0,1.4678.5449,4.3419,4.3419,0,0,0,1.0987.1582,1.562,1.562,0,0,0,.9169-.2285.7817.7817,0,0,0,.3194-.68.7508.7508,0,0,0-.1406-.4483,1.5762,1.5762,0,0,0-.4131-.3779,10.645,10.645,0,0,0-1.11-.58,5.2657,5.2657,0,0,1-1.1777-.7089,2.6634,2.6634,0,0,1-.627-.7911,2.2574,2.2574,0,0,1-.2343-1.0546,2.2139,2.2139,0,0,1,.7705-1.7872,3.2014,3.2014,0,0,1,2.13-.65,5.0283,5.0283,0,0,1,1.2745.1583,8.7515,8.7515,0,0,1,1.2685.4453l-.5859,1.4121a8.5755,8.5755,0,0,0-1.1338-.3926,3.65,3.65,0,0,0-.8818-.1113,1.1676,1.1676,0,0,0-.7911.24.7925.7925,0,0,0-.2754.627.776.776,0,0,0,.1114.4189,1.2241,1.2241,0,0,0,.3545.3457,10.9759,10.9759,0,0,0,1.1513.6006,4.5808,4.5808,0,0,1,1.6465,1.1514A2.2467,2.2467,0,0,1,978.8486,575.0918Z" transform="translate(-744.6699 -344.3564)"/><path class="c" d="M985.6455,577.4707l-.6211-2.0391h-3.123l-.6211,2.0391h-1.9571l3.0235-8.6016h2.2207l3.0351,8.6016Zm-1.0547-3.5625q-.8613-2.7715-.97-3.1348t-.1553-.5742q-.1933.75-1.1074,3.709Z" transform="translate(-744.6699 -344.3564)"/></svg>